VirtuaGrotesk-Regular.ufo
<glyph name="asterisk" format="2">
	<unicode hex="002A"/>
	<advance width="600"/>
	<outline>
		<contour>
			<point x="290" y="630" type="line"/>
			<point x="360" y="528" type="line"/>
			<point x="408" y="560" type="line"/>
			<point x="344" y="656" type="line"/>
			<point x="448" y="694" type="line"/>
			<point x="428" y="746" type="line"/>
			<point x="322" y="712" type="line"/>
			<point x="322" y="832" type="line"/>
			<point x="260" y="832" type="line"/>
			<point x="260" y="712" type="line"/>
			<point x="154" y="746" type="line"/>
			<point x="134" y="694" type="line"/>
			<point x="240" y="656" type="line"/>
			<point x="170" y="560" type="line"/>
			<point x="240" y="526" type="line"/>
		</contour>
	</outline>
</glyph>
<glyph name="plus" format="2">
	<unicode hex="002B"/>
	<advance width="600"/>
	<outline>
		<contour>
			<point x="260" y="168" type="line"/>
			<point x="340" y="168" type="line"/>
			<point x="340" y="576" type="line"/>
			<point x="260" y="576" type="line"/>
		</contour>
		<contour>
			<point x="96" y="332" type="line"/>
			<point x="504" y="332" type="line"/>
			<point x="504" y="412" type="line"/>
			<point x="96" y="412" type="line"/>
		</contour>
	</outline>
</glyph>
<glyph name="less" format="2">
	<unicode hex="003C"/>
	<advance width="600"/>
	<outline>
		<contour>
			<point x="524" y="104" type="line"/>
			<point x="524" y="184" type="line"/>
			<point x="156" y="336" type="line"/>
			<point x="524" y="488" type="line"/>
			<point x="524" y="566" type="line"/>
			<point x="88" y="380" type="line"/>
			<point x="88" y="290" type="line"/>
		</contour>
	</outline>
</glyph>
<glyph name="equal" format="2">
	<unicode hex="003D" />
	<advance width="600" />
	<outline>
		<contour>
			<point x="96" y="416" type="line" />
			<point x="504" y="416" type="line" />
			<point x="504" y="496" type="line" />
			<point x="96" y="496" type="line" />
		</contour>
		<contour>
			<point x="96" y="232" type="line" />
			<point x="504" y="232" type="line" />
			<point x="504" y="312" type="line" />
			<point x="96" y="312" type="line" />
		</contour>
	</outline>
</glyph>
<glyph name="greater" format="2">
	<unicode hex="003E"/>
	<advance width="600"/>
	<outline>
		<contour>
			<point x="92" y="106" type="line"/>
			<point x="528" y="292" type="line"/>
			<point x="528" y="380" type="line"/>
			<point x="94" y="564" type="line"/>
			<point x="94" y="486" type="line"/>
			<point x="458" y="336" type="line"/>
			<point x="92" y="184" type="line"/>
		</contour>
	</outline>
</glyph>
<glyph name="question" format="2">
	<unicode hex="003F"/>
	<advance width="600"/>
	<outline>
		<contour>
			<point x="352" y="0" type="line"/>
			<point x="352" y="106" type="line"/>
			<point x="246" y="106" type="line"/>
			<point x="246" y="0" type="line"/>
		</contour>
		<contour>
			<point x="340" y="186" type="line"/>
			<point x="340" y="236"/>
			<point x="358" y="260"/>
			<point x="358" y="292" type="curve"/>
			<point x="460" y="406"/>
			<point x="554" y="514"/>
			<point x="554" y="570" type="curve" smooth="yes"/>
			<point x="554" y="714"/>
			<point x="446" y="784"/>
			<point x="338" y="784" type="curve" smooth="yes"/>
			<point x="178" y="784"/>
			<point x="62" y="710"/>
			<point x="62" y="542" type="curve" smooth="yes"/>
			<point x="60" y="522" type="line"/>
			<point x="148" y="522" type="line"/>
			<point x="154" y="574" type="line" smooth="yes"/>
			<point x="154" y="636"/>
			<point x="226" y="708"/>
			<point x="316" y="708" type="curve" smooth="yes"/>
			<point x="430" y="708"/>
			<point x="460" y="640"/>
			<point x="460" y="554" type="curve" smooth="yes"/>
			<point x="460" y="486"/>
			<point x="290" y="380"/>
			<point x="290" y="334" type="curve" smooth="yes"/>
			<point x="290" y="282"/>
			<point x="258" y="264"/>
			<point x="258" y="186" type="curve"/>
		</contour>
	</outline>
</glyph>
<glyph name="at" format="2">
	<unicode hex="0040"/>
	<advance width="720"/>
	<outline>
		<contour>
			<point x="394" y="-110" type="curve" smooth="yes"/>
			<point x="132" y="-110"/>
			<point x="-72" y="30"/>
			<point x="-72" y="314" type="curve" smooth="yes"/>
			<point x="-72" y="592"/>
			<point x="162" y="766"/>
			<point x="346" y="766" type="curve" smooth="yes"/>
			<point x="652" y="766"/>
			<point x="800" y="620"/>
			<point x="800" y="354" type="curve" smooth="yes"/>
			<point x="800" y="254"/>
			<point x="760" y="150"/>
			<point x="680" y="112" type="curve" smooth="yes"/>
			<point x="674" y="108"/>
			<point x="634" y="96"/>
			<point x="610" y="96" type="curve" smooth="yes"/>
			<point x="554" y="96"/>
			<point x="514" y="122"/>
			<point x="496" y="180" type="curve"/>
			<point x="490" y="180"/>
			<point x="484" y="178"/>
			<point x="480" y="174" type="curve" smooth="yes"/>
			<point x="440" y="128"/>
			<point x="402" y="88"/>
			<point x="324" y="88" type="curve" smooth="yes"/>
			<point x="212" y="88"/>
			<point x="142" y="168"/>
			<point x="142" y="298" type="curve" smooth="yes"/>
			<point x="142" y="416"/>
			<point x="210" y="562"/>
			<point x="358" y="562" type="curve" smooth="yes"/>
			<point x="428" y="562"/>
			<point x="458" y="530"/>
			<point x="496" y="486" type="curve"/>
			<point x="506" y="550" type="line"/>
			<point x="588" y="550" type="line"/>
			<point x="554" y="202" type="line" smooth="yes"/>
			<point x="554" y="176"/>
			<point x="584" y="164"/>
			<point x="618" y="164" type="curve" smooth="yes"/>
			<point x="706" y="164"/>
			<point x="726" y="298"/>
			<point x="726" y="400" type="curve" smooth="yes"/>
			<point x="726" y="574"/>
			<point x="602" y="698"/>
			<point x="354" y="698" type="curve" smooth="yes"/>
			<point x="172" y="698"/>
			<point x="4" y="552"/>
			<point x="4" y="284" type="curve" smooth="yes"/>
			<point x="4" y="58"/>
			<point x="172" y="-42"/>
			<point x="394" y="-42" type="curve"/>
			<point x="562" y="-8" type="line"/>
			<point x="586" y="-64" type="line"/>
			<point x="516" y="-92"/>
			<point x="454" y="-110"/>
		</contour>
		<contour>
			<point x="274" y="156"/>
			<point x="356" y="156" type="curve" smooth="yes"/>
			<point x="420" y="156"/>
			<point x="480" y="250"/>
			<point x="480" y="328" type="curve" smooth="yes"/>
			<point x="480" y="414"/>
			<point x="472" y="494"/>
			<point x="358" y="494" type="curve" smooth="yes"/>
			<point x="244" y="494"/>
			<point x="230" y="356"/>
			<point x="230" y="262" type="curve" smooth="yes"/>
			<point x="230" y="192"/>
		</contour>
	</outline>
</glyph>
<glyph name="S" format="2">
	<unicode hex="0053"/>
	<advance width="664"/>
	<outline>
		<contour>
			<point x="134" y="-16"/>
			<point x="334" y="-16" type="curve" smooth="yes"/>
			<point x="492" y="-16"/>
			<point x="632" y="62"/>
			<point x="632" y="198" type="curve" smooth="yes"/>
			<point x="632" y="310"/>
			<point x="564" y="400"/>
			<point x="360" y="444" type="curve" smooth="yes"/>
			<point x="230" y="472"/>
			<point x="142" y="512"/>
			<point x="142" y="580" type="curve" smooth="yes"/>
			<point x="142" y="644"/>
			<point x="206" y="692"/>
			<point x="316" y="692" type="curve" smooth="yes"/>
			<point x="446" y="692"/>
			<point x="492" y="608"/>
			<point x="504" y="560" type="curve"/>
			<point x="520" y="544" type="line"/>
			<point x="588" y="544" type="line"/>
			<point x="604" y="560" type="line"/>
			<point x="604" y="576" type="line"/>
			<point x="584" y="682"/>
			<point x="500" y="784"/>
			<point x="316" y="784" type="curve" smooth="yes"/>
			<point x="136" y="784"/>
			<point x="38" y="688"/>
			<point x="38" y="580" type="curve" smooth="yes"/>
			<point x="38" y="456"/>
			<point x="150" y="396"/>
			<point x="316" y="358" type="curve" smooth="yes"/>
			<point x="490" y="318"/>
			<point x="530" y="262"/>
			<point x="530" y="198" type="curve" smooth="yes"/>
			<point x="530" y="112"/>
			<point x="440" y="74"/>
			<point x="334" y="76" type="curve" smooth="yes"/>
			<point x="210" y="78"/>
			<point x="120" y="152"/>
			<point x="108" y="246" type="curve"/>
			<point x="92" y="262" type="line"/>
			<point x="24" y="262" type="line"/>
			<point x="8" y="246" type="line"/>
			<point x="8" y="230" type="line"/>
			<point x="20" y="100"/>
		</contour>
	</outline>
</glyph>
<glyph name="backslash" format="2">
  <advance width="600"/>
  <unicode hex="005C"/>
  <outline>
    <contour>
      <point x="116" y="584" type="line"/>
      <point x="440" y="0" type="line"/>
      <point x="520" y="0" type="line"/>
      <point x="196" y="584" type="line"/>
    </contour>
  </outline>
</glyph>
<glyph name="bracketright" format="2">
	<unicode hex="005D" />
	<advance width="320" />
	<outline>
		<contour>
			<point x="160" y="-96" type="line" />
			<point x="240" y="-96" type="line" />
			<point x="240" y="800" type="line" />
			<point x="160" y="800" type="line" />
		</contour>
		<contour>
			<point x="16" y="-96" type="line" />
			<point x="240" y="-96" type="line" />
			<point x="240" y="-16" type="line" />
			<point x="16" y="-16" type="line" />
		</contour>
		<contour>
			<point x="16" y="684" type="line" />
			<point x="240" y="684" type="line" />
			<point x="240" y="764" type="line" />
			<point x="16" y="764" type="line" />
		</contour>
	</outline>
</glyph>
<glyph name="asciicircum" format="2">
	<unicode hex="005E" />
	<advance width="420" />
	<outline>
		<contour>
			<point x="72" y="520" type="line" />
			<point x="136" y="440" type="line" />
			<point x="212" y="608" type="line" />
			<point x="288" y="440" type="line" />
			<point x="352" y="520" type="line" />
			<point x="244" y="744" type="line" />
			<point x="180" y="744" type="line" />
		</contour>
	</outline>
</glyph>
<glyph name="braceleft" format="2">
	<unicode hex="007B" />
	<advance width="360" />
	<outline>
		<contour>
			<point x="96" y="-96" type="line" />
			<point x="320" y="-96" type="line" />
			<point x="320" y="-16" type="line" />
			<point x="176" y="-16" type="line" />
			<point x="176" y="300" type="line" />
			<point x="276" y="300" type="line" />
			<point x="276" y="380" type="line" />
			<point x="176" y="380" type="line" />
			<point x="176" y="684" type="line" />
			<point x="320" y="684" type="line" />
			<point x="320" y="800" type="line" />
			<point x="176" y="800" type="line" />
			<point x="96" y="800" type="line" />
		</contour>
	</outline>
</glyph>
<glyph name="bar" format="2">
	<unicode hex="007C" />
	<advance width="320" />
	<outline>
		<contour>
			<point x="120" y="-96" type="line" />
			<point x="200" y="-96" type="line" />
			<point x="200" y="800" type="line" />
			<point x="120" y="800" type="line" />
		</contour>
	</outline>
</glyph>
<glyph name="braceright" format="2">
	<unicode hex="007D" />
	<advance width="360" />
	<outline>
		<contour>
			<point x="264" y="800" type="line" />
			<point x="184" y="800" type="line" />
			<point x="40" y="800" type="line" />
			<point x="40" y="684" type="line" />
			<point x="184" y="684" type="line" />
			<point x="184" y="380" type="line" />
			<point x="84" y="380" type="line" />
			<point x="84" y="300" type="line" />
			<point x="184" y="300" type="line" />
			<point x="184" y="-16" type="line" />
			<point x="40" y="-16" type="line" />
			<point x="40" y="-96" type="line" />
			<point x="264" y="-96" type="line" />
		</contour>
	</outline>
</glyph>
<glyph name="asciitilde" format="2">
  <advance width="520"/>
  <unicode hex="007E"/>
  <outline>
    <contour>
      <point x="72" y="392" type="line"/>
      <point x="184" y="460" type="line"/>
      <point x="296" y="380" type="line"/>
      <point x="408" y="448" type="line"/>
      <point x="408" y="536" type="line"/>
      <point x="296" y="468" type="line"/>
      <point x="184" y="548" type="line"/>
      <point x="72" y="480" type="line"/>
    </contour>
  </outline>
</glyph>
<glyph name="exclamdown" format="2">
	<unicode hex="00A1" />
	<advance width="600" />
	<outline>
		<contour>
			<point x="276" y="524" type="line" />
			<point x="324" y="524" type="line" />
			<point x="324" y="572" type="line" />
			<point x="276" y="572" type="line" />
		</contour>
		<contour>
			<point x="272" y="0" type="line" />
			<point x="328" y="0" type="line" />
			<point x="328" y="420" type="line" />
			<point x="272" y="420" type="line" />
		</contour>
	</outline>
</glyph>
<glyph name="cent" format="2">
  <advance width="600"/>
  <unicode hex="00A2"/>
  <outline>
    <contour>
      <point x="272" y="132" type="line"/>
      <point x="328" y="132" type="line"/>
      <point x="328" y="644" type="line"/>
      <point x="272" y="644" type="line"/>
    </contour>
    <contour>
      <point x="440" y="548" type="line"/>
      <point x="292" y="548" type="line"/>
      <point x="156" y="444" type="line"/>
      <point x="156" y="300" type="line"/>
      <point x="292" y="196" type="line"/>
      <point x="440" y="196" type="line"/>
      <point x="488" y="256" type="line"/>
      <point x="392" y="256" type="line"/>
      <point x="312" y="256" type="line"/>
      <point x="228" y="320" type="line"/>
      <point x="228" y="424" type="line"/>
      <point x="312" y="488" type="line"/>
      <point x="392" y="488" type="line"/>
      <point x="488" y="488" type="line"/>
    </contour>
  </outline>
</glyph>
<glyph name="yen" format="2">
  <advance width="600"/>
  <unicode hex="00A5"/>
  <outline>
    <contour>
      <point x="96" y="584" type="line"/>
      <point x="256" y="332" type="line"/>
      <point x="256" y="132" type="line"/>
      <point x="344" y="132" type="line"/>
      <point x="344" y="332" type="line"/>
      <point x="504" y="584" type="line"/>
      <point x="412" y="584" type="line"/>
      <point x="300" y="400" type="line"/>
      <point x="188" y="584" type="line"/>
    </contour>
    <contour>
      <point x="148" y="356" type="line"/>
      <point x="148" y="412" type="line"/>
      <point x="452" y="412" type="line"/>
      <point x="452" y="356" type="line"/>
    </contour>
    <contour>
      <point x="148" y="260" type="line"/>
      <point x="148" y="316" type="line"/>
      <point x="452" y="316" type="line"/>
      <point x="452" y="260" type="line"/>
    </contour>
  </outline>
</glyph>
<glyph name="dieresis" format="2">
	<unicode hex="00A8" />
	<advance width="360" />
	<outline>
		<contour>
			<point x="56" y="640" type="line" />
			<point x="136" y="640" type="line" />
			<point x="136" y="720" type="line" />
			<point x="56" y="720" type="line" />
		</contour>
		<contour>
			<point x="224" y="640" type="line" />
			<point x="304" y="640" type="line" />
			<point x="304" y="720" type="line" />
			<point x="224" y="720" type="line" />
		</contour>
	</outline>
</glyph>
<glyph name="copyright" format="2">
  <advance width="720"/>
  <unicode hex="00A9"/>
  <outline>
    <contour>
      <point x="360" y="660" type="line"/>
      <point x="200" y="612" type="line"/>
      <point x="100" y="492" type="line"/>
      <point x="100" y="328" type="line"/>
      <point x="200" y="208" type="line"/>
      <point x="360" y="160" type="line"/>
      <point x="520" y="208" type="line"/>
      <point x="620" y="328" type="line"/>
      <point x="620" y="492" type="line"/>
      <point x="520" y="612" type="line"/>
    </contour>
    <contour>
      <point x="360" y="572" type="line"/>
      <point x="476" y="540" type="line"/>
      <point x="544" y="456" type="line"/>
      <point x="544" y="364" type="line"/>
      <point x="476" y="280" type="line"/>
      <point x="360" y="248" type="line"/>
      <point x="244" y="280" type="line"/>
      <point x="176" y="364" type="line"/>
      <point x="176" y="456" type="line"/>
      <point x="244" y="540" type="line"/>
    </contour>
    <contour>
      <point x="432" y="456" type="line"/>
      <point x="308" y="504" type="line"/>
      <point x="224" y="416" type="line"/>
      <point x="224" y="328" type="line"/>
      <point x="308" y="252" type="line"/>
      <point x="432" y="252" type="line"/>
      <point x="476" y="300" type="line"/>
      <point x="392" y="300" type="line"/>
      <point x="328" y="300" type="line"/>
      <point x="292" y="336" type="line"/>
      <point x="292" y="372" type="line"/>
      <point x="328" y="408" type="line"/>
      <point x="392" y="408" type="line"/>
      <point x="476" y="408" type="line"/>
    </contour>
  </outline>
</glyph>
<glyph name="guillemetleft" format="2">
  <advance width="600"/>
  <unicode hex="00AB"/>
  <outline>
    <contour>
      <point x="468" y="568" type="line"/>
      <point x="248" y="404" type="line"/>
      <point x="248" y="340" type="line"/>
      <point x="468" y="176" type="line"/>
      <point x="536" y="244" type="line"/>
      <point x="380" y="372" type="line"/>
      <point x="536" y="500" type="line"/>
    </contour>
    <contour>
      <point x="288" y="568" type="line"/>
      <point x="68" y="404" type="line"/>
      <point x="68" y="340" type="line"/>
      <point x="288" y="176" type="line"/>
      <point x="356" y="244" type="line"/>
      <point x="200" y="372" type="line"/>
      <point x="356" y="500" type="line"/>
    </contour>
  </outline>
</glyph>
<glyph name="registered" format="2">
  <advance width="720"/>
  <unicode hex="00AE"/>
  <outline>
    <contour>
      <point x="360" y="660" type="line"/>
      <point x="200" y="612" type="line"/>
      <point x="100" y="492" type="line"/>
      <point x="100" y="328" type="line"/>
      <point x="200" y="208" type="line"/>
      <point x="360" y="160" type="line"/>
      <point x="520" y="208" type="line"/>
      <point x="620" y="328" type="line"/>
      <point x="620" y="492" type="line"/>
      <point x="520" y="612" type="line"/>
    </contour>
    <contour>
      <point x="360" y="572" type="line"/>
      <point x="476" y="540" type="line"/>
      <point x="544" y="456" type="line"/>
      <point x="544" y="364" type="line"/>
      <point x="476" y="280" type="line"/>
      <point x="360" y="248" type="line"/>
      <point x="244" y="280" type="line"/>
      <point x="176" y="364" type="line"/>
      <point x="176" y="456" type="line"/>
      <point x="244" y="540" type="line"/>
    </contour>
    <contour>
      <point x="292" y="512" type="line"/>
      <point x="292" y="280" type="line"/>
      <point x="348" y="280" type="line"/>
      <point x="348" y="452" type="line"/>
      <point x="396" y="452" type="line"/>
      <point x="396" y="424" type="line"/>
      <point x="348" y="424" type="line"/>
      <point x="348" y="364" type="line"/>
      <point x="428" y="364" type="line"/>
      <point x="476" y="408" type="line"/>
      <point x="476" y="464" type="line"/>
      <point x="424" y="512" type="line"/>
    </contour>
    <contour>
      <point x="360" y="364" type="line"/>
      <point x="432" y="280" type="line"/>
      <point x="500" y="280" type="line"/>
      <point x="424" y="364" type="line"/>
    </contour>
  </outline>
</glyph>
<glyph name="degree" format="2">
  <advance width="600"/>
  <unicode hex="00B0"/>
  <outline>
    <contour>
      <point x="212" y="584" type="line"/>
      <point x="256" y="508" type="line"/>
      <point x="344" y="508" type="line"/>
      <point x="388" y="584" type="line"/>
      <point x="344" y="660" type="line"/>
      <point x="256" y="660" type="line"/>
    </contour>
    <contour>
      <point x="256" y="584" type="line"/>
      <point x="278" y="622" type="line"/>
      <point x="322" y="622" type="line"/>
      <point x="344" y="584" type="line"/>
      <point x="322" y="546" type="line"/>
      <point x="278" y="546" type="line"/>
    </contour>
  </outline>
</glyph>
<glyph name="periodcentered" format="2">
	<unicode hex="00B7" />
	<advance width="600" />
	<outline>
		<contour>
			<point x="276" y="332" type="line" />
			<point x="324" y="332" type="line" />
			<point x="324" y="380" type="line" />
			<point x="276" y="380" type="line" />
		</contour>
	</outline>
</glyph>
<glyph name="germandbls" format="2">
	<unicode hex="00DF" />
	<advance width="600" />
	<outline>
		<contour>
			<point x="292" y="-16" type="curve"/>
			<point x="448" y="-16"/>
			<point x="532" y="52"/>
			<point x="532" y="160" type="curve"/>
			<point x="532" y="252"/>
			<point x="462" y="296"/>
			<point x="346" y="326" type="curve"/>
			<point x="314" y="334" type="line"/>
			<point x="218" y="358"/>
			<point x="156" y="382"/>
			<point x="156" y="448" type="curve"/>
			<point x="156" y="620"/>
			<point x="232" y="704"/>
			<point x="356" y="704" type="curve"/>
			<point x="440" y="704"/>
			<point x="500" y="652"/>
			<point x="500" y="580" type="curve"/>
			<point x="516" y="564" type="line"/>
			<point x="572" y="564" type="line"/>
			<point x="588" y="580" type="line"/>
			<point x="586" y="610" type="line"/>
			<point x="570" y="716"/>
			<point x="474" y="784"/>
			<point x="348" y="784" type="curve"/>
			<point x="172" y="784"/>
			<point x="60" y="672"/>
			<point x="60" y="448" type="curve"/>
			<point x="60" y="328"/>
			<point x="140" y="290"/>
			<point x="258" y="260" type="curve"/>
			<point x="290" y="252" type="line"/>
			<point x="388" y="228"/>
			<point x="436" y="208"/>
			<point x="436" y="160" type="curve"/>
			<point x="436" y="116"/>
			<point x="388" y="64"/>
			<point x="292" y="64" type="curve"/>
			<point x="228" y="64"/>
			<point x="148" y="92"/>
			<point x="148" y="172" type="curve"/>
			<point x="132" y="188" type="line"/>
			<point x="76" y="188" type="line"/>
			<point x="60" y="172" type="line"/>
			<point x="60" y="152" type="line"/>
			<point x="68" y="38"/>
			<point x="152" y="-16"/>
		</contour>
	</outline>
</glyph>
<glyph name="divide" format="2">
	<unicode hex="00F7" />
	<advance width="600" />
	<outline>
		<contour>
			<point x="96" y="332" type="line" />
			<point x="504" y="332" type="line" />
			<point x="504" y="412" type="line" />
			<point x="96" y="412" type="line" />
		</contour>
		<contour>
			<point x="272" y="524" type="line" />
			<point x="328" y="524" type="line" />
			<point x="328" y="580" type="line" />
			<point x="272" y="580" type="line" />
		</contour>
		<contour>
			<point x="272" y="164" type="line" />
			<point x="328" y="164" type="line" />
			<point x="328" y="220" type="line" />
			<point x="272" y="220" type="line" />
		</contour>
	</outline>
</glyph>
<glyph name="idotless" format="2">
	<unicode hex="0131"/>
	<advance width="232"/>
	<outline>
		<contour>
			<point x="84" y="0" type="line"/>
			<point x="148" y="0" type="line"/>
			<point x="164" y="16" type="line"/>
			<point x="164" y="560" type="line"/>
			<point x="148" y="576" type="line"/>
			<point x="84" y="576" type="line"/>
			<point x="68" y="560" type="line"/>
			<point x="68" y="16" type="line"/>
		</contour>
	</outline>
</glyph>
<glyph name="circumflex" format="2">
	<unicode hex="02C6" />
	<advance width="420" />
	<outline>
		<contour>
			<point x="72" y="520" type="line" />
			<point x="136" y="440" type="line" />
			<point x="212" y="608" type="line" />
			<point x="288" y="440" type="line" />
			<point x="352" y="520" type="line" />
			<point x="244" y="744" type="line" />
			<point x="180" y="744" type="line" />
		</contour>
	</outline>
</glyph>
<glyph name="ring" format="2">
	<unicode hex="02DA" />
	<advance width="300" />
	<outline>
		<contour>
			<point x="72" y="632" type="line" />
			<point x="228" y="632" type="line" />
			<point x="228" y="788" type="line" />
			<point x="72" y="788" type="line" />
		</contour>
		<contour>
			<point x="120" y="680" type="line" />
			<point x="120" y="740" type="line" />
			<point x="180" y="740" type="line" />
			<point x="180" y="680" type="line" />
		</contour>
	</outline>
</glyph>
<glyph name="ogonek" format="2">
	<unicode hex="02DB" />
	<advance width="260" />
	<outline>
		<contour>
			<point x="176" y="-120" type="line" />
			<point x="128" y="-108" type="line" />
			<point x="132" y="-72" type="line" />
			<point x="180" y="0" type="line" />
			<point x="132" y="0" type="line" />
			<point x="68" y="-72" type="line" />
			<point x="60" y="-124" type="line" />
			<point x="96" y="-168" type="line" />
			<point x="176" y="-168" type="line" />
		</contour>
	</outline>
</glyph>
<glyph name="tilde" format="2">
	<unicode hex="02DC" />
	<advance width="520" />
	<outline>
		<contour>
			<point x="72" y="392" type="line" />
			<point x="184" y="460" type="line" />
			<point x="296" y="380" type="line" />
			<point x="408" y="448" type="line" />
			<point x="408" y="536" type="line" />
			<point x="296" y="468" type="line" />
			<point x="184" y="548" type="line" />
			<point x="72" y="480" type="line" />
		</contour>
	</outline>
</glyph>
<glyph name="arabicSignSanah" format="2">
	<unicode hex="0601"/>
	<outline>
		<contour>
			<point x="-156" y="544" type="line"/>
			<point x="-84" y="600" type="line"/>
			<point x="84" y="600" type="line"/>
			<point x="156" y="544" type="line"/>
			<point x="96" y="656" type="line"/>
			<point x="-96" y="656" type="line"/>
		</contour>
	</outline>
</glyph>
<glyph name="arabicFootnoteMarker" format="2">
  <unicode hex="0602"/>
  <outline>
    <contour>
      <point x="-168" y="620" type="line"/>
      <point x="-56" y="508" type="line"/>
      <point x="24" y="560" type="line"/>
      <point x="104" y="508" type="line"/>
      <point x="168" y="572" type="line"/>
      <point x="56" y="684" type="line"/>
      <point x="-24" y="632" type="line"/>
      <point x="-104" y="684" type="line"/>
    </contour>
  </outline>
</glyph>
<glyph name="perMille-ar" format="2">
	<unicode hex="0609" />
	<advance width="600" />
	<outline>
		<contour>
			<point x="116" y="160" type="line" />
			<point x="196" y="160" type="line" />
			<point x="520" y="584" type="line" />
			<point x="440" y="584" type="line" />
		</contour>
		<contour>
			<point x="134" y="482" type="line" />
			<point x="178" y="482" type="line" />
			<point x="178" y="526" type="line" />
			<point x="134" y="526" type="line" />
		</contour>
		<contour>
			<point x="366" y="218" type="line" />
			<point x="410" y="218" type="line" />
			<point x="410" y="262" type="line" />
			<point x="366" y="262" type="line" />
		</contour>
		<contour>
			<point x="482" y="218" type="line" />
			<point x="526" y="218" type="line" />
			<point x="526" y="262" type="line" />
			<point x="482" y="262" type="line" />
		</contour>
	</outline>
</glyph>
<glyph name="comma-ar" format="2">
  <advance width="280"/>
  <unicode hex="060C"/>
  <outline>
    <contour>
      <point x="116" y="132" type="line"/>
      <point x="76" y="-56" type="line"/>
      <point x="148" y="-56" type="line"/>
      <point x="188" y="132" type="line"/>
    </contour>
  </outline>
</glyph>
<glyph name="smallHighZain-ar" format="2">
  <unicode hex="0617"/>
  <outline>
    <contour>
      <point x="-96" y="616" type="line"/>
      <point x="32" y="616" type="line"/>
      <point x="96" y="680" type="line"/>
      <point x="-32" y="680" type="line"/>
    </contour>
    <contour>
      <point x="-20" y="712" type="line"/>
      <point x="20" y="712" type="line"/>
      <point x="20" y="752" type="line"/>
      <point x="-20" y="752" type="line"/>
    </contour>
  </outline>
</glyph>
<glyph name="question-ar" format="2">
  <advance width="480"/>
  <unicode hex="061F"/>
  <outline>
    <contour>
      <point x="132" y="488" type="line"/>
      <point x="204" y="472" type="line"/>
      <point x="292" y="472" type="line"/>
      <point x="316" y="424" type="line"/>
      <point x="272" y="380" type="line"/>
      <point x="200" y="328" type="line"/>
      <point x="200" y="216" type="line"/>
      <point x="280" y="216" type="line"/>
      <point x="280" y="284" type="line"/>
      <point x="328" y="320" type="line"/>
      <point x="396" y="388" type="line"/>
      <point x="396" y="484" type="line"/>
      <point x="312" y="552" type="line"/>
      <point x="184" y="552" type="line"/>
    </contour>
    <contour>
      <point x="216" y="64" type="line"/>
      <point x="264" y="64" type="line"/>
      <point x="264" y="112" type="line"/>
      <point x="216" y="112" type="line"/>
    </contour>
  </outline>
</glyph>
<glyph name="jeem-ar" format="2">
  <advance width="600"/>
  <unicode hex="062C"/>
  <anchor x="254" y="-344" name="bottom"/>
  <anchor x="360" y="-44" name="center"/>
  <anchor x="228" y="576" name="top"/>
  <anchor x="232" y="436" name="topDots"/>
  <outline>
    <contour>
      <point x="346" y="-376" type="curve" smooth="yes"/>
      <point x="502" y="-376" type="line" smooth="yes"/>
      <point x="516" y="-376"/>
      <point x="524" y="-368"/>
      <point x="524" y="-352" type="curve" smooth="yes"/>
      <point x="524" y="-332" type="line" smooth="yes"/>
      <point x="524" y="-316"/>
      <point x="516" y="-306"/>
      <point x="502" y="-306" type="curve" smooth="yes"/>
      <point x="354" y="-306" type="line" smooth="yes"/>
      <point x="176" y="-306"/>
      <point x="122" y="-220"/>
      <point x="122" y="-96" type="curve" smooth="yes"/>
      <point x="122" y="8"/>
      <point x="206" y="190"/>
      <point x="524" y="264" type="curve"/>
      <point x="504" y="310" type="line"/>
      <point x="262" y="278"/>
      <point x="70" y="84"/>
      <point x="68" y="-92" type="curve" smooth="yes"/>
      <point x="66" y="-274"/>
      <point x="166" y="-376"/>
    </contour>
    <contour>
      <point x="504" y="262" type="line"/>
      <point x="554" y="262" type="line" smooth="yes"/>
      <point x="566" y="262"/>
      <point x="576" y="270"/>
      <point x="576" y="286" type="curve" smooth="yes"/>
      <point x="576" y="304" type="line" smooth="yes"/>
      <point x="576" y="324"/>
      <point x="572" y="332"/>
      <point x="554" y="332" type="curve" smooth="yes"/>
      <point x="526" y="332" type="line" smooth="yes"/>
      <point x="388" y="332"/>
      <point x="330" y="448"/>
      <point x="204" y="448" type="curve" smooth="yes"/>
      <point x="100" y="448"/>
      <point x="64" y="374"/>
      <point x="64" y="336" type="curve" smooth="yes"/>
      <point x="64" y="322"/>
      <point x="70" y="314"/>
      <point x="84" y="314" type="curve" smooth="yes"/>
      <point x="96" y="314" type="line" smooth="yes"/>
      <point x="112" y="314"/>
      <point x="114" y="320"/>
      <point x="120" y="332" type="curve" smooth="yes"/>
      <point x="134" y="356"/>
      <point x="152" y="382"/>
      <point x="200" y="382" type="curve" smooth="yes"/>
      <point x="314" y="382"/>
      <point x="354" y="262"/>
      <point x="504" y="266" type="curve"/>
    </contour>
    <contour>
      <point x="370" y="-92" type="curve" smooth="yes"/>
      <point x="400" y="-56" type="line" smooth="yes"/>
      <point x="406" y="-50"/>
      <point x="406" y="-40"/>
      <point x="400" y="-32" type="curve" smooth="yes"/>
      <point x="368" y="4" type="line" smooth="yes"/>
      <point x="362" y="10"/>
      <point x="354" y="10"/>
      <point x="348" y="4" type="curve" smooth="yes"/>
      <point x="318" y="-32" type="line" smooth="yes"/>
      <point x="312" y="-38"/>
      <point x="312" y="-48"/>
      <point x="318" y="-56" type="curve" smooth="yes"/>
      <point x="348" y="-90" type="line" smooth="yes"/>
      <point x="354" y="-98"/>
      <point x="364" y="-98"/>
    </contour>
  </outline>
</glyph>
<glyph name="hah-ar" format="2">
  <advance width="600"/>
  <unicode hex="062D"/>
  <anchor x="254" y="-344" name="bottom"/>
  <anchor x="360" y="-44" name="center"/>
  <anchor x="228" y="576" name="top"/>
  <anchor x="232" y="436" name="topDots"/>
  <outline>
    <contour>
      <point x="346" y="-376" type="curve" smooth="yes"/>
      <point x="502" y="-376" type="line" smooth="yes"/>
      <point x="516" y="-376"/>
      <point x="524" y="-368"/>
      <point x="524" y="-352" type="curve" smooth="yes"/>
      <point x="524" y="-332" type="line" smooth="yes"/>
      <point x="524" y="-316"/>
      <point x="516" y="-306"/>
      <point x="502" y="-306" type="curve" smooth="yes"/>
      <point x="354" y="-306" type="line" smooth="yes"/>
      <point x="176" y="-306"/>
      <point x="122" y="-220"/>
      <point x="122" y="-96" type="curve" smooth="yes"/>
      <point x="122" y="8"/>
      <point x="206" y="190"/>
      <point x="524" y="264" type="curve"/>
      <point x="504" y="310" type="line"/>
      <point x="262" y="278"/>
      <point x="70" y="84"/>
      <point x="68" y="-92" type="curve" smooth="yes"/>
      <point x="66" y="-274"/>
      <point x="166" y="-376"/>
    </contour>
    <contour>
      <point x="504" y="262" type="line"/>
      <point x="554" y="262" type="line" smooth="yes"/>
      <point x="566" y="262"/>
      <point x="576" y="270"/>
      <point x="576" y="286" type="curve" smooth="yes"/>
      <point x="576" y="304" type="line" smooth="yes"/>
      <point x="576" y="324"/>
      <point x="572" y="332"/>
      <point x="554" y="332" type="curve" smooth="yes"/>
      <point x="526" y="332" type="line" smooth="yes"/>
      <point x="388" y="332"/>
      <point x="330" y="448"/>
      <point x="204" y="448" type="curve" smooth="yes"/>
      <point x="100" y="448"/>
      <point x="64" y="374"/>
      <point x="64" y="336" type="curve" smooth="yes"/>
      <point x="64" y="322"/>
      <point x="70" y="314"/>
      <point x="84" y="314" type="curve" smooth="yes"/>
      <point x="96" y="314" type="line" smooth="yes"/>
      <point x="112" y="314"/>
      <point x="114" y="320"/>
      <point x="120" y="332" type="curve" smooth="yes"/>
      <point x="134" y="356"/>
      <point x="152" y="382"/>
      <point x="200" y="382" type="curve" smooth="yes"/>
      <point x="314" y="382"/>
      <point x="354" y="262"/>
      <point x="504" y="266" type="curve"/>
    </contour>
  </outline>
</glyph>
<glyph name="reh-ar" format="2">
  <advance width="600"/>
  <unicode hex="0631"/>
  <anchor x="232" y="-222" name="bottom"/>
  <anchor x="286" y="576" name="top"/>
  <anchor x="342" y="292" name="topDots"/>
  <outline>
    <contour>
      <point x="-58" y="-272" type="curve" smooth="yes"/>
      <point x="50" y="-272" type="line" smooth="yes"/>
      <point x="382" y="-272"/>
      <point x="518" y="-122"/>
      <point x="518" y="60" type="curve" smooth="yes"/>
      <point x="518" y="124"/>
      <point x="488" y="212"/>
      <point x="456" y="286" type="curve" smooth="yes"/>
      <point x="442" y="318"/>
      <point x="426" y="322"/>
      <point x="402" y="318" type="curve" smooth="yes"/>
      <point x="360" y="312" type="line" smooth="yes"/>
      <point x="328" y="306"/>
      <point x="326" y="292"/>
      <point x="338" y="270" type="curve" smooth="yes"/>
      <point x="372" y="198"/>
      <point x="402" y="148"/>
      <point x="402" y="72" type="curve" smooth="yes"/>
      <point x="402" y="-88"/>
      <point x="302" y="-200"/>
      <point x="32" y="-200" type="curve" smooth="yes"/>
      <point x="-54" y="-200" type="line" smooth="yes"/>
      <point x="-82" y="-200"/>
      <point x="-96" y="-208"/>
      <point x="-96" y="-222" type="curve" smooth="yes"/>
      <point x="-96" y="-248" type="line" smooth="yes"/>
      <point x="-96" y="-264"/>
      <point x="-82" y="-272"/>
    </contour>
  </outline>
</glyph>
<glyph name="sad-ar" format="2">
  <advance width="600"/>
  <unicode hex="0635"/>
  <anchor x="388" y="0" name="bottom"/>
  <anchor x="326" y="576" name="top"/>
  <anchor x="450" y="378" name="topDots"/>
  <outline>
    <contour>
      <point x="152" y="-246" type="curve" smooth="yes"/>
      <point x="244" y="-246"/>
      <point x="282" y="-96"/>
      <point x="282" y="46" type="curve"/>
      <point x="300" y="6"/>
      <point x="322" y="0"/>
      <point x="416" y="0" type="curve" smooth="yes"/>
      <point x="524" y="0"/>
      <point x="572" y="56"/>
      <point x="572" y="222" type="curve" smooth="yes"/>
      <point x="572" y="322"/>
      <point x="540" y="406"/>
      <point x="486" y="406" type="curve" smooth="yes"/>
      <point x="420" y="406"/>
      <point x="356" y="302"/>
      <point x="320" y="76" type="curve"/>
      <point x="294" y="86"/>
      <point x="288" y="112"/>
      <point x="280" y="178" type="curve" smooth="yes"/>
      <point x="270" y="254" type="line" smooth="yes"/>
      <point x="268" y="270"/>
      <point x="266" y="276"/>
      <point x="256" y="272" type="curve" smooth="yes"/>
      <point x="248" y="266" type="line" smooth="yes"/>
      <point x="242" y="262"/>
      <point x="240" y="252"/>
      <point x="242" y="238" type="curve" smooth="yes"/>
      <point x="252" y="142"/>
      <point x="256" y="118"/>
      <point x="256" y="58" type="curve" smooth="yes"/>
      <point x="256" y="-78"/>
      <point x="224" y="-172"/>
      <point x="152" y="-172" type="curve" smooth="yes"/>
      <point x="86" y="-172"/>
      <point x="60" y="-78"/>
      <point x="60" y="34" type="curve" smooth="yes"/>
      <point x="60" y="76"/>
      <point x="60" y="122"/>
      <point x="70" y="170" type="curve" smooth="yes"/>
      <point x="72" y="184"/>
      <point x="70" y="192"/>
      <point x="64" y="198" type="curve" smooth="yes"/>
      <point x="54" y="204" type="line" smooth="yes"/>
      <point x="46" y="210"/>
      <point x="44" y="192"/>
      <point x="40" y="176" type="curve" smooth="yes"/>
      <point x="30" y="112"/>
      <point x="28" y="68"/>
      <point x="30" y="18" type="curve" smooth="yes"/>
      <point x="30" y="-106"/>
      <point x="68" y="-246"/>
    </contour>
    <contour>
      <point x="346" y="72" type="line"/>
      <point x="374" y="226"/>
      <point x="422" y="338"/>
      <point x="480" y="338" type="curve" smooth="yes"/>
      <point x="520" y="338"/>
      <point x="542" y="280"/>
      <point x="542" y="210" type="curve" smooth="yes"/>
      <point x="542" y="120"/>
      <point x="504" y="72"/>
      <point x="438" y="72" type="curve" smooth="yes"/>
    </contour>
  </outline>
</glyph>
<glyph name="tah-ar" format="2">
  <advance width="600"/>
  <unicode hex="0637"/>
  <anchor x="304" y="0" name="bottom"/>
  <anchor x="370" y="576" name="top"/>
  <anchor x="354" y="392" name="topDots"/>
  <outline>
    <contour>
      <point x="62" y="0" type="curve" smooth="yes"/>
      <point x="304" y="0" type="line" smooth="yes"/>
      <point x="448" y="0"/>
      <point x="550" y="56"/>
      <point x="550" y="222" type="curve" smooth="yes"/>
      <point x="550" y="322"/>
      <point x="496" y="406"/>
      <point x="402" y="406" type="curve" smooth="yes"/>
      <point x="288" y="406"/>
      <point x="178" y="302"/>
      <point x="116" y="72" type="curve"/>
      <point x="54" y="72" type="line" smooth="yes"/>
      <point x="48" y="72"/>
      <point x="40" y="70"/>
      <point x="42" y="56" type="curve" smooth="yes"/>
      <point x="46" y="16" type="line" smooth="yes"/>
      <point x="48" y="4"/>
      <point x="54" y="0"/>
    </contour>
    <contour>
      <point x="160" y="72" type="line"/>
      <point x="208" y="226"/>
      <point x="290" y="338"/>
      <point x="388" y="338" type="curve" smooth="yes"/>
      <point x="462" y="338"/>
      <point x="500" y="280"/>
      <point x="500" y="210" type="curve" smooth="yes"/>
      <point x="500" y="120"/>
      <point x="432" y="72"/>
      <point x="318" y="72" type="curve" smooth="yes"/>
    </contour>
    <contour>
      <point x="112" y="54" type="line"/>
      <point x="156" y="120" type="line"/>
      <point x="162" y="190"/>
      <point x="162" y="262"/>
      <point x="162" y="332" type="curve" smooth="yes"/>
      <point x="162" y="806" type="line" smooth="yes"/>
      <point x="162" y="820"/>
      <point x="156" y="830"/>
      <point x="144" y="830" type="curve" smooth="yes"/>
      <point x="132" y="830" type="line" smooth="yes"/>
      <point x="120" y="830"/>
      <point x="112" y="820"/>
      <point x="112" y="806" type="curve" smooth="yes"/>
    </contour>
  </outline>
</glyph>
<glyph name="ain-ar" format="2">
  <advance width="600"/>
  <unicode hex="0639"/>
  <anchor x="204" y="-344" name="bottom"/>
  <anchor x="316" y="576" name="top"/>
  <anchor x="318" y="554" name="topDots"/>
  <outline>
    <contour>
      <point x="328" y="-376" type="curve" smooth="yes"/>
      <point x="528" y="-376" type="line" smooth="yes"/>
      <point x="546" y="-376"/>
      <point x="554" y="-368"/>
      <point x="554" y="-352" type="curve" smooth="yes"/>
      <point x="554" y="-332" type="line" smooth="yes"/>
      <point x="554" y="-316"/>
      <point x="546" y="-306"/>
      <point x="528" y="-306" type="curve" smooth="yes"/>
      <point x="354" y="-306" type="line" smooth="yes"/>
      <point x="164" y="-306"/>
      <point x="88" y="-216"/>
      <point x="88" y="-112" type="curve" smooth="yes"/>
      <point x="88" y="14"/>
      <point x="218" y="106"/>
      <point x="336" y="132" type="curve" smooth="yes"/>
      <point x="502" y="168" type="line" smooth="yes"/>
      <point x="518" y="170"/>
      <point x="526" y="176"/>
      <point x="532" y="196" type="curve" smooth="yes"/>
      <point x="536" y="224" type="line" smooth="yes"/>
      <point x="540" y="242"/>
      <point x="538" y="248"/>
      <point x="518" y="244" type="curve" smooth="yes"/>
      <point x="460" y="232"/>
      <point x="400" y="214"/>
      <point x="332" y="214" type="curve" smooth="yes"/>
      <point x="222" y="214"/>
      <point x="168" y="286"/>
      <point x="168" y="352" type="curve" smooth="yes"/>
      <point x="168" y="428"/>
      <point x="220" y="486"/>
      <point x="312" y="486" type="curve" smooth="yes"/>
      <point x="348" y="486"/>
      <point x="394" y="478"/>
      <point x="430" y="460" type="curve" smooth="yes"/>
      <point x="448" y="452"/>
      <point x="462" y="454"/>
      <point x="468" y="472" type="curve" smooth="yes"/>
      <point x="474" y="490" type="line" smooth="yes"/>
      <point x="482" y="510"/>
      <point x="474" y="520"/>
      <point x="454" y="530" type="curve" smooth="yes"/>
      <point x="420" y="544"/>
      <point x="370" y="554"/>
      <point x="318" y="554" type="curve" smooth="yes"/>
      <point x="204" y="554"/>
      <point x="100" y="480"/>
      <point x="100" y="344" type="curve" smooth="yes"/>
      <point x="100" y="268"/>
      <point x="152" y="194"/>
      <point x="250" y="164" type="curve"/>
      <point x="140" y="120"/>
      <point x="22" y="28"/>
      <point x="22" y="-108" type="curve" smooth="yes"/>
      <point x="22" y="-252"/>
      <point x="128" y="-376"/>
    </contour>
  </outline>
</glyph>
<glyph name="kashida-ar" format="2">
	<unicode hex="0640" />
	<advance width="600" />
	<outline>
		<contour>
			<point x="-24" y="128" type="line" />
			<point x="624" y="128" type="line" />
			<point x="624" y="184" type="line" />
			<point x="-24" y="184" type="line" />
		</contour>
	</outline>
</glyph>
<glyph name="kaf-ar" format="2">
  <advance width="600"/>
  <unicode hex="0643"/>
  <anchor x="306" y="0" name="bottom"/>
  <anchor x="310" y="654" name="top"/>
  <outline>
    <contour>
      <point x="236" y="0" type="curve" smooth="yes"/>
      <point x="364" y="0" type="line" smooth="yes"/>
      <point x="462" y="0"/>
      <point x="528" y="72"/>
      <point x="528" y="252" type="curve" smooth="yes"/>
      <point x="528" y="806" type="line" smooth="yes"/>
      <point x="528" y="820"/>
      <point x="520" y="830"/>
      <point x="512" y="830" type="curve" smooth="yes"/>
      <point x="502" y="830" type="line" smooth="yes"/>
      <point x="492" y="830"/>
      <point x="486" y="820"/>
      <point x="486" y="806" type="curve" smooth="yes"/>
      <point x="486" y="242" type="line" smooth="yes"/>
      <point x="486" y="110"/>
      <point x="442" y="72"/>
      <point x="368" y="72" type="curve" smooth="yes"/>
      <point x="236" y="72" type="line" smooth="yes"/>
      <point x="148" y="72"/>
      <point x="90" y="106"/>
      <point x="90" y="210" type="curve" smooth="yes"/>
      <point x="90" y="256"/>
      <point x="100" y="300"/>
      <point x="110" y="342" type="curve" smooth="yes"/>
      <point x="114" y="356"/>
      <point x="108" y="362"/>
      <point x="98" y="366" type="curve" smooth="yes"/>
      <point x="90" y="372" type="line" smooth="yes"/>
      <point x="80" y="378"/>
      <point x="76" y="376"/>
      <point x="70" y="354" type="curve" smooth="yes"/>
      <point x="56" y="304"/>
      <point x="48" y="256"/>
      <point x="48" y="212" type="curve" smooth="yes"/>
      <point x="48" y="74"/>
      <point x="102" y="0"/>
    </contour>
    <contour>
      <point x="238" y="312" type="curve" smooth="yes"/>
      <point x="318" y="312" type="line" smooth="yes"/>
      <point x="350" y="312"/>
      <point x="368" y="338"/>
      <point x="368" y="380" type="curve" smooth="yes"/>
      <point x="368" y="406"/>
      <point x="360" y="426"/>
      <point x="336" y="454" type="curve" smooth="yes"/>
      <point x="300" y="498" type="line" smooth="yes"/>
      <point x="296" y="502"/>
      <point x="292" y="504"/>
      <point x="292" y="512" type="curve" smooth="yes"/>
      <point x="292" y="520"/>
      <point x="294" y="522"/>
      <point x="300" y="530" type="curve" smooth="yes"/>
      <point x="358" y="606" type="line" smooth="yes"/>
      <point x="362" y="612"/>
      <point x="364" y="616"/>
      <point x="360" y="626" type="curve" smooth="yes"/>
      <point x="354" y="642" type="line" smooth="yes"/>
      <point x="350" y="650"/>
      <point x="346" y="650"/>
      <point x="338" y="642" type="curve" smooth="yes"/>
      <point x="284" y="568" type="line" smooth="yes"/>
      <point x="268" y="548"/>
      <point x="258" y="532"/>
      <point x="258" y="508" type="curve" smooth="yes"/>
      <point x="258" y="486"/>
      <point x="266" y="472"/>
      <point x="272" y="464" type="curve" smooth="yes"/>
      <point x="322" y="408" type="line" smooth="yes"/>
      <point x="332" y="396"/>
      <point x="334" y="390"/>
      <point x="334" y="382" type="curve" smooth="yes"/>
      <point x="334" y="368"/>
      <point x="328" y="362"/>
      <point x="318" y="362" type="curve" smooth="yes"/>
      <point x="238" y="362" type="line" smooth="yes"/>
      <point x="230" y="362"/>
      <point x="226" y="354"/>
      <point x="226" y="340" type="curve" smooth="yes"/>
      <point x="226" y="332" type="line" smooth="yes"/>
      <point x="226" y="318"/>
      <point x="230" y="312"/>
    </contour>
  </outline>
</glyph>
<glyph name="lam-ar" format="2">
  <advance width="600"/>
  <unicode hex="0644"/>
  <outline>
    <contour>
      <point x="376" y="680" type="line"/>
      <point x="376" y="220" type="line"/>
      <point x="292" y="172" type="line"/>
      <point x="168" y="204" type="line"/>
      <point x="104" y="128" type="line"/>
      <point x="224" y="64" type="line"/>
      <point x="392" y="92" type="line"/>
      <point x="464" y="196" type="line"/>
      <point x="464" y="680" type="line"/>
    </contour>
  </outline>
</glyph>
<glyph name="meem-ar" format="2">
  <advance width="600"/>
  <unicode hex="0645"/>
  <anchor x="352" y="0" name="bottom"/>
  <anchor x="328" y="576" name="top"/>
  <outline>
    <contour>
      <point x="80" y="-328" type="curve" smooth="yes"/>
      <point x="96" y="-328" type="line" smooth="yes"/>
      <point x="110" y="-328"/>
      <point x="120" y="-320"/>
      <point x="120" y="-304" type="curve" smooth="yes"/>
      <point x="120" y="-42" type="line" smooth="yes"/>
      <point x="120" y="16"/>
      <point x="136" y="42"/>
      <point x="194" y="30" type="curve" smooth="yes"/>
      <point x="266" y="14" type="line" smooth="yes"/>
      <point x="456" y="-26"/>
      <point x="540" y="66"/>
      <point x="540" y="168" type="curve" smooth="yes"/>
      <point x="540" y="274"/>
      <point x="466" y="354"/>
      <point x="378" y="354" type="curve" smooth="yes"/>
      <point x="292" y="354"/>
      <point x="186" y="292"/>
      <point x="160" y="102" type="curve"/>
      <point x="102" y="98"/>
      <point x="54" y="52"/>
      <point x="54" y="-48" type="curve" smooth="yes"/>
      <point x="54" y="-304" type="line" smooth="yes"/>
      <point x="54" y="-320"/>
      <point x="64" y="-328"/>
    </contour>
    <contour>
      <point x="360" y="74" type="curve" smooth="yes"/>
      <point x="324" y="72"/>
      <point x="284" y="80"/>
      <point x="222" y="94" type="curve"/>
      <point x="238" y="224"/>
      <point x="304" y="282"/>
      <point x="366" y="282" type="curve" smooth="yes"/>
      <point x="426" y="282"/>
      <point x="476" y="242"/>
      <point x="476" y="168" type="curve" smooth="yes"/>
      <point x="476" y="118"/>
      <point x="440" y="74"/>
    </contour>
  </outline>
</glyph>
<glyph name="heh-ar" format="2">
  <advance width="600"/>
  <unicode hex="0647"/>
  <anchor x="308" y="12" name="bottom"/>
  <anchor x="308" y="588" name="top"/>
  <anchor x="304" y="404" name="topDots"/>
  <outline>
    <contour>
      <point x="276" y="2" type="curve" smooth="yes"/>
      <point x="318" y="2" type="line" smooth="yes"/>
      <point x="440" y="2"/>
      <point x="520" y="68"/>
      <point x="518" y="190" type="curve" smooth="yes"/>
      <point x="516" y="314"/>
      <point x="408" y="420"/>
      <point x="304" y="420" type="curve" smooth="yes"/>
      <point x="200" y="420"/>
      <point x="76" y="320"/>
      <point x="80" y="176" type="curve" smooth="yes"/>
      <point x="84" y="74"/>
      <point x="158" y="2"/>
    </contour>
    <contour>
      <point x="282" y="72" type="line" smooth="yes"/>
      <point x="202" y="72"/>
      <point x="154" y="118"/>
      <point x="154" y="184" type="curve" smooth="yes"/>
      <point x="154" y="266"/>
      <point x="218" y="348"/>
      <point x="302" y="348" type="curve" smooth="yes"/>
      <point x="372" y="348"/>
      <point x="440" y="290"/>
      <point x="444" y="184" type="curve" smooth="yes"/>
      <point x="446" y="118"/>
      <point x="404" y="72"/>
      <point x="326" y="72" type="curve" smooth="yes"/>
    </contour>
  </outline>
</glyph>
<glyph name="alefMaksura-ar" format="2">
  <advance width="600"/>
  <unicode hex="0649"/>
  <anchor x="318" y="-122" name="bottom"/>
  <anchor x="302" y="-124" name="bottomDots"/>
  <anchor x="252" y="576" name="top"/>
  <outline>
    <contour>
      <point x="270" y="-168" type="curve" smooth="yes"/>
      <point x="322" y="-168" type="line" smooth="yes"/>
      <point x="440" y="-168"/>
      <point x="548" y="-76"/>
      <point x="548" y="54" type="curve" smooth="yes"/>
      <point x="548" y="124"/>
      <point x="524" y="184"/>
      <point x="420" y="204" type="curve" smooth="yes"/>
      <point x="382" y="210" type="line" smooth="yes"/>
      <point x="324" y="220"/>
      <point x="310" y="240"/>
      <point x="310" y="282" type="curve" smooth="yes"/>
      <point x="310" y="340"/>
      <point x="368" y="410"/>
      <point x="450" y="410" type="curve" smooth="yes"/>
      <point x="480" y="410"/>
      <point x="500" y="394"/>
      <point x="504" y="342" type="curve" smooth="yes"/>
      <point x="506" y="326"/>
      <point x="512" y="318"/>
      <point x="522" y="318" type="curve" smooth="yes"/>
      <point x="536" y="318" type="line" smooth="yes"/>
      <point x="546" y="318"/>
      <point x="552" y="330"/>
      <point x="552" y="348" type="curve" smooth="yes"/>
      <point x="552" y="414"/>
      <point x="520" y="478"/>
      <point x="450" y="478" type="curve" smooth="yes"/>
      <point x="342" y="478"/>
      <point x="264" y="382"/>
      <point x="264" y="272" type="curve" smooth="yes"/>
      <point x="264" y="198"/>
      <point x="294" y="158"/>
      <point x="370" y="144" type="curve" smooth="yes"/>
      <point x="414" y="136" type="line" smooth="yes"/>
      <point x="492" y="122"/>
      <point x="502" y="90"/>
      <point x="502" y="50" type="curve" smooth="yes"/>
      <point x="502" y="-34"/>
      <point x="428" y="-96"/>
      <point x="318" y="-96" type="curve" smooth="yes"/>
      <point x="270" y="-96" type="line" smooth="yes"/>
      <point x="162" y="-96"/>
      <point x="92" y="-12"/>
      <point x="92" y="98" type="curve" smooth="yes"/>
      <point x="92" y="146"/>
      <point x="100" y="192"/>
      <point x="116" y="232" type="curve" smooth="yes"/>
      <point x="122" y="250"/>
      <point x="118" y="254"/>
      <point x="114" y="256" type="curve" smooth="yes"/>
      <point x="96" y="270" type="line" smooth="yes"/>
      <point x="84" y="278"/>
      <point x="82" y="276"/>
      <point x="72" y="250" type="curve" smooth="yes"/>
      <point x="52" y="198"/>
      <point x="46" y="140"/>
      <point x="46" y="94" type="curve" smooth="yes"/>
      <point x="46" y="-58"/>
      <point x="136" y="-168"/>
    </contour>
  </outline>
</glyph>
<glyph name="fathatan-ar" format="2">
  <advance width="0" />
  <unicode hex="064B" />
  <outline>
    <contour>
      <point x="-72" y="0" type="line" />
      <point x="-32" y="0" type="line" />
      <point x="72" y="40" type="line" />
      <point x="32" y="40" type="line" />
    </contour>
    <contour>
      <point x="-72" y="48" type="line" />
      <point x="-32" y="48" type="line" />
      <point x="72" y="88" type="line" />
      <point x="32" y="88" type="line" />
    </contour>
  </outline>
  <anchor x="0" y="576" name="_top" />
  <anchor x="0" y="720" name="top" />
</glyph>
<glyph name="dammatan-ar" format="2">
  <advance width="0" />
  <unicode hex="064C" />
  <outline>
    <contour>
      <point x="-96" y="0" type="line" />
      <point x="-44" y="0" type="line" />
      <point x="-8" y="36" type="line" />
      <point x="-8" y="84" type="line" />
      <point x="-48" y="116" type="line" />
      <point x="-96" y="96" type="line" />
      <point x="-64" y="64" type="line" />
      <point x="-64" y="40" type="line" />
      <point x="-96" y="40" type="line" />
    </contour>
    <contour>
      <point x="16" y="0" type="line" />
      <point x="68" y="0" type="line" />
      <point x="104" y="36" type="line" />
      <point x="104" y="84" type="line" />
      <point x="64" y="116" type="line" />
      <point x="16" y="96" type="line" />
      <point x="48" y="64" type="line" />
      <point x="48" y="40" type="line" />
      <point x="16" y="40" type="line" />
    </contour>
  </outline>
  <anchor x="0" y="576" name="_top" />
  <anchor x="0" y="720" name="top" />
</glyph>
<glyph name="kasratan-ar" format="2">
  <advance width="0" />
  <unicode hex="064D" />
  <outline>
    <contour>
      <point x="-72" y="0" type="line" />
      <point x="-32" y="0" type="line" />
      <point x="72" y="40" type="line" />
      <point x="32" y="40" type="line" />
    </contour>
    <contour>
      <point x="-72" y="48" type="line" />
      <point x="-32" y="48" type="line" />
      <point x="72" y="88" type="line" />
      <point x="32" y="88" type="line" />
    </contour>
  </outline>
  <anchor x="0" y="0" name="_bottom" />
  <anchor x="0" y="-144" name="bottom" />
</glyph>
<glyph name="fatha-ar" format="2">
  <advance width="0" />
  <unicode hex="064E" />
  <outline>
    <contour>
      <point x="-72" y="0" type="line" />
      <point x="-32" y="0" type="line" />
      <point x="72" y="40" type="line" />
      <point x="32" y="40" type="line" />
    </contour>
  </outline>
  <anchor x="0" y="576" name="_top" />
  <anchor x="0" y="720" name="top" />
</glyph>
<glyph name="damma-ar" format="2">
  <advance width="0" />
  <unicode hex="064F" />
  <outline>
    <contour>
      <point x="-72" y="0" type="line" />
      <point x="-8" y="0" type="line" />
      <point x="44" y="44" type="line" />
      <point x="44" y="108" type="line" />
      <point x="-4" y="148" type="line" />
      <point x="-64" y="128" type="line" />
      <point x="-24" y="92" type="line" />
      <point x="-20" y="52" type="line" />
      <point x="-72" y="52" type="line" />
    </contour>
  </outline>
  <anchor x="0" y="576" name="_top" />
  <anchor x="0" y="720" name="top" />
</glyph>
<glyph name="shadda-ar" format="2">
  <unicode hex="0651"/>
  <anchor x="204" y="580" name="_top"/>
  <anchor x="204" y="766" name="top"/>
  <outline>
    <contour>
      <point x="156" y="680" type="curve" smooth="yes"/>
      <point x="178" y="684"/>
      <point x="192" y="696"/>
      <point x="204" y="720" type="curve"/>
      <point x="218" y="702"/>
      <point x="236" y="698"/>
      <point x="258" y="702" type="curve" smooth="yes"/>
      <point x="300" y="706"/>
      <point x="326" y="742"/>
      <point x="326" y="810" type="curve" smooth="yes"/>
      <point x="326" y="828" type="line" smooth="yes"/>
      <point x="326" y="840"/>
      <point x="318" y="846"/>
      <point x="308" y="842" type="curve" smooth="yes"/>
      <point x="294" y="840" type="line" smooth="yes"/>
      <point x="286" y="838"/>
      <point x="280" y="830"/>
      <point x="280" y="820" type="curve" smooth="yes"/>
      <point x="280" y="798" type="line" smooth="yes"/>
      <point x="280" y="768"/>
      <point x="274" y="756"/>
      <point x="252" y="754" type="curve" smooth="yes"/>
      <point x="236" y="752"/>
      <point x="226" y="760"/>
      <point x="226" y="786" type="curve" smooth="yes"/>
      <point x="226" y="806" type="line" smooth="yes"/>
      <point x="226" y="818"/>
      <point x="220" y="824"/>
      <point x="208" y="822" type="curve"/>
      <point x="196" y="818" type="line" smooth="yes"/>
      <point x="188" y="816"/>
      <point x="182" y="808"/>
      <point x="182" y="798" type="curve" smooth="yes"/>
      <point x="182" y="774" type="line" smooth="yes"/>
      <point x="182" y="746"/>
      <point x="174" y="736"/>
      <point x="156" y="734" type="curve" smooth="yes"/>
      <point x="138" y="732"/>
      <point x="128" y="740"/>
      <point x="128" y="766" type="curve" smooth="yes"/>
      <point x="128" y="786" type="line" smooth="yes"/>
      <point x="128" y="798"/>
      <point x="120" y="804"/>
      <point x="110" y="800" type="curve"/>
      <point x="98" y="798" type="line" smooth="yes"/>
      <point x="90" y="796"/>
      <point x="84" y="788"/>
      <point x="84" y="778" type="curve" smooth="yes"/>
      <point x="84" y="760" type="line" smooth="yes"/>
      <point x="84" y="694"/>
      <point x="116" y="672"/>
    </contour>
  </outline>
</glyph>
<glyph name="sukun-ar" format="2">
  <advance width="0" />
  <unicode hex="0652" />
  <outline>
    <contour>
      <point x="-80" y="0" type="line" />
      <point x="80" y="0" type="line" />
      <point x="80" y="160" type="line" />
      <point x="-80" y="160" type="line" />
    </contour>
    <contour>
      <point x="-32" y="48" type="line" />
      <point x="32" y="48" type="line" />
      <point x="32" y="112" type="line" />
      <point x="-32" y="112" type="line" />
    </contour>
  </outline>
  <anchor x="0" y="576" name="_top" />
  <anchor x="0" y="720" name="top" />
</glyph>
<glyph name="madda-ar" format="2">
  <unicode hex="0653"/>
  <anchor x="0" y="576" name="_top"/>
  <anchor x="0" y="720" name="top"/>
  <outline>
    <contour>
      <point x="-144" y="52" type="line"/>
      <point x="-64" y="100" type="line"/>
      <point x="0" y="52" type="line"/>
      <point x="64" y="4" type="line"/>
      <point x="144" y="52" type="line"/>
      <point x="144" y="104" type="line"/>
      <point x="64" y="56" type="line"/>
      <point x="0" y="104" type="line"/>
      <point x="-64" y="152" type="line"/>
      <point x="-144" y="104" type="line"/>
    </contour>
  </outline>
</glyph>
<glyph name="alefbelow-ar" format="2">
  <advance width="0" />
  <unicode hex="0656" />
  <outline>
    <contour>
      <point x="-20" y="0" type="line" />
      <point x="20" y="0" type="line" />
      <point x="20" y="176" type="line" />
      <point x="-20" y="176" type="line" />
    </contour>
  </outline>
  <anchor x="0" y="0" name="_bottom" />
  <anchor x="0" y="-144" name="bottom" />
</glyph>
<glyph name="invertedDamma-ar" format="2">
	<unicode hex="0657" />
	<advance width="0" />
	<outline>
		<contour>
			<point x="-96" y="704" type="line" />
			<point x="-40" y="640" type="line" />
			<point x="40" y="640" type="line" />
			<point x="96" y="704" type="line" />
			<point x="40" y="680" type="line" />
			<point x="-40" y="680" type="line" />
		</contour>
		<contour>
			<point x="-20" y="584" type="line" />
			<point x="20" y="584" type="line" />
			<point x="20" y="624" type="line" />
			<point x="-20" y="624" type="line" />
		</contour>
	</outline>
</glyph>
<glyph name="zero-ar" format="2">
	<unicode hex="0660" />
	<advance width="600" />
	<outline>
		<contour>
			<point x="272" y="356" type="line" />
			<point x="328" y="356" type="line" />
			<point x="328" y="412" type="line" />
			<point x="272" y="412" type="line" />
		</contour>
	</outline>
</glyph>
<glyph name="one-ar" format="2">
  <advance width="600"/>
  <unicode hex="0661"/>
  <outline>
    <contour>
      <point x="272" y="176" type="line"/>
      <point x="328" y="176" type="line"/>
      <point x="328" y="452" type="line"/>
      <point x="380" y="496" type="line"/>
      <point x="340" y="584" type="line"/>
      <point x="332" y="584" type="line"/>
      <point x="328" y="581" type="line"/>
      <point x="328" y="584" type="line"/>
      <point x="272" y="584" type="line"/>
      <point x="272" y="532" type="line"/>
      <point x="268" y="528" type="line"/>
      <point x="272" y="523" type="line"/>
    </contour>
  </outline>
</glyph>
<glyph name="four-ar" format="2">
  <advance width="600"/>
  <unicode hex="0664"/>
  <outline>
    <contour>
      <point x="334" y="-10" type="curve" smooth="yes"/>
      <point x="510" y="-2" type="line" smooth="yes"/>
      <point x="524" y="0"/>
      <point x="532" y="6"/>
      <point x="532" y="18" type="curve" smooth="yes"/>
      <point x="532" y="48" type="line" smooth="yes"/>
      <point x="530" y="66"/>
      <point x="520" y="66"/>
      <point x="496" y="66" type="curve" smooth="yes"/>
      <point x="334" y="56" type="line" smooth="yes"/>
      <point x="238" y="50"/>
      <point x="168" y="74"/>
      <point x="168" y="146" type="curve" smooth="yes"/>
      <point x="168" y="242"/>
      <point x="302" y="288"/>
      <point x="406" y="306" type="curve" smooth="yes"/>
      <point x="418" y="310"/>
      <point x="426" y="316"/>
      <point x="426" y="328" type="curve" smooth="yes"/>
      <point x="422" y="360" type="line" smooth="yes"/>
      <point x="420" y="374"/>
      <point x="414" y="376"/>
      <point x="400" y="376" type="curve"/>
      <point x="368" y="374"/>
      <point x="336" y="372"/>
      <point x="308" y="376" type="curve" smooth="yes"/>
      <point x="234" y="386"/>
      <point x="182" y="418"/>
      <point x="182" y="476" type="curve" smooth="yes"/>
      <point x="182" y="544"/>
      <point x="240" y="580"/>
      <point x="398" y="616" type="curve" smooth="yes"/>
      <point x="444" y="628" type="line" smooth="yes"/>
      <point x="460" y="632"/>
      <point x="464" y="642"/>
      <point x="460" y="658" type="curve" smooth="yes"/>
      <point x="458" y="672" type="line" smooth="yes"/>
      <point x="454" y="686"/>
      <point x="446" y="694"/>
      <point x="426" y="690" type="curve" smooth="yes"/>
      <point x="382" y="680" type="line" smooth="yes"/>
      <point x="194" y="636"/>
      <point x="116" y="584"/>
      <point x="116" y="480" type="curve" smooth="yes"/>
      <point x="116" y="334"/>
      <point x="288" y="326"/>
      <point x="334" y="328" type="curve"/>
      <point x="332" y="338" type="line"/>
      <point x="272" y="330"/>
      <point x="100" y="270"/>
      <point x="100" y="146" type="curve" smooth="yes"/>
      <point x="100" y="20"/>
      <point x="218" y="-16"/>
    </contour>
  </outline>
</glyph>
<glyph name="five-ar" format="2">
  <advance width="600"/>
  <unicode hex="0665"/>
  <outline>
    <contour>
      <point x="278" y="-12" type="curve" smooth="yes"/>
      <point x="318" y="-12" type="line" smooth="yes"/>
      <point x="436" y="-12"/>
      <point x="516" y="70"/>
      <point x="514" y="222" type="curve" smooth="yes"/>
      <point x="510" y="376"/>
      <point x="404" y="506"/>
      <point x="306" y="506" type="curve" smooth="yes"/>
      <point x="206" y="506"/>
      <point x="84" y="382"/>
      <point x="86" y="204" type="curve" smooth="yes"/>
      <point x="90" y="78"/>
      <point x="164" y="-12"/>
    </contour>
    <contour>
      <point x="282" y="54" type="line" smooth="yes"/>
      <point x="196" y="54"/>
      <point x="142" y="120"/>
      <point x="142" y="212" type="curve" smooth="yes"/>
      <point x="142" y="324"/>
      <point x="214" y="440"/>
      <point x="302" y="440" type="curve" smooth="yes"/>
      <point x="378" y="440"/>
      <point x="454" y="356"/>
      <point x="458" y="212" type="curve" smooth="yes"/>
      <point x="462" y="120"/>
      <point x="412" y="54"/>
      <point x="328" y="54" type="curve" smooth="yes"/>
    </contour>
  </outline>
</glyph>
<glyph name="six-ar" format="2">
  <advance width="600"/>
  <unicode hex="0666"/>
  <outline>
    <contour>
      <point x="148" y="584" type="line"/>
      <point x="148" y="500" type="line"/>
      <point x="408" y="500" type="line"/>
      <point x="196" y="176" type="line"/>
      <point x="288" y="176" type="line"/>
      <point x="508" y="500" type="line"/>
      <point x="508" y="584" type="line"/>
    </contour>
  </outline>
</glyph>
<glyph name="seven-ar" format="2">
  <advance width="600"/>
  <unicode hex="0667"/>
  <outline>
    <contour>
      <point x="420" y="584" type="line"/>
      <point x="168" y="584" type="line"/>
      <point x="100" y="536" type="line"/>
      <point x="148" y="472" type="line"/>
      <point x="380" y="472" type="line"/>
      <point x="236" y="176" type="line"/>
      <point x="328" y="176" type="line"/>
      <point x="500" y="520" type="line"/>
    </contour>
  </outline>
</glyph>
<glyph name="percent-ar" format="2">
	<unicode hex="066A" />
	<advance width="600" />
	<outline>
		<contour>
			<point x="116" y="160" type="line" />
			<point x="196" y="160" type="line" />
			<point x="520" y="584" type="line" />
			<point x="440" y="584" type="line" />
		</contour>
		<contour>
			<point x="128" y="492" type="line" />
			<point x="184" y="492" type="line" />
			<point x="184" y="548" type="line" />
			<point x="128" y="548" type="line" />
		</contour>
		<contour>
			<point x="420" y="196" type="line" />
			<point x="476" y="196" type="line" />
			<point x="476" y="252" type="line" />
			<point x="420" y="252" type="line" />
		</contour>
	</outline>
</glyph>
<glyph name="decimalseparator-ar" format="2">
	<unicode hex="066B" />
	<advance width="280" />
	<outline>
		<contour>
			<point x="118" y="98" type="line" />
			<point x="162" y="98" type="line" />
			<point x="162" y="142" type="line" />
			<point x="118" y="142" type="line" />
		</contour>
	</outline>
</glyph>
<glyph name="thousandseparator-ar" format="2">
	<unicode hex="066C" />
	<advance width="280" />
	<outline>
		<contour>
			<point x="118" y="450" type="line" />
			<point x="162" y="450" type="line" />
			<point x="162" y="494" type="line" />
			<point x="118" y="494" type="line" />
		</contour>
	</outline>
</glyph>
<glyph name="asterisk-ar" format="2">
  <advance width="600"/>
  <unicode hex="066D"/>
  <outline>
    <contour>
      <point x="272" y="232" type="line"/>
      <point x="328" y="232" type="line"/>
      <point x="328" y="584" type="line"/>
      <point x="272" y="584" type="line"/>
    </contour>
    <contour>
      <point x="124" y="356" type="line"/>
      <point x="476" y="356" type="line"/>
      <point x="476" y="412" type="line"/>
      <point x="124" y="412" type="line"/>
    </contour>
    <contour>
      <point x="160" y="244" type="line"/>
      <point x="212" y="220" type="line"/>
      <point x="440" y="524" type="line"/>
      <point x="388" y="548" type="line"/>
    </contour>
    <contour>
      <point x="160" y="524" type="line"/>
      <point x="388" y="220" type="line"/>
      <point x="440" y="244" type="line"/>
      <point x="212" y="548" type="line"/>
    </contour>
  </outline>
</glyph>
<glyph name="behDotless-ar" format="2">
  <advance width="600"/>
  <unicode hex="066E"/>
  <anchor x="296" y="0" name="bottom"/>
  <anchor x="294" y="26" name="bottomDots"/>
  <anchor x="304" y="576" name="top"/>
  <anchor x="298" y="292" name="topDots"/>
  <outline>
    <contour>
      <point x="222" y="0" type="curve" smooth="yes"/>
      <point x="366" y="0" type="line" smooth="yes"/>
      <point x="476" y="0"/>
      <point x="548" y="38"/>
      <point x="548" y="206" type="curve" smooth="yes"/>
      <point x="548" y="246"/>
      <point x="546" y="282"/>
      <point x="538" y="322" type="curve" smooth="yes"/>
      <point x="530" y="372" type="line" smooth="yes"/>
      <point x="526" y="396"/>
      <point x="522" y="408"/>
      <point x="510" y="402" type="curve" smooth="yes"/>
      <point x="498" y="396" type="line" smooth="yes"/>
      <point x="488" y="392"/>
      <point x="486" y="384"/>
      <point x="488" y="366" type="curve" smooth="yes"/>
      <point x="500" y="306" type="line" smooth="yes"/>
      <point x="506" y="276"/>
      <point x="508" y="246"/>
      <point x="508" y="214" type="curve" smooth="yes"/>
      <point x="508" y="94"/>
      <point x="454" y="72"/>
      <point x="370" y="72" type="curve" smooth="yes"/>
      <point x="222" y="72" type="line" smooth="yes"/>
      <point x="138" y="72"/>
      <point x="84" y="106"/>
      <point x="84" y="210" type="curve" smooth="yes"/>
      <point x="84" y="256"/>
      <point x="94" y="300"/>
      <point x="102" y="338" type="curve" smooth="yes"/>
      <point x="106" y="354"/>
      <point x="104" y="360"/>
      <point x="98" y="364" type="curve"/>
      <point x="84" y="372" type="line" smooth="yes"/>
      <point x="74" y="378"/>
      <point x="70" y="374"/>
      <point x="68" y="364" type="curve" smooth="yes"/>
      <point x="54" y="306"/>
      <point x="46" y="256"/>
      <point x="46" y="212" type="curve" smooth="yes"/>
      <point x="46" y="74"/>
      <point x="96" y="0"/>
    </contour>
  </outline>
</glyph>
<glyph name="qafDotless-ar" format="2">
  <advance width="600"/>
  <unicode hex="066F"/>
  <anchor x="420" y="464" name="topDots"/>
  <anchor x="284" y="-160" name="bottom"/>
  <anchor x="422" y="576" name="top"/>
  <outline>
    <contour>
      <point x="254" y="-170" type="curve" smooth="yes"/>
      <point x="312" y="-170" type="line" smooth="yes"/>
      <point x="526" y="-170"/>
      <point x="550" y="40"/>
      <point x="552" y="228" type="curve"/>
      <point x="510" y="236" type="line"/>
      <point x="522" y="28"/>
      <point x="460" y="-98"/>
      <point x="320" y="-98" type="curve" smooth="yes"/>
      <point x="258" y="-98" type="line" smooth="yes"/>
      <point x="146" y="-98"/>
      <point x="88" y="-18"/>
      <point x="88" y="112" type="curve" smooth="yes"/>
      <point x="88" y="160"/>
      <point x="100" y="216"/>
      <point x="116" y="270" type="curve" smooth="yes"/>
      <point x="122" y="286"/>
      <point x="124" y="298"/>
      <point x="116" y="302" type="curve" smooth="yes"/>
      <point x="100" y="312" type="line" smooth="yes"/>
      <point x="90" y="316"/>
      <point x="84" y="312"/>
      <point x="80" y="304" type="curve" smooth="yes"/>
      <point x="58" y="240"/>
      <point x="46" y="160"/>
      <point x="46" y="108" type="curve" smooth="yes"/>
      <point x="46" y="-72"/>
      <point x="122" y="-170"/>
    </contour>
    <contour>
      <point x="510" y="230" type="curve"/>
      <point x="552" y="228" type="line"/>
      <point x="552" y="376"/>
      <point x="496" y="464"/>
      <point x="426" y="464" type="curve" smooth="yes"/>
      <point x="352" y="464"/>
      <point x="306" y="382"/>
      <point x="306" y="276" type="curve" smooth="yes"/>
      <point x="306" y="194"/>
      <point x="344" y="112"/>
      <point x="420" y="112" type="curve" smooth="yes"/>
      <point x="464" y="112"/>
      <point x="498" y="136"/>
      <point x="518" y="168" type="curve"/>
      <point x="510" y="234" type="line"/>
      <point x="500" y="212"/>
      <point x="464" y="188"/>
      <point x="420" y="188" type="curve" smooth="yes"/>
      <point x="376" y="188"/>
      <point x="344" y="224"/>
      <point x="344" y="282" type="curve" smooth="yes"/>
      <point x="344" y="336"/>
      <point x="370" y="396"/>
      <point x="426" y="396" type="curve" smooth="yes"/>
      <point x="478" y="396"/>
      <point x="510" y="328"/>
    </contour>
  </outline>
</glyph>
<glyph name="alefabove-ar" format="2">
  <advance width="0" />
  <unicode hex="0670" />
  <outline>
    <contour>
      <point x="-20" y="0" type="line" />
      <point x="20" y="0" type="line" />
      <point x="20" y="176" type="line" />
      <point x="-20" y="176" type="line" />
    </contour>
  </outline>
  <anchor x="0" y="576" name="_top" />
  <anchor x="0" y="720" name="top" />
</glyph>
<glyph name="alefWasla-ar" format="2">
  <advance width="600"/>
  <unicode hex="0671"/>
  <outline>
    <contour>
      <point x="272" y="112" type="line"/>
      <point x="328" y="112" type="line"/>
      <point x="328" y="680" type="line"/>
      <point x="272" y="680" type="line"/>
    </contour>
    <contour>
      <point x="180" y="760" type="line"/>
      <point x="208" y="712" type="line"/>
      <point x="252" y="744" type="line"/>
      <point x="324" y="744" type="line"/>
      <point x="380" y="688" type="line"/>
      <point x="428" y="744" type="line"/>
      <point x="360" y="816" type="line"/>
      <point x="260" y="816" type="line"/>
    </contour>
  </outline>
</glyph>
<glyph name="beeh-ar" format="2">
	<unicode hex="067B" />
	<advance width="600" />
	<outline>
		<contour>
			<point x="88" y="192" type="line" />
			<point x="132" y="128" type="line" />
			<point x="452" y="128" type="line" />
			<point x="520" y="192" type="line" />
			<point x="520" y="332" type="line" />
			<point x="440" y="252" type="line" />
			<point x="176" y="252" type="line" />
			<point x="88" y="332" type="line" />
		</contour>
		<contour>
			<point x="276" y="-136" type="line" />
			<point x="324" y="-136" type="line" />
			<point x="324" y="-88" type="line" />
			<point x="276" y="-88" type="line" />
		</contour>
		<contour>
			<point x="276" y="-60" type="line" />
			<point x="324" y="-60" type="line" />
			<point x="324" y="-12" type="line" />
			<point x="276" y="-12" type="line" />
		</contour>
	</outline>
</glyph>
<glyph name="rreh-ar" format="2">
  <advance width="600"/>
  <unicode hex="0691"/>
  <outline>
    <contour>
      <point x="176" y="472" type="line"/>
      <point x="292" y="244" type="line"/>
      <point x="220" y="172" type="line"/>
      <point x="88" y="128" type="line"/>
      <point x="144" y="64" type="line"/>
      <point x="292" y="100" type="line"/>
      <point x="372" y="196" type="line"/>
      <point x="392" y="308" type="line"/>
      <point x="264" y="472" type="line"/>
    </contour>
    <contour>
      <point x="268" y="584" type="line"/>
      <point x="296" y="528" type="line"/>
      <point x="424" y="584" type="line"/>
      <point x="396" y="640" type="line"/>
    </contour>
  </outline>
</glyph>
<glyph name="jeh-ar" format="2">
  <advance width="600"/>
  <unicode hex="0698"/>
  <outline>
    <contour>
      <point x="176" y="472" type="line"/>
      <point x="292" y="244" type="line"/>
      <point x="220" y="172" type="line"/>
      <point x="88" y="128" type="line"/>
      <point x="144" y="64" type="line"/>
      <point x="292" y="100" type="line"/>
      <point x="372" y="196" type="line"/>
      <point x="392" y="308" type="line"/>
      <point x="264" y="472" type="line"/>
    </contour>
    <contour>
      <point x="224" y="536" type="line"/>
      <point x="272" y="536" type="line"/>
      <point x="272" y="584" type="line"/>
      <point x="224" y="584" type="line"/>
    </contour>
    <contour>
      <point x="336" y="536" type="line"/>
      <point x="384" y="536" type="line"/>
      <point x="384" y="584" type="line"/>
      <point x="336" y="584" type="line"/>
    </contour>
    <contour>
      <point x="280" y="600" type="line"/>
      <point x="328" y="600" type="line"/>
      <point x="328" y="648" type="line"/>
      <point x="280" y="648" type="line"/>
    </contour>
  </outline>
</glyph>
<glyph name="seenSixdots-ar" format="2">
	<unicode hex="069C" />
	<advance width="864" />
	<outline>
		<contour>
			<point x="72" y="176" type="line" />
			<point x="144" y="112" type="line" />
			<point x="640" y="112" type="line" />
			<point x="776" y="196" type="line" />
			<point x="736" y="276" type="line" />
			<point x="592" y="220" type="line" />
			<point x="452" y="220" type="line" />
			<point x="452" y="340" type="line" />
			<point x="396" y="340" type="line" />
			<point x="396" y="220" type="line" />
			<point x="320" y="220" type="line" />
			<point x="320" y="340" type="line" />
			<point x="264" y="340" type="line" />
			<point x="264" y="220" type="line" />
			<point x="188" y="220" type="line" />
			<point x="188" y="340" type="line" />
			<point x="132" y="340" type="line" />
			<point x="132" y="220" type="line" />
			<point x="144" y="220" type="line" />
		</contour>
		<contour>
			<point x="280" y="580" type="line" />
			<point x="328" y="580" type="line" />
			<point x="328" y="628" type="line" />
			<point x="280" y="628" type="line" />
		</contour>
		<contour>
			<point x="392" y="580" type="line" />
			<point x="440" y="580" type="line" />
			<point x="440" y="628" type="line" />
			<point x="392" y="628" type="line" />
		</contour>
		<contour>
			<point x="336" y="644" type="line" />
			<point x="384" y="644" type="line" />
			<point x="384" y="692" type="line" />
			<point x="336" y="692" type="line" />
		</contour>
		<contour>
			<point x="280" y="-112" type="line" />
			<point x="328" y="-112" type="line" />
			<point x="328" y="-64" type="line" />
			<point x="280" y="-64" type="line" />
		</contour>
		<contour>
			<point x="392" y="-112" type="line" />
			<point x="440" y="-112" type="line" />
			<point x="440" y="-64" type="line" />
			<point x="392" y="-64" type="line" />
		</contour>
		<contour>
			<point x="336" y="-176" type="line" />
			<point x="384" y="-176" type="line" />
			<point x="384" y="-128" type="line" />
			<point x="336" y="-128" type="line" />
		</contour>
	</outline>
</glyph>
<glyph name="fehDotless-ar" format="2">
  <advance width="600"/>
  <unicode hex="06A1"/>
  <anchor x="280" y="0" name="bottom"/>
  <anchor x="464" y="576" name="top"/>
  <anchor x="464" y="560" name="topDots"/>
  <outline>
    <contour>
      <point x="210" y="0" type="curve" smooth="yes"/>
      <point x="304" y="0" type="line"/>
      <point x="304" y="72" type="line"/>
      <point x="218" y="72" type="line" smooth="yes"/>
      <point x="136" y="72"/>
      <point x="88" y="118"/>
      <point x="88" y="214" type="curve" smooth="yes"/>
      <point x="88" y="248"/>
      <point x="94" y="290"/>
      <point x="108" y="338" type="curve" smooth="yes"/>
      <point x="112" y="354"/>
      <point x="104" y="358"/>
      <point x="100" y="362" type="curve" smooth="yes"/>
      <point x="88" y="370" type="line" smooth="yes"/>
      <point x="80" y="376"/>
      <point x="74" y="368"/>
      <point x="68" y="348" type="curve" smooth="yes"/>
      <point x="54" y="296"/>
      <point x="46" y="248"/>
      <point x="46" y="204" type="curve" smooth="yes"/>
      <point x="46" y="76"/>
      <point x="100" y="0"/>
    </contour>
    <contour>
      <point x="304" y="0" type="curve" smooth="yes"/>
      <point x="442" y="0" type="line" smooth="yes"/>
      <point x="556" y="0"/>
      <point x="580" y="108"/>
      <point x="580" y="294" type="curve" smooth="yes"/>
      <point x="580" y="450"/>
      <point x="544" y="560"/>
      <point x="464" y="560" type="curve" smooth="yes"/>
      <point x="412" y="560"/>
      <point x="360" y="488"/>
      <point x="360" y="382" type="curve" smooth="yes"/>
      <point x="360" y="284"/>
      <point x="398" y="218"/>
      <point x="462" y="218" type="curve" smooth="yes"/>
      <point x="490" y="218"/>
      <point x="530" y="234"/>
      <point x="552" y="282" type="curve"/>
      <point x="542" y="298" type="line"/>
      <point x="546" y="126"/>
      <point x="522" y="72"/>
      <point x="452" y="72" type="curve" smooth="yes"/>
      <point x="304" y="72" type="line" smooth="yes"/>
      <point x="292" y="72"/>
      <point x="290" y="70"/>
      <point x="290" y="48" type="curve" smooth="yes"/>
      <point x="290" y="32" type="line" smooth="yes"/>
      <point x="290" y="20"/>
      <point x="286" y="0"/>
    </contour>
    <contour>
      <point x="460" y="290" type="curve" smooth="yes"/>
      <point x="426" y="290"/>
      <point x="396" y="324"/>
      <point x="396" y="388" type="curve" smooth="yes"/>
      <point x="396" y="432"/>
      <point x="418" y="492"/>
      <point x="460" y="492" type="curve" smooth="yes"/>
      <point x="516" y="492"/>
      <point x="542" y="404"/>
      <point x="542" y="342" type="curve"/>
      <point x="522" y="308"/>
      <point x="488" y="290"/>
    </contour>
  </outline>
</glyph>
<glyph name="fehDotmovedbelow-ar" format="2">
	<unicode hex="06A2" />
	<advance width="600" />
	<outline>
		<contour>
			<point x="72" y="192" type="line" />
			<point x="132" y="112" type="line" />
			<point x="460" y="112" type="line" />
			<point x="536" y="192" type="line" />
			<point x="536" y="348" type="line" />
			<point x="448" y="260" type="line" />
			<point x="172" y="260" type="line" />
			<point x="72" y="348" type="line" />
		</contour>
		<contour>
			<point x="276" y="-112" type="line" />
			<point x="324" y="-112" type="line" />
			<point x="324" y="-64" type="line" />
			<point x="276" y="-64" type="line" />
		</contour>
	</outline>
</glyph>
<glyph name="keheh-ar" format="2">
  <advance width="680"/>
  <unicode hex="06A9"/>
  <anchor x="358" y="0" name="bottom"/>
  <anchor x="376" y="610" name="gaf"/>
  <anchor x="296" y="626" name="top"/>
  <outline>
    <contour>
      <point x="256" y="0" type="curve" smooth="yes"/>
      <point x="476" y="0" type="line" smooth="yes"/>
      <point x="560" y="0"/>
      <point x="636" y="60"/>
      <point x="636" y="184" type="curve" smooth="yes"/>
      <point x="636" y="242"/>
      <point x="614" y="294"/>
      <point x="578" y="338" type="curve" smooth="yes"/>
      <point x="400" y="554" type="line"/>
      <point x="660" y="762" type="line" smooth="yes"/>
      <point x="672" y="772"/>
      <point x="674" y="780"/>
      <point x="674" y="796" type="curve" smooth="yes"/>
      <point x="676" y="820" type="line" smooth="yes"/>
      <point x="676" y="838"/>
      <point x="668" y="846"/>
      <point x="658" y="836" type="curve" smooth="yes"/>
      <point x="376" y="610" type="line" smooth="yes"/>
      <point x="362" y="600"/>
      <point x="358" y="588"/>
      <point x="358" y="570" type="curve" smooth="yes"/>
      <point x="358" y="552" type="line" smooth="yes"/>
      <point x="358" y="532"/>
      <point x="360" y="518"/>
      <point x="372" y="502" type="curve" smooth="yes"/>
      <point x="548" y="288" type="line" smooth="yes"/>
      <point x="576" y="254"/>
      <point x="592" y="224"/>
      <point x="592" y="182" type="curve" smooth="yes"/>
      <point x="592" y="118"/>
      <point x="560" y="72"/>
      <point x="492" y="72" type="curve" smooth="yes"/>
      <point x="266" y="72" type="line" smooth="yes"/>
      <point x="164" y="72"/>
      <point x="106" y="118"/>
      <point x="106" y="214" type="curve" smooth="yes"/>
      <point x="106" y="248"/>
      <point x="114" y="290"/>
      <point x="132" y="338" type="curve" smooth="yes"/>
      <point x="136" y="354"/>
      <point x="128" y="358"/>
      <point x="122" y="362" type="curve" smooth="yes"/>
      <point x="106" y="372" type="line" smooth="yes"/>
      <point x="96" y="378"/>
      <point x="90" y="368"/>
      <point x="82" y="348" type="curve" smooth="yes"/>
      <point x="66" y="296"/>
      <point x="56" y="248"/>
      <point x="56" y="204" type="curve" smooth="yes"/>
      <point x="56" y="76"/>
      <point x="122" y="0"/>
    </contour>
  </outline>
</glyph>
<glyph name="noonghunna-ar" format="2">
  <advance width="600"/>
  <unicode hex="06BA"/>
  <anchor x="286" y="-148" name="bottom"/>
  <anchor x="292" y="324" name="topDots"/>
  <outline>
    <contour>
      <point x="286" y="-148" type="curve" smooth="yes"/>
      <point x="426" y="-148"/>
      <point x="536" y="-40"/>
      <point x="536" y="158" type="curve" smooth="yes"/>
      <point x="536" y="218"/>
      <point x="526" y="276"/>
      <point x="512" y="342" type="curve" smooth="yes"/>
      <point x="506" y="366"/>
      <point x="500" y="374"/>
      <point x="484" y="368" type="curve" smooth="yes"/>
      <point x="470" y="364" type="line" smooth="yes"/>
      <point x="458" y="360"/>
      <point x="452" y="352"/>
      <point x="456" y="336" type="curve" smooth="yes"/>
      <point x="470" y="262"/>
      <point x="482" y="210"/>
      <point x="482" y="158" type="curve" smooth="yes"/>
      <point x="482" y="-16"/>
      <point x="394" y="-76"/>
      <point x="286" y="-76" type="curve" smooth="yes"/>
      <point x="184" y="-76"/>
      <point x="112" y="-4"/>
      <point x="112" y="130" type="curve" smooth="yes"/>
      <point x="112" y="166"/>
      <point x="118" y="228"/>
      <point x="132" y="270" type="curve"/>
      <point x="136" y="282"/>
      <point x="134" y="290"/>
      <point x="118" y="296" type="curve" smooth="yes"/>
      <point x="104" y="302" type="line" smooth="yes"/>
      <point x="90" y="306"/>
      <point x="84" y="298"/>
      <point x="76" y="272" type="curve" smooth="yes"/>
      <point x="66" y="238"/>
      <point x="56" y="172"/>
      <point x="56" y="130" type="curve" smooth="yes"/>
      <point x="56" y="-42"/>
      <point x="140" y="-148"/>
    </contour>
  </outline>
</glyph>
<glyph name="hehDoachashmee-ar" format="2">
  <advance width="528"/>
  <unicode hex="06BE"/>
  <outline>
    <contour>
      <point x="264" y="500" type="line"/>
      <point x="188" y="424" type="line"/>
      <point x="188" y="268" type="line"/>
      <point x="264" y="192" type="line"/>
      <point x="420" y="192" type="line"/>
      <point x="496" y="268" type="line"/>
      <point x="496" y="424" type="line"/>
      <point x="420" y="500" type="line"/>
    </contour>
    <contour>
      <point x="264" y="396" type="line"/>
      <point x="348" y="440" type="line"/>
      <point x="432" y="396" type="line"/>
      <point x="432" y="296" type="line"/>
      <point x="348" y="252" type="line"/>
      <point x="264" y="296" type="line"/>
    </contour>
  </outline>
</glyph>
<glyph name="fullStop-ar" format="2">
	<unicode hex="06D4" />
	<advance width="240" />
	<outline>
		<contour>
			<point x="72" y="0" type="line" />
			<point x="168" y="0" type="line" />
			<point x="184" y="16" type="line" />
			<point x="184" y="112" type="line" />
			<point x="168" y="128" type="line" />
			<point x="72" y="128" type="line" />
			<point x="56" y="112" type="line" />
			<point x="56" y="16" type="line" />
		</contour>
	</outline>
</glyph>
<glyph name="smallHighThreeDots-ar" format="2">
  <unicode hex="06DB" />
  <advance width="0" />
  <anchor x="0" y="576" name="_top" />
  <anchor x="0" y="720" name="top" />
  <outline>
    <contour>
      <point x="-76" y="620" type="line" />
      <point x="-36" y="620" type="line" />
      <point x="-36" y="660" type="line" />
      <point x="-76" y="660" type="line" />
    </contour>
    <contour>
      <point x="36" y="620" type="line" />
      <point x="76" y="620" type="line" />
      <point x="76" y="660" type="line" />
      <point x="36" y="660" type="line" />
    </contour>
    <contour>
      <point x="-20" y="684" type="line" />
      <point x="20" y="684" type="line" />
      <point x="20" y="724" type="line" />
      <point x="-20" y="724" type="line" />
    </contour>
  </outline>
</glyph>
<glyph name="oneFarsi-ar" format="2">
  <advance width="600"/>
  <unicode hex="06F1"/>
  <outline>
    <contour>
      <point x="264" y="176" type="line"/>
      <point x="320" y="176" type="line"/>
      <point x="320" y="455" type="line"/>
      <point x="364" y="492" type="line"/>
      <point x="332" y="584" type="line"/>
      <point x="324" y="584" type="line"/>
      <point x="320" y="581" type="line"/>
      <point x="320" y="584" type="line"/>
      <point x="264" y="584" type="line"/>
      <point x="264" y="534" type="line"/>
      <point x="252" y="524" type="line"/>
      <point x="264" y="509" type="line"/>
    </contour>
  </outline>
</glyph>
<glyph name="twoFarsi-ar" format="2">
	<unicode hex="06F2" />
	<advance width="600" />
	<outline>
		<contour>
			<point x="156" y="232" type="line" />
			<point x="444" y="232" type="line" />
			<point x="500" y="288" type="line" />
			<point x="476" y="356" type="line" />
			<point x="340" y="356" type="line" />
			<point x="256" y="400" type="line" />
			<point x="300" y="472" type="line" />
			<point x="440" y="472" type="line" />
			<point x="496" y="528" type="line" />
			<point x="440" y="584" type="line" />
			<point x="240" y="584" type="line" />
			<point x="168" y="512" type="line" />
			<point x="188" y="444" type="line" />
			<point x="276" y="356" type="line" />
			<point x="156" y="356" type="line" />
			<point x="100" y="300" type="line" />
		</contour>
	</outline>
</glyph>
<glyph name="threeFarsi-ar" format="2">
  <advance width="600"/>
  <unicode hex="06F3"/>
  <outline>
    <contour>
      <point x="196" y="-6" type="curve" smooth="yes"/>
      <point x="216" y="-6" type="line" smooth="yes"/>
      <point x="232" y="-6"/>
      <point x="234" y="6"/>
      <point x="230" y="22" type="curve" smooth="yes"/>
      <point x="164" y="422" type="line"/>
      <point x="180" y="400"/>
      <point x="206" y="386"/>
      <point x="230" y="386" type="curve" smooth="yes"/>
      <point x="268" y="386"/>
      <point x="308" y="410"/>
      <point x="322" y="458" type="curve"/>
      <point x="342" y="404"/>
      <point x="382" y="394"/>
      <point x="414" y="394" type="curve" smooth="yes"/>
      <point x="446" y="394"/>
      <point x="524" y="406"/>
      <point x="524" y="572" type="curve" smooth="yes"/>
      <point x="524" y="652" type="line" smooth="yes"/>
      <point x="524" y="666"/>
      <point x="520" y="676"/>
      <point x="508" y="676" type="curve" smooth="yes"/>
      <point x="496" y="676" type="line" smooth="yes"/>
      <point x="486" y="676"/>
      <point x="480" y="666"/>
      <point x="480" y="652" type="curve" smooth="yes"/>
      <point x="480" y="572" type="line" smooth="yes"/>
      <point x="480" y="498"/>
      <point x="472" y="460"/>
      <point x="412" y="460" type="curve" smooth="yes"/>
      <point x="366" y="460"/>
      <point x="350" y="480"/>
      <point x="350" y="560" type="curve" smooth="yes"/>
      <point x="350" y="608" type="line" smooth="yes"/>
      <point x="350" y="622"/>
      <point x="342" y="632"/>
      <point x="332" y="632" type="curve" smooth="yes"/>
      <point x="312" y="632" type="line" smooth="yes"/>
      <point x="300" y="632"/>
      <point x="294" y="622"/>
      <point x="294" y="608" type="curve" smooth="yes"/>
      <point x="294" y="560" type="line" smooth="yes"/>
      <point x="294" y="490"/>
      <point x="282" y="454"/>
      <point x="228" y="454" type="curve" smooth="yes"/>
      <point x="200" y="454"/>
      <point x="174" y="464"/>
      <point x="158" y="486" type="curve"/>
      <point x="132" y="656" type="line" smooth="yes"/>
      <point x="130" y="672"/>
      <point x="118" y="676"/>
      <point x="110" y="674" type="curve" smooth="yes"/>
      <point x="92" y="670" type="line" smooth="yes"/>
      <point x="78" y="666"/>
      <point x="74" y="656"/>
      <point x="76" y="644" type="curve" smooth="yes"/>
      <point x="174" y="20" type="line" smooth="yes"/>
      <point x="176" y="6"/>
      <point x="184" y="-6"/>
    </contour>
  </outline>
</glyph>
<glyph name="fourFarsi-ar" format="2">
  <advance width="600"/>
  <unicode hex="06F4"/>
  <outline>
    <contour>
      <point x="226" y="-6" type="curve" smooth="yes"/>
      <point x="248" y="-6" type="line" smooth="yes"/>
      <point x="262" y="-6"/>
      <point x="272" y="0"/>
      <point x="266" y="22" type="curve"/>
      <point x="150" y="656" type="line" smooth="yes"/>
      <point x="148" y="668"/>
      <point x="134" y="676"/>
      <point x="124" y="674" type="curve"/>
      <point x="104" y="670" type="line" smooth="yes"/>
      <point x="88" y="666"/>
      <point x="86" y="652"/>
      <point x="86" y="644" type="curve" smooth="yes"/>
      <point x="202" y="20" type="line" smooth="yes"/>
      <point x="204" y="6"/>
      <point x="212" y="-6"/>
    </contour>
    <contour>
      <point x="158" y="394" type="line"/>
      <point x="508" y="394" type="line" smooth="yes"/>
      <point x="526" y="394"/>
      <point x="532" y="398"/>
      <point x="532" y="414" type="curve" smooth="yes"/>
      <point x="532" y="434" type="line" smooth="yes"/>
      <point x="532" y="446"/>
      <point x="524" y="454"/>
      <point x="510" y="454" type="curve" smooth="yes"/>
      <point x="490" y="454" type="line" smooth="yes"/>
      <point x="376" y="454"/>
      <point x="318" y="488"/>
      <point x="318" y="548" type="curve" smooth="yes"/>
      <point x="318" y="600"/>
      <point x="364" y="620"/>
      <point x="412" y="620" type="curve" smooth="yes"/>
      <point x="430" y="620"/>
      <point x="446" y="616"/>
      <point x="462" y="612" type="curve"/>
      <point x="478" y="606"/>
      <point x="486" y="608"/>
      <point x="492" y="622" type="curve" smooth="yes"/>
      <point x="498" y="640" type="line" smooth="yes"/>
      <point x="502" y="650"/>
      <point x="496" y="660"/>
      <point x="482" y="664" type="curve" smooth="yes"/>
      <point x="458" y="674"/>
      <point x="432" y="678"/>
      <point x="406" y="678" type="curve" smooth="yes"/>
      <point x="312" y="678"/>
      <point x="262" y="614"/>
      <point x="262" y="552" type="curve" smooth="yes"/>
      <point x="262" y="512"/>
      <point x="286" y="472"/>
      <point x="328" y="454" type="curve"/>
      <point x="158" y="454" type="line"/>
    </contour>
  </outline>
</glyph>
<glyph name="fiveFarsi-ar" format="2">
  <advance width="600"/>
  <unicode hex="06F5"/>
  <outline>
    <contour>
      <point x="216" y="-6" type="curve" smooth="yes"/>
      <point x="252" y="-6"/>
      <point x="282" y="12"/>
      <point x="300" y="48" type="curve"/>
      <point x="318" y="12"/>
      <point x="354" y="-6"/>
      <point x="380" y="-6" type="curve" smooth="yes"/>
      <point x="446" y="-6"/>
      <point x="514" y="80"/>
      <point x="514" y="238" type="curve" smooth="yes"/>
      <point x="514" y="454"/>
      <point x="404" y="586"/>
      <point x="304" y="586" type="curve" smooth="yes"/>
      <point x="192" y="586"/>
      <point x="88" y="456"/>
      <point x="88" y="234" type="curve" smooth="yes"/>
      <point x="88" y="84"/>
      <point x="154" y="-6"/>
    </contour>
    <contour>
      <point x="222" y="60" type="curve" smooth="yes"/>
      <point x="164" y="60"/>
      <point x="144" y="142"/>
      <point x="144" y="234" type="curve" smooth="yes"/>
      <point x="144" y="424"/>
      <point x="214" y="520"/>
      <point x="302" y="520" type="curve" smooth="yes"/>
      <point x="378" y="520"/>
      <point x="458" y="434"/>
      <point x="458" y="230" type="curve" smooth="yes"/>
      <point x="458" y="138"/>
      <point x="432" y="60"/>
      <point x="380" y="60" type="curve" smooth="yes"/>
      <point x="350" y="60"/>
      <point x="328" y="86"/>
      <point x="328" y="132" type="curve" smooth="yes"/>
      <point x="328" y="218" type="line" smooth="yes"/>
      <point x="328" y="232"/>
      <point x="318" y="242"/>
      <point x="310" y="242" type="curve" smooth="yes"/>
      <point x="292" y="242" type="line" smooth="yes"/>
      <point x="278" y="242"/>
      <point x="272" y="226"/>
      <point x="272" y="218" type="curve" smooth="yes"/>
      <point x="272" y="132" type="line" smooth="yes"/>
      <point x="272" y="80"/>
      <point x="246" y="60"/>
    </contour>
  </outline>
</glyph>
<glyph name="sevenFarsi-ar" format="2">
  <advance width="600"/>
  <unicode hex="06F7"/>
  <outline>
    <contour>
      <point x="92" y="584" type="line"/>
      <point x="92" y="500" type="line"/>
      <point x="396" y="500" type="line"/>
      <point x="188" y="232" type="line"/>
      <point x="284" y="232" type="line"/>
      <point x="508" y="500" type="line"/>
      <point x="508" y="584" type="line"/>
    </contour>
  </outline>
</glyph>
<glyph name="eightFarsi-ar" format="2">
  <advance width="600"/>
  <unicode hex="06F8"/>
  <outline>
    <contour>
      <point x="286" y="674" type="curve" smooth="yes"/>
      <point x="314" y="674" type="line" smooth="yes"/>
      <point x="332" y="674"/>
      <point x="334" y="662"/>
      <point x="340" y="646" type="curve" smooth="yes"/>
      <point x="520" y="26" type="line" smooth="yes"/>
      <point x="526" y="10"/>
      <point x="524" y="-2"/>
      <point x="514" y="-4" type="curve" smooth="yes"/>
      <point x="484" y="-16" type="line" smooth="yes"/>
      <point x="474" y="-18"/>
      <point x="468" y="-12"/>
      <point x="464" y="2" type="curve" smooth="yes"/>
      <point x="300" y="592" type="line"/>
      <point x="134" y="4" type="line" smooth="yes"/>
      <point x="132" y="-8"/>
      <point x="124" y="-18"/>
      <point x="110" y="-14" type="curve" smooth="yes"/>
      <point x="90" y="-6" type="line" smooth="yes"/>
      <point x="76" y="-2"/>
      <point x="74" y="12"/>
      <point x="78" y="28" type="curve" smooth="yes"/>
      <point x="260" y="648" type="line" smooth="yes"/>
      <point x="266" y="668"/>
      <point x="270" y="674"/>
    </contour>
  </outline>
</glyph>
<glyph name="nineFarsi-ar" format="2">
  <advance width="600"/>
  <unicode hex="06F9"/>
  <outline>
    <contour>
      <point x="470" y="-6" type="curve" smooth="yes"/>
      <point x="486" y="-6" type="line" smooth="yes"/>
      <point x="504" y="-6"/>
      <point x="506" y="8"/>
      <point x="506" y="22" type="curve" smooth="yes"/>
      <point x="474" y="488" type="line" smooth="yes"/>
      <point x="468" y="592"/>
      <point x="414" y="700"/>
      <point x="274" y="700" type="curve" smooth="yes"/>
      <point x="130" y="700"/>
      <point x="68" y="580"/>
      <point x="68" y="466" type="curve" smooth="yes"/>
      <point x="68" y="358"/>
      <point x="126" y="262"/>
      <point x="264" y="262" type="curve" smooth="yes"/>
      <point x="336" y="262"/>
      <point x="406" y="296"/>
      <point x="424" y="324" type="curve"/>
      <point x="444" y="20" type="line" smooth="yes"/>
      <point x="446" y="0"/>
      <point x="456" y="-6"/>
    </contour>
    <contour>
      <point x="268" y="328" type="curve" smooth="yes"/>
      <point x="170" y="328"/>
      <point x="130" y="388"/>
      <point x="130" y="470" type="curve" smooth="yes"/>
      <point x="130" y="558"/>
      <point x="178" y="634"/>
      <point x="272" y="634" type="curve" smooth="yes"/>
      <point x="360" y="634"/>
      <point x="404" y="574"/>
      <point x="412" y="506" type="curve" smooth="yes"/>
      <point x="416" y="468"/>
      <point x="418" y="430"/>
      <point x="420" y="390" type="curve"/>
      <point x="404" y="352"/>
      <point x="332" y="328"/>
    </contour>
  </outline>
</glyph>
<glyph name="kehehThreedotsabove-ar" format="2">
	<unicode hex="0763" />
	<advance width="680" />
	<outline>
		<contour>
			<point x="112" y="160" type="line" />
			<point x="568" y="160" type="line" />
			<point x="568" y="240" type="line" />
			<point x="268" y="240" type="line" />
			<point x="392" y="372" type="line" />
			<point x="540" y="372" type="line" />
			<point x="540" y="452" type="line" />
			<point x="348" y="452" type="line" />
			<point x="184" y="288" type="line" />
			<point x="112" y="288" type="line" />
		</contour>
		<contour>
			<point x="332" y="580" type="line" />
			<point x="380" y="580" type="line" />
			<point x="380" y="628" type="line" />
			<point x="332" y="628" type="line" />
		</contour>
		<contour>
			<point x="444" y="580" type="line" />
			<point x="492" y="580" type="line" />
			<point x="492" y="628" type="line" />
			<point x="444" y="628" type="line" />
		</contour>
		<contour>
			<point x="388" y="644" type="line" />
			<point x="436" y="644" type="line" />
			<point x="436" y="692" type="line" />
			<point x="388" y="692" type="line" />
		</contour>
	</outline>
</glyph>
<glyph name="endash" format="2">
	<unicode hex="2013" />
	<advance width="600" />
	<outline>
		<contour>
			<point x="96" y="328" type="line" />
			<point x="504" y="328" type="line" />
			<point x="504" y="384" type="line" />
			<point x="96" y="384" type="line" />
		</contour>
	</outline>
</glyph>
<glyph name="quoteleft" format="2">
	<unicode hex="2018" />
	<advance width="600" />
	<outline>
		<contour>
			<point x="332" y="760" type="line" />
			<point x="260" y="760" type="line" />
			<point x="300" y="572" type="line" />
			<point x="372" y="572" type="line" />
		</contour>
	</outline>
</glyph>
<glyph name="quotesinglbase" format="2">
  <advance width="600"/>
  <unicode hex="201A"/>
  <outline>
    <contour>
      <point x="268" y="112" type="line"/>
      <point x="228" y="-76" type="line"/>
      <point x="300" y="-76" type="line"/>
      <point x="340" y="112" type="line"/>
    </contour>
  </outline>
</glyph>
<glyph name="quotedblleft" format="2">
	<unicode hex="201C"/>
	<advance width="416"/>
	<outline>
		<contour>
			<point x="152" y="784" type="line"/>
			<point x="136" y="784" type="line"/>
			<point x="120" y="776" type="line"/>
			<point x="56" y="640" type="line"/>
			<point x="56" y="544" type="line"/>
			<point x="72" y="528" type="line"/>
			<point x="168" y="528" type="line"/>
			<point x="184" y="544" type="line"/>
			<point x="184" y="624" type="line"/>
			<point x="168" y="640" type="line"/>
			<point x="144" y="640" type="line"/>
			<point x="136" y="648" type="line"/>
			<point x="136" y="664" type="line"/>
			<point x="168" y="752" type="line"/>
			<point x="168" y="768" type="line"/>
		</contour>
		<contour>
			<point x="328" y="784" type="line"/>
			<point x="312" y="784" type="line"/>
			<point x="296" y="776" type="line"/>
			<point x="232" y="640" type="line"/>
			<point x="232" y="544" type="line"/>
			<point x="248" y="528" type="line"/>
			<point x="344" y="528" type="line"/>
			<point x="360" y="544" type="line"/>
			<point x="360" y="624" type="line"/>
			<point x="344" y="640" type="line"/>
			<point x="320" y="640" type="line"/>
			<point x="312" y="648" type="line"/>
			<point x="312" y="664" type="line"/>
			<point x="344" y="752" type="line"/>
			<point x="344" y="768" type="line"/>
		</contour>
	</outline>
</glyph>
<glyph name="bullet" format="2">
	<unicode hex="2022" />
	<advance width="600" />
	<outline>
		<contour>
			<point x="256" y="312" type="line" />
			<point x="344" y="312" type="line" />
			<point x="344" y="400" type="line" />
			<point x="256" y="400" type="line" />
		</contour>
	</outline>
</glyph>
<glyph name="ellipsis" format="2">
	<unicode hex="2026" />
	<advance width="600" />
	<outline>
		<contour>
			<point x="132" y="40" type="line" />
			<point x="180" y="40" type="line" />
			<point x="180" y="88" type="line" />
			<point x="132" y="88" type="line" />
		</contour>
		<contour>
			<point x="276" y="40" type="line" />
			<point x="324" y="40" type="line" />
			<point x="324" y="88" type="line" />
			<point x="276" y="88" type="line" />
		</contour>
		<contour>
			<point x="420" y="40" type="line" />
			<point x="468" y="40" type="line" />
			<point x="468" y="88" type="line" />
			<point x="420" y="88" type="line" />
		</contour>
	</outline>
</glyph>
<glyph name="guilsinglleft" format="2">
  <advance width="600"/>
  <unicode hex="2039"/>
  <outline>
    <contour>
      <point x="468" y="568" type="line"/>
      <point x="248" y="404" type="line"/>
      <point x="248" y="340" type="line"/>
      <point x="468" y="176" type="line"/>
      <point x="536" y="244" type="line"/>
      <point x="380" y="372" type="line"/>
      <point x="536" y="500" type="line"/>
    </contour>
  </outline>
</glyph>
<glyph name="guilsinglright" format="2">
	<unicode hex="203A" />
	<advance width="600" />
	<outline>
		<contour>
			<point x="132" y="568" type="line" />
			<point x="64" y="500" type="line" />
			<point x="220" y="372" type="line" />
			<point x="64" y="244" type="line" />
			<point x="132" y="176" type="line" />
			<point x="352" y="340" type="line" />
			<point x="352" y="404" type="line" />
		</contour>
	</outline>
</glyph>
<glyph name="uni20B9" format="2">
	<unicode hex="20B9" />
	<advance width="600" />
	<outline>
		<contour>
			<point x="96" y="568" type="line" />
			<point x="520" y="568" type="line" />
			<point x="520" y="632" type="line" />
			<point x="96" y="632" type="line" />
		</contour>
		<contour>
			<point x="96" y="456" type="line" />
			<point x="488" y="456" type="line" />
			<point x="488" y="520" type="line" />
			<point x="96" y="520" type="line" />
		</contour>
		<contour>
			<point x="152" y="128" type="line" />
			<point x="232" y="128" type="line" />
			<point x="232" y="568" type="line" />
			<point x="152" y="568" type="line" />
		</contour>
		<contour>
			<point x="206" y="344" type="line" />
			<point x="472" y="96" type="line" />
			<point x="528" y="152" type="line" />
			<point x="276" y="400" type="line" />
		</contour>
	</outline>
</glyph>
<glyph name="trademark" format="2">
  <advance width="760"/>
  <unicode hex="2122"/>
  <outline>
    <contour>
      <point x="64" y="528" type="line"/>
      <point x="288" y="528" type="line"/>
      <point x="288" y="584" type="line"/>
      <point x="64" y="584" type="line"/>
    </contour>
    <contour>
      <point x="116" y="316" type="line"/>
      <point x="172" y="316" type="line"/>
      <point x="172" y="528" type="line"/>
      <point x="116" y="528" type="line"/>
    </contour>
    <contour>
      <point x="352" y="316" type="line"/>
      <point x="352" y="584" type="line"/>
      <point x="408" y="584" type="line"/>
      <point x="408" y="316" type="line"/>
    </contour>
    <contour>
      <point x="592" y="316" type="line"/>
      <point x="648" y="316" type="line"/>
      <point x="648" y="584" type="line"/>
      <point x="592" y="584" type="line"/>
    </contour>
    <contour>
      <point x="352" y="584" type="line"/>
      <point x="444" y="316" type="line"/>
      <point x="500" y="316" type="line"/>
      <point x="592" y="584" type="line"/>
      <point x="528" y="584" type="line"/>
      <point x="472" y="440" type="line"/>
      <point x="416" y="584" type="line"/>
    </contour>
  </outline>
</glyph>
<glyph name="dottedCircle" format="2">
  <unicode hex="25CC" />
  <advance width="600" />
  <anchor x="300" y="576" name="top" />
  <anchor x="300" y="0" name="bottom" />
  <outline>
    <contour>
      <point x="280" y="640" type="line" />
      <point x="320" y="640" type="line" />
      <point x="320" y="680" type="line" />
      <point x="280" y="680" type="line" />
    </contour>
    <contour>
      <point x="428" y="584" type="line" />
      <point x="468" y="584" type="line" />
      <point x="468" y="624" type="line" />
      <point x="428" y="624" type="line" />
    </contour>
    <contour>
      <point x="500" y="436" type="line" />
      <point x="540" y="436" type="line" />
      <point x="540" y="476" type="line" />
      <point x="500" y="476" type="line" />
    </contour>
    <contour>
      <point x="464" y="272" type="line" />
      <point x="504" y="272" type="line" />
      <point x="504" y="312" type="line" />
      <point x="464" y="312" type="line" />
    </contour>
    <contour>
      <point x="324" y="184" type="line" />
      <point x="364" y="184" type="line" />
      <point x="364" y="224" type="line" />
      <point x="324" y="224" type="line" />
    </contour>
    <contour>
      <point x="164" y="216" type="line" />
      <point x="204" y="216" type="line" />
      <point x="204" y="256" type="line" />
      <point x="164" y="256" type="line" />
    </contour>
    <contour>
      <point x="60" y="344" type="line" />
      <point x="100" y="344" type="line" />
      <point x="100" y="384" type="line" />
      <point x="60" y="384" type="line" />
    </contour>
    <contour>
      <point x="88" y="512" type="line" />
      <point x="128" y="512" type="line" />
      <point x="128" y="552" type="line" />
      <point x="88" y="552" type="line" />
    </contour>
  </outline>
</glyph>
<glyph name="keheh-ar.init" format="2">
  <advance width="416"/>
  <unicode hex="FB90"/>
  <anchor x="210" y="0" name="bottom"/>
  <anchor x="196" y="776" name="top"/>
  <anchor x="46" y="610" name="gaf"/>
  <outline>
    <contour>
      <point x="-4" y="0" type="curve" smooth="yes"/>
      <point x="168" y="0" type="line" smooth="yes"/>
      <point x="272" y="0"/>
      <point x="364" y="60"/>
      <point x="364" y="184" type="curve" smooth="yes"/>
      <point x="364" y="242"/>
      <point x="336" y="294"/>
      <point x="292" y="338" type="curve" smooth="yes"/>
      <point x="76" y="554" type="line"/>
      <point x="390" y="762" type="line" smooth="yes"/>
      <point x="406" y="772"/>
      <point x="408" y="780"/>
      <point x="410" y="796" type="curve" smooth="yes"/>
      <point x="410" y="820" type="line" smooth="yes"/>
      <point x="412" y="838"/>
      <point x="402" y="846"/>
      <point x="390" y="836" type="curve" smooth="yes"/>
      <point x="46" y="610" type="line" smooth="yes"/>
      <point x="30" y="600"/>
      <point x="24" y="588"/>
      <point x="24" y="570" type="curve" smooth="yes"/>
      <point x="24" y="552" type="line" smooth="yes"/>
      <point x="24" y="532"/>
      <point x="26" y="518"/>
      <point x="42" y="502" type="curve" smooth="yes"/>
      <point x="256" y="288" type="line" smooth="yes"/>
      <point x="290" y="254"/>
      <point x="308" y="224"/>
      <point x="308" y="182" type="curve" smooth="yes"/>
      <point x="308" y="118"/>
      <point x="270" y="72"/>
      <point x="186" y="72" type="curve" smooth="yes"/>
      <point x="10" y="72" type="line" smooth="yes"/>
      <point x="-8" y="72"/>
      <point x="-20" y="60"/>
      <point x="-20" y="38" type="curve" smooth="yes"/>
      <point x="-20" y="16" type="line" smooth="yes"/>
      <point x="-20" y="6"/>
      <point x="-14" y="0"/>
    </contour>
  </outline>
</glyph>
<glyph name="keheh-ar.medi" format="2">
  <advance width="416"/>
  <unicode hex="FB91"/>
  <anchor x="130" y="0" name="bottom"/>
  <anchor x="120" y="776" name="top"/>
  <outline>
    <contour>
      <point x="-4" y="0" type="curve" smooth="yes"/>
      <point x="116" y="0" type="line" smooth="yes"/>
      <point x="186" y="0"/>
      <point x="248" y="28"/>
      <point x="250" y="138" type="curve"/>
      <point x="304" y="32"/>
      <point x="360" y="0"/>
      <point x="412" y="0" type="curve" smooth="yes"/>
      <point x="428" y="0"/>
      <point x="436" y="12"/>
      <point x="436" y="34" type="curve" smooth="yes"/>
      <point x="436" y="56" type="line" smooth="yes"/>
      <point x="436" y="66"/>
      <point x="432" y="72"/>
      <point x="424" y="72" type="curve" smooth="yes"/>
      <point x="352" y="72"/>
      <point x="330" y="94"/>
      <point x="274" y="190" type="curve" smooth="yes"/>
      <point x="56" y="558" type="line"/>
      <point x="308" y="762" type="line" smooth="yes"/>
      <point x="320" y="772"/>
      <point x="322" y="780"/>
      <point x="322" y="796" type="curve" smooth="yes"/>
      <point x="324" y="820" type="line" smooth="yes"/>
      <point x="324" y="838"/>
      <point x="318" y="846"/>
      <point x="306" y="836" type="curve" smooth="yes"/>
      <point x="28" y="610" type="line" smooth="yes"/>
      <point x="16" y="600"/>
      <point x="12" y="588"/>
      <point x="12" y="570" type="curve" smooth="yes"/>
      <point x="12" y="558" type="line" smooth="yes"/>
      <point x="12" y="540"/>
      <point x="16" y="526"/>
      <point x="26" y="510" type="curve" smooth="yes"/>
      <point x="180" y="248" type="line" smooth="yes"/>
      <point x="212" y="192"/>
      <point x="216" y="170"/>
      <point x="216" y="146" type="curve" smooth="yes"/>
      <point x="216" y="104"/>
      <point x="190" y="72"/>
      <point x="124" y="72" type="curve" smooth="yes"/>
      <point x="8" y="72" type="line" smooth="yes"/>
      <point x="-8" y="72"/>
      <point x="-16" y="60"/>
      <point x="-16" y="38" type="curve" smooth="yes"/>
      <point x="-16" y="16" type="line" smooth="yes"/>
      <point x="-16" y="6"/>
      <point x="-12" y="0"/>
    </contour>
  </outline>
</glyph>
<glyph name="noonghunna-ar.fina" format="2">
  <advance width="600"/>
  <unicode hex="FB9F"/>
  <anchor x="290" y="-144" name="bottom"/>
  <anchor x="282" y="262" name="topDots"/>
  <outline>
    <contour>
      <point x="270" y="-212" type="curve" smooth="yes"/>
      <point x="382" y="-212"/>
      <point x="494" y="-128"/>
      <point x="508" y="34" type="curve"/>
      <point x="532" y="4"/>
      <point x="558" y="0"/>
      <point x="596" y="0" type="curve" smooth="yes"/>
      <point x="612" y="0"/>
      <point x="622" y="12"/>
      <point x="622" y="34" type="curve" smooth="yes"/>
      <point x="622" y="56" type="line" smooth="yes"/>
      <point x="622" y="66"/>
      <point x="616" y="72"/>
      <point x="608" y="72" type="curve" smooth="yes"/>
      <point x="596" y="72" type="line" smooth="yes"/>
      <point x="536" y="72"/>
      <point x="518" y="94"/>
      <point x="508" y="158" type="curve" smooth="yes"/>
      <point x="500" y="202"/>
      <point x="492" y="234"/>
      <point x="486" y="266" type="curve" smooth="yes"/>
      <point x="482" y="290"/>
      <point x="476" y="298"/>
      <point x="462" y="292" type="curve" smooth="yes"/>
      <point x="446" y="286" type="line" smooth="yes"/>
      <point x="434" y="282"/>
      <point x="430" y="274"/>
      <point x="434" y="254" type="curve" smooth="yes"/>
      <point x="446" y="190"/>
      <point x="456" y="148"/>
      <point x="460" y="100" type="curve" smooth="yes"/>
      <point x="466" y="-42"/>
      <point x="400" y="-140"/>
      <point x="270" y="-140" type="curve" smooth="yes"/>
      <point x="174" y="-140"/>
      <point x="104" y="-68"/>
      <point x="104" y="54" type="curve" smooth="yes"/>
      <point x="104" y="90"/>
      <point x="110" y="152"/>
      <point x="124" y="192" type="curve"/>
      <point x="128" y="206"/>
      <point x="128" y="214"/>
      <point x="110" y="220" type="curve" smooth="yes"/>
      <point x="96" y="226" type="line" smooth="yes"/>
      <point x="84" y="230"/>
      <point x="78" y="222"/>
      <point x="70" y="196" type="curve" smooth="yes"/>
      <point x="60" y="162"/>
      <point x="50" y="96"/>
      <point x="50" y="54" type="curve" smooth="yes"/>
      <point x="50" y="-106"/>
      <point x="130" y="-212"/>
    </contour>
  </outline>
</glyph>
<glyph name="parenleft-ar" format="2">
  <advance width="600"/>
  <unicode hex="FD3E"/>
  <outline>
    <contour>
      <point x="528" y="-96" type="line"/>
      <point x="448" y="100" type="line"/>
      <point x="424" y="352" type="line"/>
      <point x="456" y="604" type="line"/>
      <point x="540" y="800" type="line"/>
      <point x="460" y="800" type="line"/>
      <point x="356" y="608" type="line"/>
      <point x="320" y="352" type="line"/>
      <point x="348" y="96" type="line"/>
      <point x="448" y="-96" type="line"/>
    </contour>
  </outline>
</glyph>
<glyph name="ain-ar.fina" format="2">
  <advance width="600"/>
  <anchor x="190" y="-344" name="bottom"/>
  <anchor x="292" y="576" name="top"/>
  <anchor x="292" y="454" name="topDots"/>
  <outline>
    <contour>
      <point x="292" y="-398" type="curve" smooth="yes"/>
      <point x="442" y="-398" type="line" smooth="yes"/>
      <point x="462" y="-398"/>
      <point x="466" y="-390"/>
      <point x="466" y="-376" type="curve" smooth="yes"/>
      <point x="466" y="-350" type="line" smooth="yes"/>
      <point x="466" y="-332"/>
      <point x="460" y="-326"/>
      <point x="438" y="-326" type="curve" smooth="yes"/>
      <point x="298" y="-326" type="line" smooth="yes"/>
      <point x="138" y="-326"/>
      <point x="60" y="-278"/>
      <point x="60" y="-160" type="curve" smooth="yes"/>
      <point x="60" y="-72"/>
      <point x="102" y="6"/>
      <point x="308" y="128" type="curve"/>
      <point x="266" y="166" type="line"/>
      <point x="64" y="48"/>
      <point x="-2" y="-52"/>
      <point x="0" y="-170" type="curve" smooth="yes"/>
      <point x="4" y="-338"/>
      <point x="120" y="-398"/>
    </contour>
    <contour>
      <point x="596" y="0" type="curve" smooth="yes"/>
      <point x="614" y="0"/>
      <point x="626" y="12"/>
      <point x="626" y="32" type="curve" smooth="yes"/>
      <point x="626" y="56" type="line" smooth="yes"/>
      <point x="626" y="66"/>
      <point x="620" y="72"/>
      <point x="612" y="72" type="curve" smooth="yes"/>
      <point x="588" y="72" type="line" smooth="yes"/>
      <point x="444" y="72"/>
      <point x="416" y="88"/>
      <point x="282" y="204" type="curve" smooth="yes"/>
      <point x="122" y="342" type="line"/>
      <point x="184" y="372"/>
      <point x="236" y="382"/>
      <point x="288" y="382" type="curve" smooth="yes"/>
      <point x="398" y="382"/>
      <point x="436" y="354"/>
      <point x="436" y="318" type="curve" smooth="yes"/>
      <point x="436" y="280"/>
      <point x="374" y="230"/>
      <point x="288" y="178" type="curve"/>
      <point x="328" y="144" type="line"/>
      <point x="420" y="192"/>
      <point x="498" y="258"/>
      <point x="498" y="328" type="curve" smooth="yes"/>
      <point x="498" y="400"/>
      <point x="436" y="454"/>
      <point x="292" y="454" type="curve" smooth="yes"/>
      <point x="226" y="454"/>
      <point x="156" y="438"/>
      <point x="100" y="404" type="curve" smooth="yes"/>
      <point x="82" y="394"/>
      <point x="70" y="384"/>
      <point x="70" y="356" type="curve" smooth="yes"/>
      <point x="70" y="336" type="line" smooth="yes"/>
      <point x="70" y="314"/>
      <point x="72" y="300"/>
      <point x="92" y="282" type="curve" smooth="yes"/>
      <point x="234" y="160" type="line" smooth="yes"/>
      <point x="316" y="88"/>
      <point x="366" y="50"/>
      <point x="416" y="28" type="curve" smooth="yes"/>
      <point x="466" y="4"/>
      <point x="516" y="0"/>
    </contour>
  </outline>
</glyph>
<glyph name="alefHamzabelow-ar.fina" format="2">
	<advance width="600" />
	<outline>
		<contour>
			<point x="272" y="112" type="line" />
			<point x="328" y="112" type="line" />
			<point x="328" y="680" type="line" />
			<point x="272" y="680" type="line" />
		</contour>
		<contour>
			<point x="196" y="-132" type="line" />
			<point x="340" y="-132" type="line" />
			<point x="356" y="-116" type="line" />
			<point x="356" y="-84" type="line" />
			<point x="340" y="-68" type="line" />
			<point x="292" y="-68" type="line" />
			<point x="268" y="-68" type="line" />
			<point x="252" y="-52" type="line" />
			<point x="252" y="-28" type="line" />
			<point x="348" y="-28" type="line" />
			<point x="364" y="-12" type="line" />
			<point x="364" y="20" type="line" />
			<point x="348" y="36" type="line" />
			<point x="228" y="36" type="line" />
			<point x="180" y="4" type="line" />
			<point x="180" y="-44" type="line" />
			<point x="220" y="-76" type="line" />
			<point x="196" y="-76" type="line" />
		</contour>
	</outline>
</glyph>
<glyph name="alefMadda-ar.fina" format="2">
  <advance width="600"/>
  <outline>
    <contour>
      <point x="272" y="112" type="line"/>
      <point x="328" y="112" type="line"/>
      <point x="328" y="680" type="line"/>
      <point x="272" y="680" type="line"/>
    </contour>
    <contour>
      <point x="188" y="760" type="line"/>
      <point x="220" y="704" type="line"/>
      <point x="276" y="744" type="line"/>
      <point x="372" y="704" type="line"/>
      <point x="468" y="760" type="line"/>
      <point x="428" y="824" type="line"/>
      <point x="372" y="776" type="line"/>
      <point x="276" y="816" type="line"/>
    </contour>
  </outline>
</glyph>
<glyph name="alefMaksura-ar.fina" format="2">
  <advance width="600"/>
  <anchor x="252" y="-222" name="bottom"/>
  <anchor x="362" y="-200" name="bottomDots"/>
  <anchor x="348" y="388" name="top"/>
  <outline>
    <contour>
      <point x="310" y="-250" type="curve" smooth="yes"/>
      <point x="396" y="-250" type="line" smooth="yes"/>
      <point x="558" y="-250"/>
      <point x="602" y="-146"/>
      <point x="602" y="-76" type="curve" smooth="yes"/>
      <point x="602" y="-16"/>
      <point x="570" y="26"/>
      <point x="506" y="58" type="curve"/>
      <point x="566" y="0" type="line"/>
      <point x="598" y="0" type="line" smooth="yes"/>
      <point x="614" y="0"/>
      <point x="622" y="10"/>
      <point x="622" y="28" type="curve" smooth="yes"/>
      <point x="622" y="56" type="line" smooth="yes"/>
      <point x="622" y="64"/>
      <point x="618" y="72"/>
      <point x="610" y="72" type="curve" smooth="yes"/>
      <point x="446" y="72" type="line" smooth="yes"/>
      <point x="434" y="72"/>
      <point x="428" y="64"/>
      <point x="428" y="48" type="curve" smooth="yes"/>
      <point x="428" y="24" type="line" smooth="yes"/>
      <point x="428" y="8"/>
      <point x="434" y="0"/>
      <point x="446" y="0" type="curve" smooth="yes"/>
      <point x="490" y="0" type="line" smooth="yes"/>
      <point x="526" y="0"/>
      <point x="552" y="-30"/>
      <point x="552" y="-76" type="curve" smooth="yes"/>
      <point x="552" y="-148"/>
      <point x="486" y="-178"/>
      <point x="396" y="-178" type="curve" smooth="yes"/>
      <point x="310" y="-178" type="line" smooth="yes"/>
      <point x="170" y="-178"/>
      <point x="112" y="-94"/>
      <point x="112" y="16" type="curve" smooth="yes"/>
      <point x="112" y="76"/>
      <point x="126" y="118"/>
      <point x="160" y="178" type="curve" smooth="yes"/>
      <point x="168" y="192"/>
      <point x="164" y="202"/>
      <point x="156" y="208" type="curve" smooth="yes"/>
      <point x="140" y="220" type="line"/>
      <point x="132" y="226"/>
      <point x="122" y="226"/>
      <point x="116" y="214" type="curve" smooth="yes"/>
      <point x="72" y="140"/>
      <point x="56" y="68"/>
      <point x="56" y="12" type="curve" smooth="yes"/>
      <point x="56" y="-140"/>
      <point x="140" y="-250"/>
    </contour>
  </outline>
</glyph>
<glyph name="behDotless-ar.fina" format="2">
  <advance width="600"/>
  <anchor x="276" y="0" name="bottom"/>
  <anchor x="282" y="26" name="bottomDots"/>
  <anchor x="260" y="576" name="top"/>
  <anchor x="292" y="290" name="topDots"/>
  <outline>
    <contour>
      <point x="214" y="0" type="curve" smooth="yes"/>
      <point x="354" y="0" type="line" smooth="yes"/>
      <point x="428" y="0"/>
      <point x="476" y="28"/>
      <point x="494" y="110" type="curve"/>
      <point x="514" y="28"/>
      <point x="546" y="0"/>
      <point x="596" y="0" type="curve" smooth="yes"/>
      <point x="608" y="0"/>
      <point x="616" y="12"/>
      <point x="616" y="34" type="curve" smooth="yes"/>
      <point x="616" y="56" type="line" smooth="yes"/>
      <point x="616" y="66"/>
      <point x="612" y="72"/>
      <point x="606" y="72" type="curve" smooth="yes"/>
      <point x="590" y="72" type="line" smooth="yes"/>
      <point x="540" y="72"/>
      <point x="518" y="104"/>
      <point x="518" y="228" type="curve" smooth="yes"/>
      <point x="518" y="316" type="line" smooth="yes"/>
      <point x="518" y="330"/>
      <point x="514" y="338"/>
      <point x="506" y="338" type="curve" smooth="yes"/>
      <point x="492" y="338" type="line" smooth="yes"/>
      <point x="484" y="338"/>
      <point x="480" y="330"/>
      <point x="480" y="316" type="curve" smooth="yes"/>
      <point x="480" y="228" type="line" smooth="yes"/>
      <point x="480" y="110"/>
      <point x="444" y="72"/>
      <point x="358" y="72" type="curve" smooth="yes"/>
      <point x="214" y="72" type="line" smooth="yes"/>
      <point x="134" y="72"/>
      <point x="82" y="106"/>
      <point x="82" y="210" type="curve" smooth="yes"/>
      <point x="82" y="256"/>
      <point x="90" y="300"/>
      <point x="100" y="338" type="curve" smooth="yes"/>
      <point x="102" y="354"/>
      <point x="100" y="360"/>
      <point x="94" y="364" type="curve"/>
      <point x="82" y="372" type="line" smooth="yes"/>
      <point x="72" y="378"/>
      <point x="68" y="374"/>
      <point x="66" y="364" type="curve" smooth="yes"/>
      <point x="52" y="306"/>
      <point x="44" y="256"/>
      <point x="44" y="212" type="curve" smooth="yes"/>
      <point x="44" y="74"/>
      <point x="92" y="0"/>
    </contour>
  </outline>
</glyph>
<glyph name="caroncomb.alt" format="2">
	<advance width="260" />
	<outline>
		<contour>
			<point x="92" y="520" type="line" />
			<point x="156" y="520" type="line" />
			<point x="196" y="744" type="line" />
			<point x="196" y="800" type="line" />
			<point x="132" y="800" type="line" />
			<point x="132" y="744" type="line" />
		</contour>
	</outline>
</glyph>
<glyph name="dotcenter-ar" format="2">
	<advance width="600" />
	<outline>
		<contour>
			<point x="276" y="332" type="line" />
			<point x="324" y="332" type="line" />
			<point x="324" y="380" type="line" />
			<point x="276" y="380" type="line" />
		</contour>
	</outline>
</glyph>
<glyph name="eight.tf" format="2">
	<advance width="664"/>
	<outline>
		<contour>
			<point x="332" y="-16" type="curve"/>
			<point x="520" y="-16"/>
			<point x="620" y="72"/>
			<point x="620" y="220" type="curve"/>
			<point x="620" y="316"/>
			<point x="546" y="392"/>
			<point x="474" y="408" type="curve"/>
			<point x="474" y="416" type="line"/>
			<point x="512" y="430"/>
			<point x="584" y="472"/>
			<point x="584" y="564" type="curve"/>
			<point x="584" y="668"/>
			<point x="506" y="758"/>
			<point x="332" y="760" type="curve"/>
			<point x="160" y="762"/>
			<point x="80" y="668"/>
			<point x="80" y="564" type="curve"/>
			<point x="80" y="472"/>
			<point x="150" y="430"/>
			<point x="190" y="416" type="curve"/>
			<point x="190" y="408" type="line"/>
			<point x="132" y="392"/>
			<point x="44" y="316"/>
			<point x="44" y="220" type="curve"/>
			<point x="44" y="72"/>
			<point x="144" y="-16"/>
		</contour>
		<contour>
			<point x="332" y="456" type="curve"/>
			<point x="236" y="458"/>
			<point x="180" y="500"/>
			<point x="180" y="564" type="curve"/>
			<point x="180" y="628"/>
			<point x="236" y="672"/>
			<point x="332" y="672" type="curve"/>
			<point x="428" y="672"/>
			<point x="484" y="628"/>
			<point x="484" y="564" type="curve"/>
			<point x="484" y="500"/>
			<point x="428" y="454"/>
		</contour>
		<contour>
			<point x="332" y="72" type="curve"/>
			<point x="224" y="72"/>
			<point x="144" y="124"/>
			<point x="144" y="220" type="curve"/>
			<point x="144" y="316"/>
			<point x="224" y="368"/>
			<point x="332" y="368" type="curve"/>
			<point x="440" y="368"/>
			<point x="520" y="316"/>
			<point x="520" y="220" type="curve"/>
			<point x="520" y="124"/>
			<point x="440" y="72"/>
		</contour>
	</outline>
</glyph>
<glyph name="fehDotless-ar.fina" format="2">
  <advance width="600"/>
  <anchor x="328" y="0" name="bottom"/>
  <anchor x="458" y="576" name="top"/>
  <anchor x="452" y="442" name="topDots"/>
  <outline>
    <contour>
      <point x="178" y="0" type="curve" smooth="yes"/>
      <point x="296" y="0" type="line" smooth="yes"/>
      <point x="364" y="0"/>
      <point x="392" y="12"/>
      <point x="440" y="48" type="curve"/>
      <point x="480" y="14"/>
      <point x="524" y="0"/>
      <point x="598" y="0" type="curve" smooth="yes"/>
      <point x="608" y="0"/>
      <point x="614" y="12"/>
      <point x="614" y="34" type="curve" smooth="yes"/>
      <point x="614" y="56" type="line" smooth="yes"/>
      <point x="614" y="66"/>
      <point x="610" y="72"/>
      <point x="606" y="72" type="curve" smooth="yes"/>
      <point x="544" y="72"/>
      <point x="516" y="74"/>
      <point x="482" y="90" type="curve"/>
      <point x="522" y="142"/>
      <point x="538" y="198"/>
      <point x="538" y="268" type="curve" smooth="yes"/>
      <point x="538" y="372"/>
      <point x="498" y="442"/>
      <point x="452" y="442" type="curve" smooth="yes"/>
      <point x="404" y="442"/>
      <point x="358" y="374"/>
      <point x="360" y="258" type="curve" smooth="yes"/>
      <point x="360" y="178"/>
      <point x="384" y="118"/>
      <point x="406" y="90" type="curve"/>
      <point x="386" y="78"/>
      <point x="348" y="72"/>
      <point x="304" y="72" type="curve" smooth="yes"/>
      <point x="184" y="72" type="line" smooth="yes"/>
      <point x="114" y="72"/>
      <point x="74" y="118"/>
      <point x="74" y="214" type="curve" smooth="yes"/>
      <point x="74" y="248"/>
      <point x="78" y="290"/>
      <point x="90" y="338" type="curve" smooth="yes"/>
      <point x="94" y="354"/>
      <point x="88" y="358"/>
      <point x="84" y="362" type="curve" smooth="yes"/>
      <point x="74" y="370" type="line" smooth="yes"/>
      <point x="66" y="376"/>
      <point x="62" y="368"/>
      <point x="58" y="348" type="curve" smooth="yes"/>
      <point x="46" y="296"/>
      <point x="38" y="248"/>
      <point x="38" y="204" type="curve" smooth="yes"/>
      <point x="38" y="76"/>
      <point x="84" y="0"/>
    </contour>
    <contour>
      <point x="448" y="116" type="curve"/>
      <point x="410" y="156"/>
      <point x="392" y="200"/>
      <point x="392" y="264" type="curve" smooth="yes"/>
      <point x="392" y="332"/>
      <point x="418" y="370"/>
      <point x="448" y="370" type="curve" smooth="yes"/>
      <point x="484" y="370"/>
      <point x="506" y="328"/>
      <point x="506" y="262" type="curve" smooth="yes"/>
      <point x="506" y="210"/>
      <point x="486" y="152"/>
    </contour>
  </outline>
</glyph>
<glyph name="fehDotmovedbelow-ar.medi" format="2">
  <advance width="600"/>
  <outline>
    <contour>
      <point x="-24" y="128" type="line"/>
      <point x="624" y="128" type="line"/>
      <point x="624" y="184" type="line"/>
      <point x="-24" y="184" type="line"/>
    </contour>
    <contour>
      <point x="224" y="296" type="line"/>
      <point x="164" y="208" type="line"/>
      <point x="232" y="152" type="line"/>
      <point x="420" y="152" type="line"/>
      <point x="468" y="220" type="line"/>
      <point x="388" y="296" type="line"/>
    </contour>
    <contour>
      <point x="276" y="-112" type="line"/>
      <point x="324" y="-112" type="line"/>
      <point x="324" y="-64" type="line"/>
      <point x="276" y="-64" type="line"/>
    </contour>
  </outline>
</glyph>
<glyph name="five.tf" format="2">
	<advance width="664"/>
	<outline>
		<contour>
			<point x="330" y="-16" type="curve"/>
			<point x="484" y="-16"/>
			<point x="602" y="72"/>
			<point x="602" y="260" type="curve"/>
			<point x="602" y="398"/>
			<point x="504" y="512"/>
			<point x="348" y="512" type="curve"/>
			<point x="282" y="512"/>
			<point x="232" y="488"/>
			<point x="194" y="458" type="curve"/>
			<point x="186" y="458" type="line"/>
			<point x="228" y="648" type="line"/>
			<point x="236" y="656" type="line"/>
			<point x="542" y="656" type="line"/>
			<point x="558" y="672" type="line"/>
			<point x="558" y="728" type="line"/>
			<point x="542" y="744" type="line"/>
			<point x="170" y="744" type="line"/>
			<point x="154" y="728" type="line"/>
			<point x="82" y="376" type="line"/>
			<point x="82" y="360" type="line"/>
			<point x="98" y="344" type="line"/>
			<point x="170" y="344" type="line"/>
			<point x="198" y="394"/>
			<point x="248" y="422"/>
			<point x="332" y="422" type="curve"/>
			<point x="432" y="422"/>
			<point x="502" y="358"/>
			<point x="502" y="260" type="curve"/>
			<point x="502" y="164"/>
			<point x="456" y="72"/>
			<point x="330" y="72" type="curve"/>
			<point x="240" y="72"/>
			<point x="178" y="120"/>
			<point x="162" y="196" type="curve"/>
			<point x="146" y="212" type="line"/>
			<point x="78" y="212" type="line"/>
			<point x="62" y="196" type="line"/>
			<point x="62" y="92"/>
			<point x="162" y="-16"/>
		</contour>
	</outline>
</glyph>
<glyph name="four.tf" format="2">
	<advance width="664"/>
	<outline>
		<contour>
			<point x="413" y="0" type="line"/>
			<point x="481" y="0" type="line"/>
			<point x="497" y="16" type="line"/>
			<point x="497" y="166" type="line"/>
			<point x="505" y="174" type="line"/>
			<point x="599" y="174" type="line"/>
			<point x="615" y="190" type="line"/>
			<point x="615" y="246" type="line"/>
			<point x="599" y="262" type="line"/>
			<point x="505" y="262" type="line"/>
			<point x="497" y="270" type="line"/>
			<point x="497" y="728" type="line"/>
			<point x="481" y="744" type="line"/>
			<point x="417" y="744" type="line"/>
			<point x="49" y="254" type="line"/>
			<point x="49" y="190" type="line"/>
			<point x="65" y="174" type="line"/>
			<point x="389" y="174" type="line"/>
			<point x="397" y="166" type="line"/>
			<point x="397" y="16" type="line"/>
		</contour>
		<contour>
			<point x="169" y="262" type="line"/>
			<point x="169" y="270" type="line"/>
			<point x="389" y="560" type="line"/>
			<point x="397" y="560" type="line"/>
			<point x="397" y="270" type="line"/>
			<point x="389" y="262" type="line"/>
		</contour>
	</outline>
</glyph>
<glyph name="hah-ar.fina" format="2">
  <advance width="600"/>
  <anchor x="226" y="-344" name="bottom"/>
  <anchor x="294" y="-90" name="center"/>
  <anchor x="188" y="576" name="top"/>
  <anchor x="208" y="426" name="topDots"/>
  <outline>
    <contour>
      <point x="310" y="-398" type="curve" smooth="yes"/>
      <point x="448" y="-398" type="line" smooth="yes"/>
      <point x="460" y="-398"/>
      <point x="468" y="-390"/>
      <point x="468" y="-374" type="curve" smooth="yes"/>
      <point x="468" y="-354" type="line" smooth="yes"/>
      <point x="468" y="-338"/>
      <point x="460" y="-328"/>
      <point x="448" y="-328" type="curve" smooth="yes"/>
      <point x="316" y="-328" type="line" smooth="yes"/>
      <point x="158" y="-328"/>
      <point x="108" y="-242"/>
      <point x="108" y="-118" type="curve" smooth="yes"/>
      <point x="108" y="-14"/>
      <point x="184" y="168"/>
      <point x="468" y="242" type="curve"/>
      <point x="450" y="288" type="line"/>
      <point x="234" y="256"/>
      <point x="62" y="62"/>
      <point x="60" y="-114" type="curve" smooth="yes"/>
      <point x="58" y="-296"/>
      <point x="148" y="-398"/>
    </contour>
    <contour>
      <point x="504" y="0" type="curve" smooth="yes"/>
      <point x="598" y="0" type="line" smooth="yes"/>
      <point x="614" y="0"/>
      <point x="622" y="12"/>
      <point x="622" y="32" type="curve" smooth="yes"/>
      <point x="620" y="56" type="line" smooth="yes"/>
      <point x="620" y="66"/>
      <point x="614" y="72"/>
      <point x="606" y="72" type="curve" smooth="yes"/>
      <point x="506" y="72" type="line" smooth="yes"/>
      <point x="420" y="72"/>
      <point x="394" y="112"/>
      <point x="380" y="218" type="curve"/>
      <point x="344" y="212" type="line"/>
      <point x="360" y="46"/>
      <point x="416" y="0"/>
    </contour>
    <contour>
      <point x="448" y="240" type="line"/>
      <point x="494" y="240" type="line" smooth="yes"/>
      <point x="506" y="240"/>
      <point x="514" y="248"/>
      <point x="514" y="264" type="curve" smooth="yes"/>
      <point x="514" y="282" type="line" smooth="yes"/>
      <point x="514" y="302"/>
      <point x="512" y="310"/>
      <point x="494" y="310" type="curve" smooth="yes"/>
      <point x="470" y="310" type="line" smooth="yes"/>
      <point x="346" y="310"/>
      <point x="294" y="426"/>
      <point x="182" y="426" type="curve" smooth="yes"/>
      <point x="88" y="426"/>
      <point x="56" y="352"/>
      <point x="56" y="314" type="curve" smooth="yes"/>
      <point x="56" y="300"/>
      <point x="62" y="292"/>
      <point x="74" y="292" type="curve" smooth="yes"/>
      <point x="86" y="292" type="line" smooth="yes"/>
      <point x="100" y="292"/>
      <point x="102" y="298"/>
      <point x="108" y="310" type="curve" smooth="yes"/>
      <point x="120" y="334"/>
      <point x="136" y="358"/>
      <point x="178" y="358" type="curve" smooth="yes"/>
      <point x="280" y="358"/>
      <point x="308" y="246"/>
      <point x="448" y="250" type="curve"/>
    </contour>
  </outline>
</glyph>
<glyph name="hah-ar.medi" format="2">
  <advance width="600"/>
  <anchor x="258" y="0" name="bottom"/>
  <anchor x="354" y="84" name="bottomDots"/>
  <anchor x="198" y="576" name="top"/>
  <anchor x="206" y="382" name="topDots"/>
  <outline>
    <contour>
      <point x="-4" y="0" type="curve" smooth="yes"/>
      <point x="94" y="0" type="line" smooth="yes"/>
      <point x="230" y="0"/>
      <point x="286" y="48"/>
      <point x="352" y="100" type="curve" smooth="yes"/>
      <point x="478" y="198" type="line"/>
      <point x="422" y="222" type="line"/>
      <point x="338" y="156" type="line" smooth="yes"/>
      <point x="266" y="100"/>
      <point x="198" y="72"/>
      <point x="100" y="72" type="curve" smooth="yes"/>
      <point x="8" y="72" type="line" smooth="yes"/>
      <point x="-8" y="72"/>
      <point x="-16" y="60"/>
      <point x="-16" y="38" type="curve" smooth="yes"/>
      <point x="-16" y="16" type="line" smooth="yes"/>
      <point x="-16" y="6"/>
      <point x="-12" y="0"/>
    </contour>
    <contour>
      <point x="566" y="0" type="curve" smooth="yes"/>
      <point x="596" y="0" type="line" smooth="yes"/>
      <point x="612" y="0"/>
      <point x="620" y="6"/>
      <point x="620" y="28" type="curve" smooth="yes"/>
      <point x="620" y="50" type="line" smooth="yes"/>
      <point x="620" y="60"/>
      <point x="618" y="72"/>
      <point x="608" y="72" type="curve" smooth="yes"/>
      <point x="570" y="72" type="line" smooth="yes"/>
      <point x="500" y="72"/>
      <point x="444" y="76"/>
      <point x="444" y="216" type="curve"/>
      <point x="412" y="184" type="line"/>
      <point x="412" y="36"/>
      <point x="484" y="0"/>
    </contour>
    <contour>
      <point x="478" y="194" type="line"/>
      <point x="504" y="194" type="line" smooth="yes"/>
      <point x="516" y="194"/>
      <point x="522" y="204"/>
      <point x="522" y="220" type="curve" smooth="yes"/>
      <point x="522" y="238" type="line" smooth="yes"/>
      <point x="522" y="256"/>
      <point x="520" y="264"/>
      <point x="504" y="264" type="curve" smooth="yes"/>
      <point x="462" y="264" type="line" smooth="yes"/>
      <point x="342" y="264"/>
      <point x="290" y="382"/>
      <point x="180" y="382" type="curve" smooth="yes"/>
      <point x="92" y="382"/>
      <point x="62" y="308"/>
      <point x="62" y="270" type="curve" smooth="yes"/>
      <point x="62" y="254"/>
      <point x="66" y="248"/>
      <point x="80" y="248" type="curve" smooth="yes"/>
      <point x="90" y="248" type="line" smooth="yes"/>
      <point x="102" y="248"/>
      <point x="106" y="254"/>
      <point x="110" y="266" type="curve" smooth="yes"/>
      <point x="122" y="290"/>
      <point x="136" y="314"/>
      <point x="178" y="314" type="curve" smooth="yes"/>
      <point x="276" y="314"/>
      <point x="314" y="198"/>
      <point x="466" y="198" type="curve"/>
    </contour>
  </outline>
</glyph>
<glyph name="hamzaaboveDammatan-ar" format="2">
	<advance width="0" />
	<outline>
		<contour>
			<point x="180" y="604" type="line" />
			<point x="372" y="604" type="line" />
			<point x="388" y="620" type="line" />
			<point x="388" y="660" type="line" />
			<point x="372" y="676" type="line" />
			<point x="308" y="676" type="line" />
			<point x="276" y="676" type="line" />
			<point x="260" y="692" type="line" />
			<point x="260" y="716" type="line" />
			<point x="392" y="716" type="line" />
			<point x="408" y="732" type="line" />
			<point x="408" y="772" type="line" />
			<point x="392" y="788" type="line" />
			<point x="244" y="788" type="line" />
			<point x="188" y="756" type="line" />
			<point x="188" y="700" type="line" />
			<point x="228" y="660" type="line" />
			<point x="180" y="660" type="line" />
		</contour>
		<contour>
			<point x="160" y="824" type="line" />
			<point x="368" y="824" type="line" />
			<point x="368" y="852" type="line" />
			<point x="160" y="852" type="line" />
		</contour>
		<contour>
			<point x="160" y="872" type="line" />
			<point x="368" y="872" type="line" />
			<point x="368" y="900" type="line" />
			<point x="160" y="900" type="line" />
		</contour>
	</outline>
</glyph>
<glyph name="heh-ar.init" format="2">
  <advance width="600"/>
  <outline>
    <contour>
      <point x="-24" y="128" type="line"/>
      <point x="624" y="128" type="line"/>
      <point x="624" y="184" type="line"/>
      <point x="-24" y="184" type="line"/>
    </contour>
    <contour>
      <point x="148" y="260" type="line"/>
      <point x="260" y="184" type="line"/>
      <point x="428" y="196" type="line"/>
      <point x="480" y="300" type="line"/>
      <point x="388" y="416" type="line"/>
      <point x="244" y="416" type="line"/>
    </contour>
    <contour>
      <point x="268" y="320" type="line"/>
      <point x="340" y="320" type="line"/>
      <point x="372" y="268" type="line"/>
      <point x="324" y="216" type="line"/>
      <point x="252" y="232" type="line"/>
    </contour>
  </outline>
</glyph>
<glyph name="hehGoal-ar.init" format="2">
	<advance width="416"/>
	<outline>
		<contour>
			<point x="-24" y="128" type="line"/>
			<point x="440" y="128" type="line"/>
			<point x="440" y="184" type="line"/>
			<point x="-24" y="184" type="line"/>
		</contour>
		<contour>
			<point x="88" y="168" type="line"/>
			<point x="168" y="220" type="line"/>
			<point x="236" y="172" type="line"/>
			<point x="388" y="172" type="line"/>
			<point x="416" y="248" type="line"/>
			<point x="336" y="320" type="line"/>
			<point x="196" y="320" type="line"/>
		</contour>
	</outline>
</glyph>
<glyph name="hehGoalHamzaabove-ar.fina" format="2">
	<advance width="600" />
	<outline>
		<contour>
			<point x="104" y="176" type="line" />
			<point x="176" y="112" type="line" />
			<point x="360" y="112" type="line" />
			<point x="464" y="196" type="line" />
			<point x="464" y="328" type="line" />
			<point x="392" y="408" type="line" />
			<point x="272" y="408" type="line" />
			<point x="208" y="344" type="line" />
			<point x="236" y="288" type="line" />
			<point x="344" y="288" type="line" />
			<point x="376" y="236" type="line" />
			<point x="332" y="192" type="line" />
			<point x="184" y="192" type="line" />
		</contour>
		<contour>
			<point x="220" y="568" type="line" />
			<point x="364" y="568" type="line" />
			<point x="380" y="584" type="line" />
			<point x="380" y="616" type="line" />
			<point x="364" y="632" type="line" />
			<point x="316" y="632" type="line" />
			<point x="292" y="632" type="line" />
			<point x="276" y="648" type="line" />
			<point x="276" y="672" type="line" />
			<point x="372" y="672" type="line" />
			<point x="388" y="688" type="line" />
			<point x="388" y="720" type="line" />
			<point x="372" y="736" type="line" />
			<point x="252" y="736" type="line" />
			<point x="204" y="704" type="line" />
			<point x="204" y="656" type="line" />
			<point x="244" y="624" type="line" />
			<point x="220" y="624" type="line" />
		</contour>
	</outline>
</glyph>
<glyph name="kaf-ar.init" format="2">
  <advance width="600"/>
  <anchor x="304" y="0" name="bottom"/>
  <anchor x="284" y="776" name="top"/>
  <outline>
    <contour>
      <point x="-8" y="0" type="curve" smooth="yes"/>
      <point x="242" y="0" type="line" smooth="yes"/>
      <point x="392" y="0"/>
      <point x="524" y="60"/>
      <point x="524" y="184" type="curve" smooth="yes"/>
      <point x="524" y="242"/>
      <point x="484" y="294"/>
      <point x="420" y="338" type="curve" smooth="yes"/>
      <point x="110" y="554" type="line"/>
      <point x="564" y="762" type="line" smooth="yes"/>
      <point x="584" y="772"/>
      <point x="588" y="780"/>
      <point x="590" y="796" type="curve" smooth="yes"/>
      <point x="592" y="820" type="line" smooth="yes"/>
      <point x="592" y="838"/>
      <point x="580" y="846"/>
      <point x="562" y="836" type="curve" smooth="yes"/>
      <point x="64" y="610" type="line" smooth="yes"/>
      <point x="44" y="600"/>
      <point x="34" y="588"/>
      <point x="34" y="570" type="curve" smooth="yes"/>
      <point x="34" y="552" type="line" smooth="yes"/>
      <point x="34" y="532"/>
      <point x="38" y="518"/>
      <point x="60" y="502" type="curve" smooth="yes"/>
      <point x="370" y="288" type="line" smooth="yes"/>
      <point x="418" y="254"/>
      <point x="444" y="224"/>
      <point x="444" y="182" type="curve" smooth="yes"/>
      <point x="444" y="118"/>
      <point x="388" y="72"/>
      <point x="270" y="72" type="curve" smooth="yes"/>
      <point x="14" y="72" type="line" smooth="yes"/>
      <point x="-12" y="72"/>
      <point x="-28" y="60"/>
      <point x="-28" y="38" type="curve" smooth="yes"/>
      <point x="-28" y="16" type="line" smooth="yes"/>
      <point x="-28" y="6"/>
      <point x="-20" y="0"/>
    </contour>
  </outline>
</glyph>
<glyph name="kaf-ar.medi" format="2">
  <advance width="600"/>
  <anchor x="188" y="0" name="bottom"/>
  <anchor x="172" y="776" name="top"/>
  <outline>
    <contour>
      <point x="-6" y="0" type="curve" smooth="yes"/>
      <point x="166" y="0" type="line" smooth="yes"/>
      <point x="270" y="0"/>
      <point x="358" y="28"/>
      <point x="360" y="138" type="curve"/>
      <point x="438" y="32"/>
      <point x="520" y="0"/>
      <point x="594" y="0" type="curve" smooth="yes"/>
      <point x="616" y="0"/>
      <point x="628" y="12"/>
      <point x="628" y="34" type="curve" smooth="yes"/>
      <point x="628" y="56" type="line" smooth="yes"/>
      <point x="628" y="66"/>
      <point x="622" y="72"/>
      <point x="612" y="72" type="curve" smooth="yes"/>
      <point x="506" y="72"/>
      <point x="476" y="94"/>
      <point x="394" y="190" type="curve" smooth="yes"/>
      <point x="80" y="558" type="line"/>
      <point x="444" y="762" type="line" smooth="yes"/>
      <point x="460" y="772"/>
      <point x="464" y="780"/>
      <point x="466" y="796" type="curve" smooth="yes"/>
      <point x="466" y="820" type="line" smooth="yes"/>
      <point x="468" y="838"/>
      <point x="458" y="846"/>
      <point x="442" y="836" type="curve" smooth="yes"/>
      <point x="42" y="610" type="line" smooth="yes"/>
      <point x="24" y="600"/>
      <point x="16" y="588"/>
      <point x="16" y="570" type="curve" smooth="yes"/>
      <point x="16" y="558" type="line" smooth="yes"/>
      <point x="16" y="540"/>
      <point x="22" y="526"/>
      <point x="36" y="510" type="curve" smooth="yes"/>
      <point x="258" y="248" type="line" smooth="yes"/>
      <point x="306" y="192"/>
      <point x="312" y="170"/>
      <point x="312" y="146" type="curve" smooth="yes"/>
      <point x="312" y="104"/>
      <point x="274" y="72"/>
      <point x="180" y="72" type="curve" smooth="yes"/>
      <point x="12" y="72" type="line" smooth="yes"/>
      <point x="-10" y="72"/>
      <point x="-22" y="60"/>
      <point x="-22" y="38" type="curve" smooth="yes"/>
      <point x="-22" y="16" type="line" smooth="yes"/>
      <point x="-22" y="6"/>
      <point x="-16" y="0"/>
    </contour>
  </outline>
</glyph>
<glyph name="kehehThreedotsabove-ar.init" format="2">
	<advance width="416" />
	<outline>
		<contour>
			<point x="-24" y="128" type="line" />
			<point x="440" y="128" type="line" />
			<point x="440" y="184" type="line" />
			<point x="-24" y="184" type="line" />
		</contour>
		<contour>
			<point x="88" y="168" type="line" />
			<point x="356" y="168" type="line" />
			<point x="356" y="244" type="line" />
			<point x="224" y="244" type="line" />
			<point x="324" y="352" type="line" />
			<point x="396" y="352" type="line" />
			<point x="396" y="428" type="line" />
			<point x="288" y="428" type="line" />
			<point x="116" y="248" type="line" />
		</contour>
		<contour>
			<point x="208" y="580" type="line" />
			<point x="256" y="580" type="line" />
			<point x="256" y="628" type="line" />
			<point x="208" y="628" type="line" />
		</contour>
		<contour>
			<point x="320" y="580" type="line" />
			<point x="368" y="580" type="line" />
			<point x="368" y="628" type="line" />
			<point x="320" y="628" type="line" />
		</contour>
		<contour>
			<point x="264" y="644" type="line" />
			<point x="312" y="644" type="line" />
			<point x="312" y="692" type="line" />
			<point x="264" y="692" type="line" />
		</contour>
	</outline>
</glyph>
<glyph name="lam_alef-ar" format="2">
  <advance width="600"/>
  <anchor x="482" y="0" name="bottom_1"/>
  <anchor x="162" y="0" name="bottom_2"/>
  <anchor x="326" y="0" name="caret_1"/>
  <anchor x="480" y="798" name="top_1"/>
  <anchor x="68" y="704" name="top_2"/>
  <outline>
    <contour>
      <point x="108" y="0" type="curve"/>
      <point x="340" y="0" type="line" smooth="yes"/>
      <point x="460" y="0"/>
      <point x="504" y="70"/>
      <point x="502" y="148" type="curve" smooth="yes"/>
      <point x="500" y="206"/>
      <point x="450" y="262"/>
      <point x="420" y="302" type="curve" smooth="yes"/>
      <point x="88" y="730" type="line" smooth="yes"/>
      <point x="80" y="742"/>
      <point x="68" y="744"/>
      <point x="58" y="736" type="curve" smooth="yes"/>
      <point x="42" y="722" type="line" smooth="yes"/>
      <point x="34" y="712"/>
      <point x="30" y="698"/>
      <point x="38" y="686" type="curve" smooth="yes"/>
      <point x="382" y="254" type="line" smooth="yes"/>
      <point x="408" y="224"/>
      <point x="440" y="184"/>
      <point x="440" y="148" type="curve" smooth="yes"/>
      <point x="440" y="94"/>
      <point x="402" y="72"/>
      <point x="330" y="72" type="curve" smooth="yes"/>
      <point x="146" y="72" type="line"/>
      <point x="380" y="288" type="line"/>
      <point x="342" y="338" type="line"/>
      <point x="102" y="118" type="line" smooth="yes"/>
      <point x="90" y="108"/>
      <point x="88" y="98"/>
      <point x="88" y="86" type="curve" smooth="yes"/>
      <point x="88" y="28" type="line" smooth="yes"/>
      <point x="88" y="14"/>
      <point x="94" y="4"/>
    </contour>
    <contour>
      <point x="396" y="302" type="line"/>
      <point x="464" y="358"/>
      <point x="508" y="426"/>
      <point x="508" y="528" type="curve" smooth="yes"/>
      <point x="508" y="806" type="line" smooth="yes"/>
      <point x="508" y="820"/>
      <point x="498" y="830"/>
      <point x="486" y="830" type="curve" smooth="yes"/>
      <point x="472" y="830" type="line" smooth="yes"/>
      <point x="458" y="830"/>
      <point x="450" y="820"/>
      <point x="450" y="806" type="curve" smooth="yes"/>
      <point x="450" y="532" type="line" smooth="yes"/>
      <point x="450" y="436"/>
      <point x="400" y="388"/>
      <point x="356" y="350" type="curve"/>
    </contour>
  </outline>
</glyph>
<glyph name="lam_alefHamzabelow-ar.fina" format="2">
	<advance width="600" />
	<outline>
		<contour>
			<point x="192" y="112" type="line" />
			<point x="248" y="112" type="line" />
			<point x="248" y="680" type="line" />
			<point x="192" y="680" type="line" />
		</contour>
		<contour>
			<point x="388" y="112" type="line" />
			<point x="444" y="112" type="line" />
			<point x="444" y="680" type="line" />
			<point x="388" y="680" type="line" />
		</contour>
		<contour>
			<point x="192" y="112" type="line" />
			<point x="444" y="112" type="line" />
			<point x="444" y="196" type="line" />
			<point x="192" y="196" type="line" />
		</contour>
		<contour>
			<point x="248" y="736" type="line" />
			<point x="392" y="736" type="line" />
			<point x="408" y="752" type="line" />
			<point x="408" y="784" type="line" />
			<point x="392" y="800" type="line" />
			<point x="344" y="800" type="line" />
			<point x="320" y="800" type="line" />
			<point x="304" y="816" type="line" />
			<point x="304" y="840" type="line" />
			<point x="400" y="840" type="line" />
			<point x="416" y="856" type="line" />
			<point x="416" y="888" type="line" />
			<point x="400" y="904" type="line" />
			<point x="280" y="904" type="line" />
			<point x="232" y="872" type="line" />
			<point x="232" y="824" type="line" />
			<point x="272" y="792" type="line" />
			<point x="248" y="792" type="line" />
		</contour>
	</outline>
</glyph>
<glyph name="meem-ar.fina" format="2">
  <advance width="600"/>
  <anchor x="306" y="0" name="bottom"/>
  <anchor x="326" y="576" name="top"/>
  <outline>
    <contour>
      <point x="82" y="-328" type="curve" smooth="yes"/>
      <point x="96" y="-328" type="line" smooth="yes"/>
      <point x="108" y="-328"/>
      <point x="116" y="-320"/>
      <point x="116" y="-304" type="curve" smooth="yes"/>
      <point x="116" y="-42" type="line" smooth="yes"/>
      <point x="116" y="16"/>
      <point x="130" y="40"/>
      <point x="180" y="30" type="curve" smooth="yes"/>
      <point x="252" y="14" type="line" smooth="yes"/>
      <point x="364" y="-12"/>
      <point x="422" y="26"/>
      <point x="450" y="106" type="curve"/>
      <point x="486" y="28"/>
      <point x="528" y="0"/>
      <point x="596" y="0" type="curve" smooth="yes"/>
      <point x="614" y="0"/>
      <point x="624" y="12"/>
      <point x="624" y="34" type="curve" smooth="yes"/>
      <point x="624" y="56" type="line" smooth="yes"/>
      <point x="624" y="66"/>
      <point x="618" y="72"/>
      <point x="610" y="72" type="curve" smooth="yes"/>
      <point x="528" y="72"/>
      <point x="502" y="100"/>
      <point x="478" y="190" type="curve" smooth="yes"/>
      <point x="450" y="288"/>
      <point x="410" y="354"/>
      <point x="334" y="354" type="curve" smooth="yes"/>
      <point x="260" y="354"/>
      <point x="172" y="284"/>
      <point x="150" y="102" type="curve"/>
      <point x="100" y="98"/>
      <point x="60" y="52"/>
      <point x="60" y="-48" type="curve" smooth="yes"/>
      <point x="60" y="-304" type="line" smooth="yes"/>
      <point x="60" y="-320"/>
      <point x="70" y="-328"/>
    </contour>
    <contour>
      <point x="320" y="72" type="curve"/>
      <point x="290" y="72"/>
      <point x="254" y="80"/>
      <point x="202" y="94" type="curve"/>
      <point x="216" y="224"/>
      <point x="272" y="284"/>
      <point x="326" y="284" type="curve" smooth="yes"/>
      <point x="376" y="284"/>
      <point x="418" y="238"/>
      <point x="418" y="164" type="curve" smooth="yes"/>
      <point x="418" y="112"/>
      <point x="388" y="74"/>
    </contour>
  </outline>
</glyph>
<glyph name="meem-ar.init" format="2">
  <advance width="600"/>
  <anchor x="374" y="-12" name="bottom"/>
  <anchor x="352" y="580" name="top"/>
  <outline>
    <contour>
      <point x="406" y="-8" type="curve" smooth="yes"/>
      <point x="478" y="-8"/>
      <point x="540" y="42"/>
      <point x="540" y="150" type="curve" smooth="yes"/>
      <point x="540" y="264"/>
      <point x="452" y="356"/>
      <point x="354" y="356" type="curve" smooth="yes"/>
      <point x="284" y="356"/>
      <point x="224" y="326"/>
      <point x="138" y="176" type="curve" smooth="yes"/>
      <point x="84" y="84"/>
      <point x="60" y="72"/>
      <point x="12" y="72" type="curve" smooth="yes"/>
      <point x="-10" y="72"/>
      <point x="-22" y="60"/>
      <point x="-22" y="38" type="curve" smooth="yes"/>
      <point x="-22" y="16" type="line" smooth="yes"/>
      <point x="-22" y="6"/>
      <point x="-16" y="0"/>
      <point x="-6" y="0" type="curve" smooth="yes"/>
      <point x="52" y="0"/>
      <point x="104" y="6"/>
      <point x="160" y="90" type="curve"/>
      <point x="312" y="2"/>
      <point x="340" y="-8"/>
    </contour>
    <contour>
      <point x="408" y="64" type="curve" smooth="yes"/>
      <point x="360" y="64"/>
      <point x="326" y="72"/>
      <point x="198" y="152" type="curve"/>
      <point x="268" y="270"/>
      <point x="302" y="284"/>
      <point x="348" y="284" type="curve" smooth="yes"/>
      <point x="410" y="284"/>
      <point x="474" y="228"/>
      <point x="472" y="144" type="curve" smooth="yes"/>
      <point x="472" y="78"/>
      <point x="442" y="64"/>
    </contour>
  </outline>
</glyph>
<glyph name="meem-ar.medi" format="2">
  <advance width="600"/>
  <anchor x="328" y="-12" name="bottom"/>
  <anchor x="308" y="580" name="top"/>
  <outline>
    <contour>
      <point x="352" y="-8" type="curve" smooth="yes"/>
      <point x="406" y="-8"/>
      <point x="450" y="20"/>
      <point x="468" y="78" type="curve"/>
      <point x="500" y="22"/>
      <point x="540" y="0"/>
      <point x="594" y="0" type="curve" smooth="yes"/>
      <point x="614" y="0"/>
      <point x="626" y="12"/>
      <point x="626" y="34" type="curve" smooth="yes"/>
      <point x="626" y="56" type="line" smooth="yes"/>
      <point x="626" y="66"/>
      <point x="620" y="72"/>
      <point x="610" y="72" type="curve" smooth="yes"/>
      <point x="548" y="72"/>
      <point x="522" y="98"/>
      <point x="484" y="198" type="curve" smooth="yes"/>
      <point x="436" y="318"/>
      <point x="382" y="360"/>
      <point x="310" y="360" type="curve" smooth="yes"/>
      <point x="244" y="360"/>
      <point x="184" y="332"/>
      <point x="106" y="176" type="curve" smooth="yes"/>
      <point x="60" y="86"/>
      <point x="46" y="72"/>
      <point x="10" y="72" type="curve" smooth="yes"/>
      <point x="-10" y="72"/>
      <point x="-20" y="60"/>
      <point x="-20" y="38" type="curve" smooth="yes"/>
      <point x="-20" y="16" type="line" smooth="yes"/>
      <point x="-20" y="6"/>
      <point x="-14" y="0"/>
      <point x="-6" y="0" type="curve" smooth="yes"/>
      <point x="40" y="0"/>
      <point x="84" y="6"/>
      <point x="128" y="90" type="curve"/>
      <point x="258" y="8"/>
      <point x="290" y="-8"/>
    </contour>
    <contour>
      <point x="354" y="62" type="curve" smooth="yes"/>
      <point x="308" y="62"/>
      <point x="284" y="76"/>
      <point x="162" y="150" type="curve"/>
      <point x="232" y="274"/>
      <point x="264" y="292"/>
      <point x="308" y="292" type="curve" smooth="yes"/>
      <point x="366" y="292"/>
      <point x="428" y="214"/>
      <point x="426" y="138" type="curve" smooth="yes"/>
      <point x="426" y="76"/>
      <point x="392" y="62"/>
    </contour>
  </outline>
</glyph>
<glyph name="nine.tf" format="2">
	<advance width="664"/>
	<outline>
		<contour>
			<point x="326" y="760" type="curve"/>
			<point x="158" y="760"/>
			<point x="50" y="660"/>
			<point x="50" y="508" type="curve"/>
			<point x="50" y="360"/>
			<point x="160" y="256"/>
			<point x="306" y="256" type="curve"/>
			<point x="392" y="256"/>
			<point x="452" y="300"/>
			<point x="492" y="344" type="curve"/>
			<point x="500" y="344" type="line"/>
			<point x="500" y="152"/>
			<point x="422" y="72"/>
			<point x="310" y="72" type="curve"/>
			<point x="222" y="72"/>
			<point x="186" y="124"/>
			<point x="178" y="168" type="curve"/>
			<point x="162" y="184" type="line"/>
			<point x="94" y="184" type="line"/>
			<point x="78" y="168" type="line"/>
			<point x="78" y="152" type="line"/>
			<point x="94" y="72"/>
			<point x="162" y="-16"/>
			<point x="310" y="-16" type="curve"/>
			<point x="490" y="-16"/>
			<point x="598" y="124"/>
			<point x="598" y="378" type="curve"/>
			<point x="598" y="660"/>
			<point x="472" y="760"/>
		</contour>
		<contour>
			<point x="314" y="672" type="curve"/>
			<point x="410" y="672"/>
			<point x="478" y="604"/>
			<point x="478" y="508" type="curve"/>
			<point x="478" y="412"/>
			<point x="410" y="344"/>
			<point x="314" y="344" type="curve"/>
			<point x="218" y="344"/>
			<point x="150" y="412"/>
			<point x="150" y="508" type="curve"/>
			<point x="150" y="604"/>
			<point x="218" y="672"/>
		</contour>
	</outline>
</glyph>
<glyph name="one.tf" format="2">
	<advance width="664"/>
	<outline>
		<contour>
			<point x="120" y="0" type="line"/>
			<point x="544" y="0" type="line"/>
			<point x="560" y="16" type="line"/>
			<point x="560" y="72" type="line"/>
			<point x="544" y="88" type="line"/>
			<point x="390" y="88" type="line"/>
			<point x="382" y="96" type="line"/>
			<point x="382" y="728" type="line"/>
			<point x="366" y="744" type="line"/>
			<point x="314" y="744" type="line"/>
			<point x="298" y="728" type="line"/>
			<point x="282" y="644"/>
			<point x="206" y="608"/>
			<point x="142" y="608" type="curve"/>
			<point x="126" y="592" type="line"/>
			<point x="126" y="552" type="line"/>
			<point x="142" y="536" type="line"/>
			<point x="274" y="536" type="line"/>
			<point x="282" y="528" type="line"/>
			<point x="282" y="96" type="line"/>
			<point x="274" y="88" type="line"/>
			<point x="120" y="88" type="line"/>
			<point x="104" y="72" type="line"/>
			<point x="104" y="16" type="line"/>
		</contour>
	</outline>
</glyph>
<glyph name="qafDotless-ar.fina" format="2">
  <advance width="600"/>
  <anchor x="290" y="-250" name="bottom"/>
  <anchor x="418" y="576" name="top"/>
  <anchor x="424" y="334" name="topDots"/>
  <outline>
    <contour>
      <point x="256" y="-272" type="curve" smooth="yes"/>
      <point x="314" y="-272" type="line" smooth="yes"/>
      <point x="482" y="-272"/>
      <point x="528" y="-124"/>
      <point x="538" y="0" type="curve"/>
      <point x="596" y="0" type="line" smooth="yes"/>
      <point x="610" y="0"/>
      <point x="618" y="12"/>
      <point x="618" y="34" type="curve" smooth="yes"/>
      <point x="618" y="56" type="line" smooth="yes"/>
      <point x="618" y="66"/>
      <point x="614" y="72"/>
      <point x="608" y="72" type="curve" smooth="yes"/>
      <point x="542" y="72" type="line"/>
      <point x="542" y="226"/>
      <point x="516" y="338"/>
      <point x="424" y="338" type="curve" smooth="yes"/>
      <point x="352" y="338"/>
      <point x="310" y="262"/>
      <point x="310" y="168" type="curve" smooth="yes"/>
      <point x="310" y="60"/>
      <point x="362" y="2"/>
      <point x="450" y="2" type="curve" smooth="yes"/>
      <point x="502" y="2" type="line"/>
      <point x="488" y="-96"/>
      <point x="448" y="-200"/>
      <point x="314" y="-200" type="curve" smooth="yes"/>
      <point x="260" y="-200" type="line" smooth="yes"/>
      <point x="150" y="-200"/>
      <point x="86" y="-120"/>
      <point x="86" y="12" type="curve" smooth="yes"/>
      <point x="86" y="58"/>
      <point x="98" y="114"/>
      <point x="114" y="168" type="curve" smooth="yes"/>
      <point x="120" y="184"/>
      <point x="122" y="196"/>
      <point x="114" y="200" type="curve" smooth="yes"/>
      <point x="98" y="210" type="line" smooth="yes"/>
      <point x="90" y="214"/>
      <point x="84" y="210"/>
      <point x="80" y="202" type="curve" smooth="yes"/>
      <point x="56" y="138"/>
      <point x="44" y="58"/>
      <point x="44" y="6" type="curve" smooth="yes"/>
      <point x="44" y="-174"/>
      <point x="126" y="-272"/>
    </contour>
    <contour>
      <point x="452" y="72" type="line" smooth="yes"/>
      <point x="384" y="72"/>
      <point x="348" y="104"/>
      <point x="348" y="170" type="curve" smooth="yes"/>
      <point x="348" y="216"/>
      <point x="368" y="272"/>
      <point x="420" y="272" type="curve" smooth="yes"/>
      <point x="480" y="272"/>
      <point x="504" y="198"/>
      <point x="504" y="72" type="curve"/>
    </contour>
  </outline>
</glyph>
<glyph name="qafThreedotsabove-ar.init" format="2">
  <advance width="600"/>
  <outline>
    <contour>
      <point x="-24" y="128" type="line"/>
      <point x="624" y="128" type="line"/>
      <point x="624" y="184" type="line"/>
      <point x="-24" y="184" type="line"/>
    </contour>
    <contour>
      <point x="224" y="296" type="line"/>
      <point x="164" y="208" type="line"/>
      <point x="232" y="152" type="line"/>
      <point x="420" y="152" type="line"/>
      <point x="468" y="220" type="line"/>
      <point x="388" y="296" type="line"/>
    </contour>
    <contour>
      <point x="220" y="580" type="line"/>
      <point x="268" y="580" type="line"/>
      <point x="268" y="628" type="line"/>
      <point x="220" y="628" type="line"/>
    </contour>
    <contour>
      <point x="332" y="580" type="line"/>
      <point x="380" y="580" type="line"/>
      <point x="380" y="628" type="line"/>
      <point x="332" y="628" type="line"/>
    </contour>
    <contour>
      <point x="276" y="644" type="line"/>
      <point x="324" y="644" type="line"/>
      <point x="324" y="692" type="line"/>
      <point x="276" y="692" type="line"/>
    </contour>
  </outline>
</glyph>
<glyph name="sad-ar.fina" format="2">
  <advance width="600"/>
  <anchor x="376" y="0" name="bottom"/>
  <anchor x="316" y="576" name="top"/>
  <anchor x="436" y="378" name="topDots"/>
  <outline>
    <contour>
      <point x="598" y="0" type="curve" smooth="yes"/>
      <point x="606" y="0"/>
      <point x="612" y="12"/>
      <point x="612" y="34" type="curve" smooth="yes"/>
      <point x="612" y="56" type="line" smooth="yes"/>
      <point x="612" y="66"/>
      <point x="608" y="72"/>
      <point x="604" y="72" type="curve" smooth="yes"/>
      <point x="556" y="72"/>
      <point x="538" y="78"/>
      <point x="518" y="94" type="curve"/>
      <point x="488" y="40" type="line"/>
      <point x="514" y="14"/>
      <point x="542" y="0"/>
    </contour>
    <contour>
      <point x="146" y="-246" type="curve" smooth="yes"/>
      <point x="236" y="-246"/>
      <point x="274" y="-96"/>
      <point x="274" y="46" type="curve"/>
      <point x="292" y="6"/>
      <point x="312" y="0"/>
      <point x="404" y="0" type="curve" smooth="yes"/>
      <point x="506" y="0"/>
      <point x="554" y="56"/>
      <point x="554" y="222" type="curve" smooth="yes"/>
      <point x="554" y="322"/>
      <point x="524" y="406"/>
      <point x="472" y="406" type="curve" smooth="yes"/>
      <point x="406" y="406"/>
      <point x="346" y="302"/>
      <point x="310" y="76" type="curve"/>
      <point x="286" y="86"/>
      <point x="278" y="112"/>
      <point x="270" y="178" type="curve" smooth="yes"/>
      <point x="262" y="254" type="line" smooth="yes"/>
      <point x="260" y="270"/>
      <point x="258" y="276"/>
      <point x="248" y="272" type="curve" smooth="yes"/>
      <point x="240" y="266" type="line" smooth="yes"/>
      <point x="236" y="262"/>
      <point x="234" y="252"/>
      <point x="234" y="238" type="curve" smooth="yes"/>
      <point x="244" y="142"/>
      <point x="248" y="118"/>
      <point x="248" y="58" type="curve" smooth="yes"/>
      <point x="248" y="-78"/>
      <point x="216" y="-172"/>
      <point x="146" y="-172" type="curve" smooth="yes"/>
      <point x="84" y="-172"/>
      <point x="58" y="-78"/>
      <point x="58" y="34" type="curve" smooth="yes"/>
      <point x="58" y="76"/>
      <point x="60" y="122"/>
      <point x="68" y="170" type="curve" smooth="yes"/>
      <point x="70" y="184"/>
      <point x="68" y="192"/>
      <point x="62" y="198" type="curve" smooth="yes"/>
      <point x="52" y="204" type="line" smooth="yes"/>
      <point x="44" y="210"/>
      <point x="42" y="192"/>
      <point x="40" y="176" type="curve" smooth="yes"/>
      <point x="28" y="112"/>
      <point x="28" y="68"/>
      <point x="28" y="18" type="curve" smooth="yes"/>
      <point x="30" y="-106"/>
      <point x="66" y="-246"/>
    </contour>
    <contour>
      <point x="336" y="72" type="line"/>
      <point x="362" y="226"/>
      <point x="410" y="338"/>
      <point x="464" y="338" type="curve" smooth="yes"/>
      <point x="504" y="338"/>
      <point x="526" y="280"/>
      <point x="526" y="210" type="curve" smooth="yes"/>
      <point x="526" y="120"/>
      <point x="488" y="72"/>
      <point x="424" y="72" type="curve" smooth="yes"/>
    </contour>
  </outline>
</glyph>
<glyph name="sad-ar.init" format="2">
  <advance width="600"/>
  <anchor x="322" y="0" name="bottom"/>
  <anchor x="276" y="576" name="top"/>
  <anchor x="402" y="382" name="topDots"/>
  <outline>
    <contour>
      <point x="4" y="0" type="curve" smooth="yes"/>
      <point x="58" y="0"/>
      <point x="98" y="28"/>
      <point x="110" y="108" type="curve"/>
      <point x="130" y="26"/>
      <point x="174" y="0"/>
      <point x="238" y="0" type="curve" smooth="yes"/>
      <point x="346" y="0" type="line" smooth="yes"/>
      <point x="470" y="0"/>
      <point x="556" y="56"/>
      <point x="556" y="222" type="curve" smooth="yes"/>
      <point x="556" y="322"/>
      <point x="512" y="406"/>
      <point x="430" y="406" type="curve" smooth="yes"/>
      <point x="328" y="406"/>
      <point x="230" y="300"/>
      <point x="176" y="66" type="curve"/>
      <point x="214" y="54" type="line"/>
      <point x="256" y="218"/>
      <point x="330" y="338"/>
      <point x="418" y="338" type="curve" smooth="yes"/>
      <point x="482" y="338"/>
      <point x="514" y="280"/>
      <point x="514" y="210" type="curve" smooth="yes"/>
      <point x="514" y="120"/>
      <point x="456" y="72"/>
      <point x="356" y="72" type="curve" smooth="yes"/>
      <point x="236" y="72" type="line" smooth="yes"/>
      <point x="164" y="72"/>
      <point x="138" y="110"/>
      <point x="138" y="202" type="curve" smooth="yes"/>
      <point x="138" y="282" type="line" smooth="yes"/>
      <point x="138" y="296"/>
      <point x="132" y="304"/>
      <point x="122" y="304" type="curve" smooth="yes"/>
      <point x="108" y="304" type="line" smooth="yes"/>
      <point x="98" y="304"/>
      <point x="94" y="296"/>
      <point x="94" y="282" type="curve" smooth="yes"/>
      <point x="94" y="202" type="line" smooth="yes"/>
      <point x="94" y="90"/>
      <point x="80" y="72"/>
      <point x="8" y="72" type="curve" smooth="yes"/>
      <point x="-6" y="72"/>
      <point x="-14" y="70"/>
      <point x="-14" y="50" type="curve" smooth="yes"/>
      <point x="-14" y="28" type="line" smooth="yes"/>
      <point x="-14" y="2"/>
      <point x="-8" y="0"/>
    </contour>
  </outline>
</glyph>
<glyph name="sad-ar.medi" format="2">
  <advance width="600"/>
  <anchor x="308" y="0" name="bottom"/>
  <anchor x="264" y="576" name="top"/>
  <anchor x="384" y="382" name="topDots"/>
  <outline>
    <contour>
      <point x="596" y="0" type="curve" smooth="yes"/>
      <point x="610" y="0"/>
      <point x="618" y="12"/>
      <point x="618" y="34" type="curve" smooth="yes"/>
      <point x="618" y="56" type="line" smooth="yes"/>
      <point x="618" y="66"/>
      <point x="614" y="72"/>
      <point x="606" y="72" type="curve" smooth="yes"/>
      <point x="546" y="72"/>
      <point x="520" y="78"/>
      <point x="490" y="94" type="curve"/>
      <point x="448" y="40" type="line"/>
      <point x="486" y="14"/>
      <point x="526" y="0"/>
    </contour>
    <contour>
      <point x="4" y="0" type="curve" smooth="yes"/>
      <point x="56" y="0"/>
      <point x="94" y="28"/>
      <point x="106" y="108" type="curve"/>
      <point x="124" y="26"/>
      <point x="166" y="0"/>
      <point x="228" y="0" type="curve" smooth="yes"/>
      <point x="330" y="0" type="line" smooth="yes"/>
      <point x="448" y="0"/>
      <point x="532" y="56"/>
      <point x="532" y="222" type="curve" smooth="yes"/>
      <point x="532" y="322"/>
      <point x="488" y="406"/>
      <point x="410" y="406" type="curve" smooth="yes"/>
      <point x="314" y="406"/>
      <point x="220" y="300"/>
      <point x="168" y="66" type="curve"/>
      <point x="204" y="54" type="line"/>
      <point x="244" y="218"/>
      <point x="316" y="338"/>
      <point x="400" y="338" type="curve" smooth="yes"/>
      <point x="458" y="338"/>
      <point x="490" y="280"/>
      <point x="490" y="210" type="curve" smooth="yes"/>
      <point x="490" y="120"/>
      <point x="434" y="72"/>
      <point x="340" y="72" type="curve" smooth="yes"/>
      <point x="226" y="72" type="line" smooth="yes"/>
      <point x="156" y="72"/>
      <point x="130" y="110"/>
      <point x="130" y="202" type="curve" smooth="yes"/>
      <point x="130" y="282" type="line" smooth="yes"/>
      <point x="130" y="296"/>
      <point x="126" y="304"/>
      <point x="116" y="304" type="curve" smooth="yes"/>
      <point x="104" y="304" type="line" smooth="yes"/>
      <point x="94" y="304"/>
      <point x="90" y="296"/>
      <point x="90" y="282" type="curve" smooth="yes"/>
      <point x="90" y="202" type="line" smooth="yes"/>
      <point x="90" y="90"/>
      <point x="76" y="72"/>
      <point x="6" y="72" type="curve" smooth="yes"/>
      <point x="-6" y="72"/>
      <point x="-14" y="70"/>
      <point x="-14" y="50" type="curve" smooth="yes"/>
      <point x="-14" y="28" type="line" smooth="yes"/>
      <point x="-14" y="2"/>
      <point x="-6" y="0"/>
    </contour>
  </outline>
</glyph>
<glyph name="seen-ar.medi" format="2">
  <advance width="600"/>
  <anchor x="296" y="0" name="bottom"/>
  <anchor x="300" y="576" name="top"/>
  <anchor x="300" y="304" name="topDots"/>
  <outline>
    <contour>
      <point x="210" y="-6" type="curve" smooth="yes"/>
      <point x="252" y="-6"/>
      <point x="284" y="18"/>
      <point x="296" y="70" type="curve"/>
      <point x="314" y="18"/>
      <point x="344" y="-6"/>
      <point x="392" y="-6" type="curve" smooth="yes"/>
      <point x="432" y="-6"/>
      <point x="466" y="18"/>
      <point x="478" y="70" type="curve"/>
      <point x="498" y="22"/>
      <point x="538" y="0"/>
      <point x="596" y="0" type="curve" smooth="yes"/>
      <point x="610" y="0"/>
      <point x="618" y="12"/>
      <point x="618" y="34" type="curve" smooth="yes"/>
      <point x="618" y="56" type="line" smooth="yes"/>
      <point x="618" y="66"/>
      <point x="614" y="72"/>
      <point x="606" y="72" type="curve" smooth="yes"/>
      <point x="592" y="72" type="line" smooth="yes"/>
      <point x="526" y="72"/>
      <point x="502" y="104"/>
      <point x="502" y="188" type="curve" smooth="yes"/>
      <point x="502" y="280" type="line" smooth="yes"/>
      <point x="502" y="294"/>
      <point x="498" y="304"/>
      <point x="488" y="304" type="curve" smooth="yes"/>
      <point x="474" y="304" type="line" smooth="yes"/>
      <point x="466" y="304"/>
      <point x="460" y="294"/>
      <point x="460" y="280" type="curve" smooth="yes"/>
      <point x="460" y="188" type="line" smooth="yes"/>
      <point x="460" y="108"/>
      <point x="446" y="66"/>
      <point x="392" y="66" type="curve" smooth="yes"/>
      <point x="340" y="66"/>
      <point x="320" y="98"/>
      <point x="320" y="188" type="curve" smooth="yes"/>
      <point x="320" y="280" type="line" smooth="yes"/>
      <point x="320" y="294"/>
      <point x="316" y="304"/>
      <point x="306" y="304" type="curve" smooth="yes"/>
      <point x="294" y="304" type="line" smooth="yes"/>
      <point x="284" y="304"/>
      <point x="280" y="294"/>
      <point x="280" y="280" type="curve" smooth="yes"/>
      <point x="280" y="188" type="line" smooth="yes"/>
      <point x="280" y="108"/>
      <point x="264" y="66"/>
      <point x="210" y="66" type="curve" smooth="yes"/>
      <point x="170" y="66"/>
      <point x="140" y="92"/>
      <point x="140" y="188" type="curve" smooth="yes"/>
      <point x="140" y="282" type="line" smooth="yes"/>
      <point x="140" y="296"/>
      <point x="134" y="304"/>
      <point x="126" y="304" type="curve" smooth="yes"/>
      <point x="112" y="304" type="line" smooth="yes"/>
      <point x="102" y="304"/>
      <point x="98" y="296"/>
      <point x="98" y="282" type="curve" smooth="yes"/>
      <point x="98" y="188" type="line" smooth="yes"/>
      <point x="98" y="98"/>
      <point x="74" y="72"/>
      <point x="6" y="72" type="curve" smooth="yes"/>
      <point x="-6" y="72"/>
      <point x="-14" y="60"/>
      <point x="-14" y="38" type="curve" smooth="yes"/>
      <point x="-14" y="18" type="line" smooth="yes"/>
      <point x="-14" y="6"/>
      <point x="-10" y="0"/>
      <point x="-4" y="0" type="curve" smooth="yes"/>
      <point x="48" y="0"/>
      <point x="94" y="22"/>
      <point x="116" y="96" type="curve"/>
      <point x="138" y="6"/>
      <point x="180" y="-6"/>
    </contour>
  </outline>
</glyph>
<glyph name="seenSixdots-ar.init" format="2">
	<advance width="600" />
	<outline>
		<contour>
			<point x="-24" y="128" type="line" />
			<point x="624" y="128" type="line" />
			<point x="624" y="184" type="line" />
			<point x="-24" y="184" type="line" />
		</contour>
		<contour>
			<point x="112" y="184" type="line" />
			<point x="168" y="184" type="line" />
			<point x="168" y="300" type="line" />
			<point x="112" y="300" type="line" />
		</contour>
		<contour>
			<point x="244" y="184" type="line" />
			<point x="300" y="184" type="line" />
			<point x="300" y="300" type="line" />
			<point x="244" y="300" type="line" />
		</contour>
		<contour>
			<point x="376" y="184" type="line" />
			<point x="432" y="184" type="line" />
			<point x="432" y="300" type="line" />
			<point x="376" y="300" type="line" />
		</contour>
		<contour>
			<point x="220" y="580" type="line" />
			<point x="268" y="580" type="line" />
			<point x="268" y="628" type="line" />
			<point x="220" y="628" type="line" />
		</contour>
		<contour>
			<point x="332" y="580" type="line" />
			<point x="380" y="580" type="line" />
			<point x="380" y="628" type="line" />
			<point x="332" y="628" type="line" />
		</contour>
		<contour>
			<point x="276" y="644" type="line" />
			<point x="324" y="644" type="line" />
			<point x="324" y="692" type="line" />
			<point x="276" y="692" type="line" />
		</contour>
		<contour>
			<point x="220" y="-112" type="line" />
			<point x="268" y="-112" type="line" />
			<point x="268" y="-64" type="line" />
			<point x="220" y="-64" type="line" />
		</contour>
		<contour>
			<point x="332" y="-112" type="line" />
			<point x="380" y="-112" type="line" />
			<point x="380" y="-64" type="line" />
			<point x="332" y="-64" type="line" />
		</contour>
		<contour>
			<point x="276" y="-176" type="line" />
			<point x="324" y="-176" type="line" />
			<point x="324" y="-128" type="line" />
			<point x="276" y="-128" type="line" />
		</contour>
	</outline>
</glyph>
<glyph name="seven.tf" format="2">
	<advance width="664"/>
	<outline>
		<contour>
			<point x="210" y="0" type="line"/>
			<point x="282" y="0" type="line"/>
			<point x="298" y="16" type="line"/>
			<point x="308" y="274"/>
			<point x="398" y="522"/>
			<point x="590" y="672" type="curve"/>
			<point x="590" y="728" type="line"/>
			<point x="574" y="744" type="line"/>
			<point x="109" y="744" type="line"/>
			<point x="93" y="728" type="line"/>
			<point x="93" y="672" type="line"/>
			<point x="109" y="656" type="line"/>
			<point x="468" y="656" type="line"/>
			<point x="468" y="648" type="line"/>
			<point x="332" y="530"/>
			<point x="194" y="294"/>
			<point x="194" y="16" type="curve"/>
		</contour>
	</outline>
</glyph>
<glyph name="shaddaAlefabove-ar" format="2">
	<advance width="0" />
	<outline>
		<contour>
			<point x="180" y="612" type="line" />
			<point x="228" y="612" type="line" />
			<point x="268" y="724" type="line" />
			<point x="308" y="612" type="line" />
			<point x="356" y="612" type="line" />
			<point x="308" y="796" type="line" />
			<point x="268" y="796" type="line" />
		</contour>
		<contour>
			<point x="388" y="612" type="line" />
			<point x="444" y="612" type="line" />
			<point x="444" y="832" type="line" />
			<point x="388" y="832" type="line" />
		</contour>
	</outline>
</glyph>
<glyph name="shaddaDammatan-ar" format="2">
	<advance width="0" />
	<outline>
		<contour>
			<point x="180" y="612" type="line" />
			<point x="228" y="612" type="line" />
			<point x="268" y="724" type="line" />
			<point x="308" y="612" type="line" />
			<point x="356" y="612" type="line" />
			<point x="308" y="796" type="line" />
			<point x="268" y="796" type="line" />
		</contour>
		<contour>
			<point x="415" y="715" type="line" />
			<point x="449" y="715" type="line" />
			<point x="449" y="749" type="line" />
			<point x="415" y="749" type="line" />
		</contour>
	</outline>
</glyph>
<glyph name="shaddaFathatan-ar" format="2">
	<advance width="0" />
	<outline>
		<contour>
			<point x="180" y="612" type="line" />
			<point x="228" y="612" type="line" />
			<point x="268" y="724" type="line" />
			<point x="308" y="612" type="line" />
			<point x="356" y="612" type="line" />
			<point x="308" y="796" type="line" />
			<point x="268" y="796" type="line" />
		</contour>
		<contour>
			<point x="372" y="808" type="line" />
			<point x="552" y="808" type="line" />
			<point x="552" y="836" type="line" />
			<point x="372" y="836" type="line" />
		</contour>
		<contour>
			<point x="372" y="856" type="line" />
			<point x="552" y="856" type="line" />
			<point x="552" y="884" type="line" />
			<point x="372" y="884" type="line" />
		</contour>
	</outline>
</glyph>
<glyph name="shaddaKasra-ar" format="2">
	<advance width="0" />
	<outline>
		<contour>
			<point x="180" y="612" type="line" />
			<point x="228" y="612" type="line" />
			<point x="268" y="724" type="line" />
			<point x="308" y="612" type="line" />
			<point x="356" y="612" type="line" />
			<point x="308" y="796" type="line" />
			<point x="268" y="796" type="line" />
		</contour>
		<contour>
			<point x="372" y="552" type="line" />
			<point x="552" y="552" type="line" />
			<point x="552" y="580" type="line" />
			<point x="372" y="580" type="line" />
		</contour>
	</outline>
</glyph>
<glyph name="six.tf" format="2">
	<advance width="664"/>
	<outline>
		<contour>
			<point x="334" y="-16" type="curve"/>
			<point x="502" y="-16"/>
			<point x="610" y="84"/>
			<point x="610" y="236" type="curve"/>
			<point x="610" y="384"/>
			<point x="500" y="488"/>
			<point x="354" y="488" type="curve"/>
			<point x="268" y="488"/>
			<point x="208" y="444"/>
			<point x="168" y="400" type="curve"/>
			<point x="160" y="400" type="line"/>
			<point x="160" y="592"/>
			<point x="238" y="672"/>
			<point x="350" y="672" type="curve"/>
			<point x="438" y="672"/>
			<point x="474" y="620"/>
			<point x="482" y="576" type="curve"/>
			<point x="498" y="560" type="line"/>
			<point x="566" y="560" type="line"/>
			<point x="582" y="576" type="line"/>
			<point x="582" y="592" type="line"/>
			<point x="566" y="672"/>
			<point x="498" y="760"/>
			<point x="350" y="760" type="curve"/>
			<point x="170" y="760"/>
			<point x="62" y="620"/>
			<point x="62" y="366" type="curve"/>
			<point x="62" y="84"/>
			<point x="188" y="-16"/>
		</contour>
		<contour>
			<point x="346" y="72" type="curve"/>
			<point x="250" y="72"/>
			<point x="182" y="140"/>
			<point x="182" y="236" type="curve"/>
			<point x="182" y="332"/>
			<point x="250" y="400"/>
			<point x="346" y="400" type="curve"/>
			<point x="442" y="400"/>
			<point x="510" y="332"/>
			<point x="510" y="236" type="curve"/>
			<point x="510" y="140"/>
			<point x="442" y="72"/>
		</contour>
	</outline>
</glyph>
<glyph name="tah-ar.fina" format="2">
  <advance width="600"/>
  <anchor x="288" y="0" name="bottom"/>
  <anchor x="352" y="576" name="top"/>
  <anchor x="336" y="392" name="topDots"/>
  <outline>
    <contour>
      <point x="596" y="0" type="curve" smooth="yes"/>
      <point x="612" y="0"/>
      <point x="620" y="12"/>
      <point x="620" y="34" type="curve" smooth="yes"/>
      <point x="620" y="56" type="line" smooth="yes"/>
      <point x="620" y="66"/>
      <point x="616" y="72"/>
      <point x="608" y="72" type="curve" smooth="yes"/>
      <point x="538" y="72"/>
      <point x="508" y="78"/>
      <point x="474" y="94" type="curve"/>
      <point x="424" y="40" type="line"/>
      <point x="468" y="14"/>
      <point x="514" y="0"/>
    </contour>
    <contour>
      <point x="60" y="0" type="curve" smooth="yes"/>
      <point x="288" y="0" type="line" smooth="yes"/>
      <point x="426" y="0"/>
      <point x="520" y="56"/>
      <point x="520" y="222" type="curve" smooth="yes"/>
      <point x="520" y="322"/>
      <point x="470" y="406"/>
      <point x="380" y="406" type="curve" smooth="yes"/>
      <point x="272" y="406"/>
      <point x="170" y="302"/>
      <point x="110" y="72" type="curve"/>
      <point x="52" y="72" type="line" smooth="yes"/>
      <point x="46" y="72"/>
      <point x="38" y="70"/>
      <point x="40" y="56" type="curve" smooth="yes"/>
      <point x="44" y="16" type="line" smooth="yes"/>
      <point x="46" y="4"/>
      <point x="52" y="0"/>
    </contour>
    <contour>
      <point x="152" y="72" type="line"/>
      <point x="198" y="226"/>
      <point x="274" y="338"/>
      <point x="368" y="338" type="curve" smooth="yes"/>
      <point x="438" y="338"/>
      <point x="472" y="280"/>
      <point x="472" y="210" type="curve" smooth="yes"/>
      <point x="472" y="120"/>
      <point x="410" y="72"/>
      <point x="300" y="72" type="curve" smooth="yes"/>
    </contour>
    <contour>
      <point x="106" y="54" type="line"/>
      <point x="148" y="120" type="line"/>
      <point x="152" y="190"/>
      <point x="154" y="262"/>
      <point x="154" y="332" type="curve" smooth="yes"/>
      <point x="154" y="806" type="line" smooth="yes"/>
      <point x="154" y="820"/>
      <point x="148" y="830"/>
      <point x="136" y="830" type="curve" smooth="yes"/>
      <point x="124" y="830" type="line" smooth="yes"/>
      <point x="114" y="830"/>
      <point x="106" y="820"/>
      <point x="106" y="806" type="curve" smooth="yes"/>
    </contour>
  </outline>
</glyph>
<glyph name="tah-ar.init" format="2">
  <advance width="600"/>
  <anchor x="306" y="0" name="bottom"/>
  <anchor x="332" y="576" name="top"/>
  <anchor x="350" y="392" name="topDots"/>
  <outline>
    <contour>
      <point x="-4" y="0" type="curve" smooth="yes"/>
      <point x="300" y="0" type="line" smooth="yes"/>
      <point x="446" y="0"/>
      <point x="548" y="56"/>
      <point x="548" y="222" type="curve" smooth="yes"/>
      <point x="548" y="322"/>
      <point x="496" y="406"/>
      <point x="398" y="406" type="curve" smooth="yes"/>
      <point x="282" y="406"/>
      <point x="172" y="302"/>
      <point x="108" y="72" type="curve"/>
      <point x="-4" y="72" type="line" smooth="yes"/>
      <point x="-12" y="72"/>
      <point x="-18" y="64"/>
      <point x="-18" y="56" type="curve" smooth="yes"/>
      <point x="-18" y="16" type="line" smooth="yes"/>
      <point x="-18" y="8"/>
      <point x="-12" y="0"/>
    </contour>
    <contour>
      <point x="152" y="72" type="line"/>
      <point x="202" y="226"/>
      <point x="284" y="338"/>
      <point x="384" y="338" type="curve" smooth="yes"/>
      <point x="460" y="338"/>
      <point x="498" y="280"/>
      <point x="498" y="210" type="curve" smooth="yes"/>
      <point x="498" y="120"/>
      <point x="430" y="72"/>
      <point x="312" y="72" type="curve" smooth="yes"/>
    </contour>
    <contour>
      <point x="106" y="54" type="line"/>
      <point x="154" y="120" type="line"/>
      <point x="158" y="190"/>
      <point x="158" y="262"/>
      <point x="158" y="332" type="curve" smooth="yes"/>
      <point x="158" y="806" type="line" smooth="yes"/>
      <point x="158" y="820"/>
      <point x="150" y="830"/>
      <point x="138" y="830" type="curve" smooth="yes"/>
      <point x="126" y="830" type="line" smooth="yes"/>
      <point x="116" y="830"/>
      <point x="106" y="820"/>
      <point x="106" y="806" type="curve" smooth="yes"/>
    </contour>
  </outline>
</glyph>
<glyph name="tah-ar.medi" format="2">
  <advance width="600"/>
  <anchor x="290" y="0" name="bottom"/>
  <anchor x="314" y="576" name="top"/>
  <anchor x="332" y="392" name="topDots"/>
  <outline>
    <contour>
      <point x="596" y="0" type="curve" smooth="yes"/>
      <point x="612" y="0"/>
      <point x="620" y="12"/>
      <point x="620" y="34" type="curve" smooth="yes"/>
      <point x="620" y="56" type="line" smooth="yes"/>
      <point x="620" y="66"/>
      <point x="616" y="72"/>
      <point x="608" y="72" type="curve" smooth="yes"/>
      <point x="538" y="72"/>
      <point x="506" y="78"/>
      <point x="472" y="94" type="curve"/>
      <point x="420" y="40" type="line"/>
      <point x="466" y="14"/>
      <point x="514" y="0"/>
    </contour>
    <contour>
      <point x="-4" y="0" type="curve" smooth="yes"/>
      <point x="284" y="0" type="line" smooth="yes"/>
      <point x="422" y="0"/>
      <point x="520" y="56"/>
      <point x="520" y="222" type="curve" smooth="yes"/>
      <point x="520" y="322"/>
      <point x="468" y="406"/>
      <point x="376" y="406" type="curve" smooth="yes"/>
      <point x="268" y="406"/>
      <point x="162" y="302"/>
      <point x="102" y="72" type="curve"/>
      <point x="-4" y="72" type="line" smooth="yes"/>
      <point x="-10" y="72"/>
      <point x="-16" y="64"/>
      <point x="-16" y="56" type="curve" smooth="yes"/>
      <point x="-16" y="16" type="line" smooth="yes"/>
      <point x="-16" y="8"/>
      <point x="-10" y="0"/>
    </contour>
    <contour>
      <point x="144" y="72" type="line"/>
      <point x="192" y="226"/>
      <point x="268" y="338"/>
      <point x="364" y="338" type="curve" smooth="yes"/>
      <point x="434" y="338"/>
      <point x="470" y="280"/>
      <point x="470" y="210" type="curve" smooth="yes"/>
      <point x="470" y="120"/>
      <point x="406" y="72"/>
      <point x="296" y="72" type="curve" smooth="yes"/>
    </contour>
    <contour>
      <point x="100" y="54" type="line"/>
      <point x="146" y="120" type="line"/>
      <point x="150" y="190"/>
      <point x="150" y="262"/>
      <point x="150" y="332" type="curve" smooth="yes"/>
      <point x="150" y="806" type="line" smooth="yes"/>
      <point x="150" y="820"/>
      <point x="142" y="830"/>
      <point x="130" y="830" type="curve" smooth="yes"/>
      <point x="120" y="830" type="line" smooth="yes"/>
      <point x="110" y="830"/>
      <point x="100" y="820"/>
      <point x="100" y="806" type="curve" smooth="yes"/>
    </contour>
  </outline>
</glyph>
<glyph name="tcheh-ar.fina" format="2">
	<advance width="600" />
	<outline>
		<contour>
			<point x="104" y="176" type="line" />
			<point x="180" y="128" type="line" />
			<point x="440" y="128" type="line" />
			<point x="520" y="204" type="line" />
			<point x="508" y="336" type="line" />
			<point x="420" y="420" type="line" />
			<point x="232" y="420" type="line" />
			<point x="152" y="352" type="line" />
			<point x="196" y="292" type="line" />
			<point x="356" y="292" type="line" />
			<point x="412" y="248" type="line" />
			<point x="376" y="216" type="line" />
			<point x="184" y="216" type="line" />
		</contour>
		<contour>
			<point x="220" y="-112" type="line" />
			<point x="268" y="-112" type="line" />
			<point x="268" y="-64" type="line" />
			<point x="220" y="-64" type="line" />
		</contour>
		<contour>
			<point x="332" y="-112" type="line" />
			<point x="380" y="-112" type="line" />
			<point x="380" y="-64" type="line" />
			<point x="332" y="-64" type="line" />
		</contour>
		<contour>
			<point x="276" y="-176" type="line" />
			<point x="324" y="-176" type="line" />
			<point x="324" y="-128" type="line" />
			<point x="276" y="-128" type="line" />
		</contour>
	</outline>
</glyph>
<glyph name="tehMarbutaGoal-ar.fina" format="2">
	<advance width="528" />
	<outline>
		<contour>
			<point x="104" y="176" type="line" />
			<point x="176" y="112" type="line" />
			<point x="360" y="112" type="line" />
			<point x="464" y="196" type="line" />
			<point x="464" y="328" type="line" />
			<point x="392" y="408" type="line" />
			<point x="272" y="408" type="line" />
			<point x="208" y="344" type="line" />
			<point x="236" y="288" type="line" />
			<point x="344" y="288" type="line" />
			<point x="376" y="236" type="line" />
			<point x="332" y="192" type="line" />
			<point x="184" y="192" type="line" />
		</contour>
		<contour>
			<point x="192" y="524" type="line" />
			<point x="240" y="524" type="line" />
			<point x="240" y="572" type="line" />
			<point x="192" y="572" type="line" />
		</contour>
		<contour>
			<point x="288" y="524" type="line" />
			<point x="336" y="524" type="line" />
			<point x="336" y="572" type="line" />
			<point x="288" y="572" type="line" />
		</contour>
	</outline>
</glyph>
<glyph name="tehRing-ar.fina" format="2">
  <advance width="600"/>
  <outline>
    <contour>
      <point x="88" y="192" type="line"/>
      <point x="132" y="128" type="line"/>
      <point x="452" y="128" type="line"/>
      <point x="520" y="192" type="line"/>
      <point x="520" y="332" type="line"/>
      <point x="440" y="252" type="line"/>
      <point x="176" y="252" type="line"/>
      <point x="88" y="332" type="line"/>
    </contour>
    <contour>
      <point x="300" y="668" type="line"/>
      <point x="240" y="608" type="line"/>
      <point x="300" y="548" type="line"/>
      <point x="360" y="608" type="line"/>
    </contour>
    <contour>
      <point x="300" y="638" type="line"/>
      <point x="330" y="608" type="line"/>
      <point x="300" y="578" type="line"/>
      <point x="270" y="608" type="line"/>
    </contour>
  </outline>
</glyph>
<glyph name="tehRing-ar.medi" format="2">
  <advance width="600"/>
  <outline>
    <contour>
      <point x="-24" y="128" type="line"/>
      <point x="624" y="128" type="line"/>
      <point x="624" y="184" type="line"/>
      <point x="-24" y="184" type="line"/>
    </contour>
    <contour>
      <point x="96" y="176" type="line"/>
      <point x="176" y="128" type="line"/>
      <point x="416" y="128" type="line"/>
      <point x="496" y="196" type="line"/>
      <point x="456" y="264" type="line"/>
      <point x="208" y="264" type="line"/>
    </contour>
    <contour>
      <point x="300" y="668" type="line"/>
      <point x="240" y="608" type="line"/>
      <point x="300" y="548" type="line"/>
      <point x="360" y="608" type="line"/>
    </contour>
    <contour>
      <point x="300" y="638" type="line"/>
      <point x="330" y="608" type="line"/>
      <point x="300" y="578" type="line"/>
      <point x="270" y="608" type="line"/>
    </contour>
  </outline>
</glyph>
<glyph name="tehThreedotsdown-ar.medi" format="2">
	<advance width="600" />
	<outline>
		<contour>
			<point x="-24" y="128" type="line" />
			<point x="624" y="128" type="line" />
			<point x="624" y="184" type="line" />
			<point x="-24" y="184" type="line" />
		</contour>
		<contour>
			<point x="96" y="176" type="line" />
			<point x="176" y="128" type="line" />
			<point x="416" y="128" type="line" />
			<point x="496" y="196" type="line" />
			<point x="456" y="264" type="line" />
			<point x="208" y="264" type="line" />
		</contour>
		<contour>
			<point x="220" y="580" type="line" />
			<point x="268" y="580" type="line" />
			<point x="268" y="628" type="line" />
			<point x="220" y="628" type="line" />
		</contour>
		<contour>
			<point x="332" y="580" type="line" />
			<point x="380" y="580" type="line" />
			<point x="380" y="628" type="line" />
			<point x="332" y="628" type="line" />
		</contour>
		<contour>
			<point x="276" y="644" type="line" />
			<point x="324" y="644" type="line" />
			<point x="324" y="692" type="line" />
			<point x="276" y="692" type="line" />
		</contour>
	</outline>
</glyph>
<glyph name="three.tf" format="2">
	<advance width="664"/>
	<outline>
		<contour>
			<point x="340" y="-16" type="curve"/>
			<point x="508" y="-16"/>
			<point x="614" y="74"/>
			<point x="614" y="216" type="curve"/>
			<point x="614" y="294"/>
			<point x="564" y="370"/>
			<point x="476" y="392" type="curve"/>
			<point x="476" y="400" type="line"/>
			<point x="544" y="426"/>
			<point x="586" y="478"/>
			<point x="586" y="570" type="curve"/>
			<point x="586" y="670"/>
			<point x="494" y="760"/>
			<point x="338" y="760" type="curve"/>
			<point x="188" y="760"/>
			<point x="88" y="680"/>
			<point x="72" y="544" type="curve"/>
			<point x="72" y="528" type="line"/>
			<point x="88" y="512" type="line"/>
			<point x="156" y="512" type="line"/>
			<point x="172" y="528" type="line"/>
			<point x="180" y="616"/>
			<point x="232" y="670"/>
			<point x="338" y="670" type="curve"/>
			<point x="432" y="670"/>
			<point x="486" y="616"/>
			<point x="486" y="554" type="curve"/>
			<point x="486" y="472"/>
			<point x="452" y="438"/>
			<point x="346" y="438" type="curve"/>
			<point x="290" y="438" type="line"/>
			<point x="274" y="422" type="line"/>
			<point x="274" y="366" type="line"/>
			<point x="290" y="350" type="line"/>
			<point x="346" y="350" type="line"/>
			<point x="452" y="350"/>
			<point x="514" y="292"/>
			<point x="514" y="216" type="curve"/>
			<point x="514" y="132"/>
			<point x="442" y="74"/>
			<point x="340" y="74" type="curve"/>
			<point x="232" y="74"/>
			<point x="160" y="132"/>
			<point x="150" y="228" type="curve"/>
			<point x="134" y="244" type="line"/>
			<point x="66" y="244" type="line"/>
			<point x="50" y="228" type="line"/>
			<point x="50" y="212" type="line"/>
			<point x="66" y="70"/>
			<point x="180" y="-16"/>
		</contour>
	</outline>
</glyph>
<glyph name="threedotsdownabove-ar" format="2">
	<advance width="600" />
	<outline>
		<contour>
			<point x="222" y="662" type="line" />
			<point x="266" y="662" type="line" />
			<point x="266" y="706" type="line" />
			<point x="222" y="706" type="line" />
		</contour>
		<contour>
			<point x="334" y="662" type="line" />
			<point x="378" y="662" type="line" />
			<point x="378" y="706" type="line" />
			<point x="334" y="706" type="line" />
		</contour>
		<contour>
			<point x="278" y="590" type="line" />
			<point x="322" y="590" type="line" />
			<point x="322" y="634" type="line" />
			<point x="278" y="634" type="line" />
		</contour>
	</outline>
</glyph>
